<mxfile host="app.diagrams.net" modified="2023-08-14T11:15:59.809Z" agent="Mozilla/5.0 (Windows NT 10.0; Win64; x64) AppleWebKit/537.36 (KHTML, like Gecko) Chrome/115.0.0.0 Safari/537.36" etag="Y6yWbm_xm2DSEZ8WPp27" version="21.6.8" type="device" pages="2">
  <diagram name="PÃ¡gina-1" id="e6DfbDHk5DCIIfzoMSr9">
    <mxGraphModel dx="3154" dy="820" grid="1" gridSize="10" guides="1" tooltips="1" connect="1" arrows="1" fold="1" page="1" pageScale="1" pageWidth="827" pageHeight="1169" math="0" shadow="0">
      <root>
        <mxCell id="0" />
        <mxCell id="1" parent="0" />
        <mxCell id="PURfVQADF6VqzF4Mbli_-1" value="" style="shape=image;verticalLabelPosition=bottom;labelBackgroundColor=default;verticalAlign=top;aspect=fixed;imageAspect=0;image=data:image/png,iVBORw0KGgoAAAANSUhEUgAAAx8AAAHCCAYAAACOm3R9AAAAAXNSR0IArs4c6QAAAARnQU1BAACxjwv8YQUAAAAJcEhZcwAADsMAAA7DAcdvqGQAAPNBSURBVHhe7J0H3NXTH8dP9q4QElJKiEKIRGQrQjKSkb2zlZWVvTITGaUimZl/OxLZkVGZ2ckm+/zP+3t/5/F7ft37PPdp3Lr5vF+vW8/9jTO+53vO+X7PurV8wIk5jsmTJ7sJEya4+vXru4YNG7p55pknuVNzfvzxR/fmm2+65s2buzp16iRXhfiXv//+202aNMl98cUX7p9//nFLLrmkW2WVVdwCCyyQPCGEEEIIMePI+RBCCCGEEEKUhOkfThdCCCGEEEKIGiDnQwghhBBCCFES5HwIIYQQQgghSoKcDyGEEEIIIURJkPMhhBBCCCGEKAlyPoQQQgghhBAlQc6HEEIIIYQQoiTI+RBCCCGEEEKUBDkfQgghhBBCiJIg50MIIYQQQghREuR8CCGEEEIIIUqCnA8hhBBCCCFESZDzIYQQQgghhCgJcj6EEEIIIYQQJUHOhxBCCCGEEKIkyPkQQgghhBBClAQ5H0IIIYQQQoiSIOdDCCGEEEIIURLkfAghhBBCCCFKgpwPIYQQQgghREmQ8yGEEEIIIYQoCXI+hBBCCCGEECVBzocQQgghhBCiJJS98/HLL7+4MWPGuIcfftg999xz7ttvv03uVOauu+5ye+21l9tvv/3cY4895rz3yR1RzkydOtXtsssubumll3bLLrusu/baa5M7QgghhBBiTqNsnY9vvvnGnX322W7llVd2rVu3dttvv73bZJNNXL169VyXLl3cu+++W+Fg/PPPP653795uyJAh7tZbb3V9+vRxv//+u92rKTg7X375pZs8ebL7+++/k6tzP8hvtdVWc82aNXNHHnmk++OPP5I7/4JMu3fvbs+svvrq7pRTTnF//vlncvdfKI+jjjrKnmvRooV7/PHHkzs156+//nITJkxwU6ZMcV9//bX7/PPPkztCCCGEEGJOoyydD2Y3Onfu7M4880xzQtJg2A4fPtxmOX7++efkqpspjgLG9R577OHWW289+9x5553JnbmfSZMmuffee8+NHz/e3X///ZVkG3n99dfd7bffbs/g/A0ePNj99NNPyd1/wUHAEeS5t956a7odQSGEEEIIUV6UnfOBE3HppZe6kSNH2szGggsu6Lp16+auv/5617dvX7fbbrvZEhyM4+hwzDPPPK5nz562PGf33Xd3J598sr1XUwjv/fffd5999pn75JNP7P//CjhbEWYZJk6cmHzLQVk89NBD7rfffkuuOJsdwgnJMmrUKPf999/b3yyVWnfdde1vIYQQQggxd1N2zgej5OzviHTo0MENHDjQHXzwwbaUh5F3RuB79erlFltsseQp5/bZZx+bERk6dKjbbrvtXK1atZI7ohjWX3/9Cpn9+uuv5kCkwelgL00a9mM88cQTybcczEw98MAD9j9ssMEGbrnllrO/hRBCCCHE3E3ZOR/sIfjxxx+Tb84ts8wyFUYx//Np0KCBbSyfb7757DrgdOCA7L///pWMX0bs33jjDbu+5ppruuWXX96tuOKKZmwff/zxFhfPXnHFFbafIT3bwdKhPffc0+29997ulVdeSa7mYIaEvRGtWrVyK6ywgn3WXnttd+CBB7px48YlT/0Le1EIhzhZVsYmemZqGjVqZO9uttlm7u6777a0IINrrrnGbbzxxpbXVVZZxZ4lH1nYm8HyMJaLtWzZ0sIij+zJ2GmnnSo5clXRpEkT218TefDBByvt52D5G3svsrBECyckgjyjrCirLbfcsqL8gPJ455133OGHH27yirJbZ5113BFHHOE+/PDD5MnCPPPMM65Tp06ucePGJh/K8oILLtDyLiGEEEKI2U0w9sqKYLz6YDizk9w+DRs29K+99poPhnDyRH522GGHinf23Xdf/9dff9n19957zwdno+Je+rPgggv6Z5991v/6668+GO55n4mfyy67zMILzoEPxrVfaaWV8j7HJxjx/s0337RnIzF9Cy+8sIW16KKLTvPevPPO64MT5YNT4+eZZ55p7gdj23/88cdJiN4Hx8N369ZtmufSn0UWWcQ/9NBDldJSiIMPPrjivSWXXNIHRyy5401OyIt7derUsbTG8MePH588lZP3EkssYfcWWmgh//zzzyd3crJ79dVXfXA2KuLJfpZddll7JoI+BKex4v4GG2xgcabf4RMcHH/sscf64IAkbwohhBBCiFJTdjMfwWC1GYpIMLZtVoCZC2YbQp6SO9XDHg6WZ7GZGpjxOO200+xaXGbEMwsssIDNGgSj2vaPRIKjYNc4YYuTm4AN1gcddJDtCYHgHLnTTz/dnXjiiba/AT766COb5Yj7HtKwfOnUU0+1U7WIKz17Q1pYXsasBzMg888/f6VZgw8++MD169evYlaHsF566SX7m3Qy63LRRRfZDEJcksYSKvbApGeTCrHzzjtbnPDdd99VmukIDmDFTAgzTHEpFeEHR8v+BsoozoQEB6bSbMqnn35qMzj8D5QHskB2yBi++uoru1YIZoyIE2JaAb246qqr3FNPPZVcEUIIIYQQJcdckDIjGNR5ZxaCQW2j82+88Uby5L/km/kIBnTFrEdwMPxjjz2WPJ0bhWdG5YcffkiueB8cgkqzLpdcckly518GDx7sg9Fr95daaimb4YiMHj3aL7744naPWYKRI0cmdyqnj1mDLl26+GCo++Cg+E6dOlXc40M+mR0hPaSRmZR4b4sttvDB6bAwGeXv2bOnv/LKK31wiuxapH///hWzE8xETJw4MblTmM8//9zXr1+/Iq6+ffvadWRFernGbAb52nTTTSueC86cPQfnnnuuzUJwvUOHDpVmIi6//PKKd5o2beqDE2LXCf/JJ5+0fHMPGY4bN87uZWc+CDvKLjg5lvf0TEhwvOw9IYQQQghRespu5gM4eemRRx6x/R5pOOEqGNX2ex/BWE2uFiY9s8DeCPYFxNkIZhTYcxAMc/teDMw4sHcjzgBw3G96lmattdayfQjAM2+//bb9naVdu3a2iZ5na9eu7Y4++uiKGRf+D46HO/bYY10wqi2N7G+IsF8knvLFjM35559vG/HTm++BPRRxZoDfyoizBVXB7El6poKN/YDMXnzxRfub/SSUT/oEq/R+mGeffdZmIZAvxyWTxkh6VmLbbbd1wdGxv3kWmSA/YHbp+eeft7+zIAv29yA7ZsmYhUqf1JVvX4wQQgghhCgNZel8ABum2bjNUprmzZtXWn7EEqJdd93Vvfzyy8mV/GCQ4yBEw56TmfghPTaRP/rooxVGfLEQb9qhwCDfd999Kz6HHHKI++KLL+wejgpH1uaD5UbpJUM4WfFoYIx1HIc0aSeMNGPcp2EJF8fg8uOKbORmidpZZ51VacN49p18kAaWo0XGjh1r+eC3OuKP++EgsBxt8803rygTygkHhSVTcQlW3bp13RZbbGF/A+GwbCzCaVps8I+y42+W2EUKHXOMLsw777zJt9zSK3QlQhqEEEIIIcTsoWydD+D3PDhRiv0GV155pZ2KFGFPAqdRVQVOB/sddthhh4oReIxTjutl5J39Ffl+JK8Q7GXA0I/gfDCDET/86B6/wg0Y5mkHoyqYnYkOUj7S+0LSYNAz08DIP0cSs5/luuuuczfffLOd+FVT54o0tG/fvsKp4OQp9mfwmyvMnkB0jHBSolNEntl7gpPCr8MDe2RWWmkl+xvYn5L+4cJXX321kuz4pH+9nFmNYiDNSy21VPItN8MlhBBCCCFmD2XtfEQw4nFC7rnnHlumFMGArQ5mP3AKRowY4dq2bVvJyL/llltstqCYWQHg3TjqjoHO8bYXX3xx3g8zNmw6n5XgGDCzE3/ojyVTPXr0sOVlLNsq1vlJ07p16wqnAgcPx4NN3hGOFgY218e/mWGhbHCEcIiAcNKQlvSMBcun8smND0vrWE5VDJRd2qlJL/MSQgghhBClZa5wPiL83kU8FQkKzQhkWXTRRd3WW29txjH7DvjhO8BQxjHByI6kl3fF0f4I4bCcCDB6mzZt6k444YS8H06cmtU/rsdvbKRPjiJ//F4Jsz38Knyx8kmD4xGXXpFHfnuE3+UA8r/GGmvY3zhinEIW5fX0009b/JF8zgd7SiIslTruuOPyyg7Hg5Oy8sHvjaRndHB8xo8fn3zLOUVCCCGEEGL2UHbOB/sCmKFgSVN2RoJjXNNLc+IG5UJgpLK3IL33YdNNN7WZgThCzjKq+ON0jMynR+fZ3xFH8oFZlPSeiNtuu802gM8u3nvvvQoZ8SOBbAaPpDem1wScCvZqRKeCHymMP/zHfgt+1C+CLOLsCg7A6NGj7W+WTKU3pEfSezPYf8NSrJpy44032oxVzDfHAcd4IX0AgBBCCCGEKC1l53xMnjzZNpJzohUnPXFiEr9mvv3227ttttmm4tQmToJi03lVsP+A/R4bbrihu/DCC83g5dfAzzjjjIq9AauuumrFiDwOSdqAHz58uMXBEiGWbQEnSy2++OL2N0b5brvtZk4Iv7rNCV19+/Z1Xbp0cRtttFHF/o9ZBZvno5Pwwgsv2G98kMfevXvbcqzp3f+AUxE3wOMgxBkg9pXE68CJU/G0MByd+PseLVq0qLTfI8Ivrsf0smSOskV2LO3CyeGUL34HhOcKQTyUwXbbbWdyxlH64Ycf7B6OE+UthBBCCCFmE77MmDBhgv3KNUkv9OF3HU477TT7he9Ivt/5CM6HX2aZZSq9m/7w+xePPvpoEkIOfjciGLHTPHvppZfafeI85JBD/HzzzTfNM+kPvwEyadIkewfypS/yzjvvVPziOb+jwe+cpAmOU8W7wbD3P//8s13n184bNGhQcS/9QUbBqar4O99voxSCXzZfbrnlKoVHukaNGpU8kSM4gr5t27aVngvOhT///POTJyrD75Psvffe1cpujTXWSN6o/Dsf888/v2/SpMk0z/OhzPbYY4+K30ARQgghhBClp+xmPhhNv+OOO1ybNm0q7b+IsKyG+4zupzdUs9maJVMs+WFvCO9yWtbll1+edx8AI/Ms30kfBwvMGHTs2LFS3MyIMMsAxBkcEXf11VcX3JfAdUbn0/tT8qUvwuwBezYYuSet6dObgNkYZnp4n19Uj0vDOP1rwIABlU4BA55nL8vuu+9uzzKzk/0dkKpg3wfHBsdZDfLMTFR2mRt5Of74421vC/khLk7D4ijjfDBrwmlcbCqnbPJBWg844IDkW25fT8wzS76GDRtmaUNWEf7m192vv/76SjMzQgghhBCitNTCA0n+LitYXsMpThzfyoZwDGH2DLCkJxrfxcJxuhwF+9FHH9n3Ro0a2aZzNlDng30eLGNiozWGLUY3exjSBi+wBIwlYiy/Yt8IJ3FhKJNGnIVSwe+PsHSJZWY4LmwEjxvj51RimUyaNKlCdpRLy5Ytq3Ug0A30gh8UxOnh1K24EV4IIYQQQsw+ytb5EEIIIYQQQpQXZeV8sKk7buwWYkbgqGNmUYQQQgghROkoK+fjzDPPdGeddVbyTYjph99A0clXQgghhBClpaycjy+++MI+QswobOpP/xq+EEIIIYSY9WjPhxBCCCGEEKIklN1Ru0IIIYQQQojyRM6HEEIIIYQQoiTI+RBCCCGEEEKUBDkfQgghhBBCiJIg50MIIYQQQghREuR8CCGEEEIIIUqCnA8hhBBCCCFESZDzIYQQQgghhCgJcj6EEEIIIYQQJUHOhxBCCCGEEKIkyPkQQgghhBBClAQ5H0IIIYQQQoiSIOdDCCGEEEIIURLkfAghhBBCCCFKgpwPIYQQQgghREmQ8yGEEEIIIYQoCXI+hBBCCCGEECVBzocQQgghhBCiJMj5EEIIIYQQQpQEOR9CCCGEEEKIkiDnQwghhBBCCFESavlA8rfIx9Spzo0dGyRVy7kWLZxbaKHkhqgEavTRR7lPs2bOLb98ckMIIYQQQogc5TfzgZH73Xf/Grp8Pv3UuR9+yN2bmYwb51zz5s5tuGHu8+STzn3yiXMnn+zc5Zc798cfyYMzgV12cW6ppZy7887kQpnxwQfObbSRczvs4NzIkcnFKvjlF+cuvjgny/ffTy4KIYQQQoi5mfJzPjD499/fufXWy33WXz/3f6tWzvXs6dzvvycPzgRwMD780LkVV3TuyCOdW3ZZ5x56yLlLLnHujDOc+/jj5MGZAA4UTtU33yQXygxk8tVXuTLYbbfkYhW8+aZzJ53k3EUXOXfbbTPfcRRCCCGEEHMc5ed8/POPc5995tyUKc4ttphzrVs717BhbkYCA/iww5z77bfk4RkAJ+eVV3J/H3SQc1demXNwmAHp0sW5Aw5wrkGD3P3/OjgdP/2UcyaOOSZoVRFq1bixcwce6Nweezi33Xa5ZW1CCCGEEGKuprw3nG+9tXMPPODcqFHOdeuWc0xuvdW5d97J3Wc0/c8/nXv+eeduucW5Z5/NORVxlJ3///7bub/+yr3LTMawYTlDmr0efGDRRXPP8HzLlrmR+ksvdW7hhXP3uc4yovvuc27gwNxSMMKL8WThOrMct9/u3NNP58LOB8+R/meece7mm5176aXCzwLPp/MT4W+ucS/Cs19+6dzQobk8T578b3rzhcE9rvGJz8VrOB+UBc7Zr79Wvh/D4u8YH3HVq+fcddc5N2hQbvYqwnPk+bnnnBswwLknnqhcZpANVwghhBBClAdsOC8rfv3V+/XXx+T0/qCDkouBm2/OXePz2GPe//OP9/fd532zZv9e59OkifcjRuTuT53q/SabeF+njvc9e3q/2GK5Z447zvullvK+Vq3c9/nm8752be/HjPH+iSe8r1vX+zXX9P6nn3JxX3557n6Mg+fPOsv7v//O3c/Sp4/3iyySe3aeebxfbz3vl1suF9+11yYPBYYO9b5hw3/D5UO8L76YPJDhu++8X2MN7xdd1Ps77kguBi69NHdt111z33/7zftDDvF+wQX/DZf03H9/7v6hh+a+H3987juQb+Szwgref/JJ7trAgd43bvyvnPgQzxFH5Mrpjz+879LF+yWW8P6887yvXz/3zCmneD9pUi6sxRf3/t57c+H9+af3V16Zux7D40NZXHCB93/9lXvuww+9b9QoVw6DBuWuCSGEEEKIOZ7ynvmIMEI/cWLu73nndW7JJXN7J44/Pnd9xx2du+Ya5zbfPLcx+pRTcrMbmLbff5/7sPl56aWda9vWudVXd659+9yMB3B601Zb5TaEs6Tr559z7zD6zl6NPn1yG94POcS5fv2c22mnwsuI3n47t8+BGQKWHm28sXMTJuRmBdKwtOyEE3Lhd+3q3NVX52YW3nort+SL+LOQHq4zC0P4EdLL9x9/zH1nQ/gNN+T+Zu/KFVc416ZN7n1ANjzP/5GYb/LJzAQwozT//M4de2wu32yaZ7aIWRryFOVLvKefnpPJpps616hRLoxvv83FQbjw2GO5sJAFS9uY+ejYMbfEjve5T5jkL+6R+fzz3LtCCCGEEGKOp7ydD5b7cAIVS6BYwgMY8zgPGKpsFudvlmIdfrhzQ4Y4t9xyuessjUqDQczyJpZBde/u3E03/bungz0fnEKFs5AlGvsY1jgoOCAsp2L/Qz4HBMMcA75uXedGjHDuqaece/TR3DKkNP375xwQHB8cjyOOyC2P4j0cqBnZ7P7FFzmHbYEFcg5Djx65jfQdOiQPFMm55zr3wgu5vTbk+8Ybc/LFsSCONDhyd9+dyy/yzQf5wwHCSWQ5FgcLEOYKK+TC5D7pXnVV5x5+OLeEi7IRQgghhBBlQXk7H/ff79wWW+QMfUbX+Zu9HezFGD06Z8gyao7jwZ4QNkMzys4eAvYdpGHPAs4GMyd8igWnhVkDRuSJo1OnnFOB45F1PoiXU54ApwhnhrjYNL/yyrnrwHMvvpj7G+eGk7YI+9RTc/fY64ADM70wu0O6mXXA0Gcmhfjmmy95oEhwKMaMyTkhOAGkM86ukMY05HHttXOb0QvJ9733cv8jzwUXzP29zDK5GR/gUAHCZbaFsmazOs6YEEIIIYQoC8rb+VhnHed69XKub1/n3n3XuccfzxnVEJclff11biP4PffknAKMV47MZTQ9DQZtvpmK6sAAZwR+m21yo/M4RDvv7NyZZ1besA04KHE5FO8VOhWK95hNAWZ37r03l37CJgxmSchDVfBcIXB6mOnAAUJOzPJstplzd91V+b2qwuAeS7bId+/eudkl0hnTnYVZlupOwWLJFmUQN/ID3xdfPPd3XBYmhBBCCCHKkvJ2Pvh9j/POc+7oo51bZZXkYkJ0QniG/R8YxfHDCDrLmWYWOAMY86++6tzee+eMbJYYxb0MEWYW4vIqln7F+8wWpGcycISic0H6maVJp5/9DvnSj6EeZxXifg0MdpZoZR2J1VZz7vXXc8ugmJXgOfaBMLMSnQT2VESyeytIM04XeWKJGM8yy8Sxx9MLe2pIJ/tFIjgk7JOB+vX/zR/X0+kTQgghhBBzPOXtfFQFG8YZQWeDNsfxsgeBjczMkLAfJG6anlEwlE87Lfc/S4S23DJnIGdnPYDrzBRg3LPnhA3VHBPMr4KPH588FOA5Nsnz/9ixuf0NzICQB/LDDA5OQhZmU9g0DzgGHM3LRm2WoqV58MHcJnP2lDRt6twGG+SuRweFfAByGj48N+tCHtPwY45sQsfh4fdWcEbY68JM0/SCowXkj83s5JnZnjfeyMli++1z/+N8MXtDOtkHIoQQQgghyoK51/lgNJ8N4MwU7LVXbt8AHwzto46aOT9ECCxbYsM1Pz5I+IcemnNs2EOyyCLJQyk4uYq9Dyz/Ovnk3J4Lfn8kO3Oz++65fQ2M8LPfY911c+ETT9y7koV9Evy6OA4BG8HZO3HBBTmjPr2fY9Kk3ElgyIJ7116bc4h4l+VR0UFiNoZ07LprzqmpXTsJIMB3lr2RV/Z7kLaDD869P73wPvtucGBIA2GyOR1HDhlwAhZ545QsnkGG6VkSIYQQQggxRzPvmYHk7/IA4xNjFGOd2YEmTZIbGVi6xEg5x+5iSC+0UG6kHGMbYxkHgFF0wiMsTnrif75DjIeTlbgXT77iOp927XIfTndiiRTODMY/z7PBvWfPXJxZMM5xClgWxV4GfrSQpWNsVGfzNL/2TVw4CzgwzCrwN2ETD++ysZv34vKoNGutlXuee2xi5+ha0kJecXRwGJg1IG04DsyWcI39Gxj48T3ygeNDnMiZE8WWWCInP2Z3mFXCEYrLtFhuxYZ4jhlmedS22+aWUREv+2soC9IW5ct1ZlpwqjhOl+Vo5L9z51x4fHDeeIdfrSfs6MwhN54l3Tgn2nQuhBBCCFEW1OLHPpK/hRBCCCGEEGKWUV7OB6cpcXKVEGkuu0yzH0IIIYQQZUB5OR/84BybtIVIw6b07I80CiGEEEKIOQ4tuxJCCCGEEEKUhHmS/4UQQgghhBBiliLnQwghhBBCCFES5HwIIYQQQgghSoKcDyGEEEIIIURJkPMhhBBCCCGEKAlyPoQQQgghhBAlQc6HEEIIIYQQoiTI+RBCCCGEEEKUBDkfQgghhBBCiJIg50MIIYQQQghREuR8CCGEEEIIIUqCnA8hhBBCCCFESZDzIYQQQgghhCgJcj6EEEIIIYQQJUHOhxBCCCGEEKIkyPkQQgghhBBClAQ5H0IIIYQQQoiSIOdDzPV4792PP/7o/vnnn+SKEEIIIYSYHcj5EHM1P//8s9trr73c+uuv7z777LPkqhBCCCGEmB3I+RBzLX/88Yc7/vjj3dixY929997rVlhhheSOEEIIIYSYHcj5mAG++eYbd8stt7jPP/88uSIiU6dOdYMHD3bjxo1LrpSeDz74wC2yyCLunnvucauvvrqrVatWcqf8eOyxx9yIESOSb2JO4uOPP3YDBw5MvpU3X3/9tRswYID74osvkitCCCHEzKVsnQ/W8f/1119u0KBBrk+fPu7XX39N7kwfr732mjv66KNthLxYJk6c6A499FD3yiuvJFemnyeeeMIttthibsiQIcmV4njuuefckksu6YYPH55cqRr2Pfz5558mv1nJd99954466igz/GcXkyZNMh356quvkivlCWV10UUXuTPOOCO5MmMcfvjhbsUVV3SffvppcqV6fv/9d7fTTju5Vq1a2YxSdcT6+ffffydXZg6F9Pfiiy92tWvXdm+88UZypXQ8//zzJtO5gXfffdcdcsgh7u23306uCCGEEDOXsnU+Xn31VbfVVlu57t27u+uvv9798ssvyZ2ag0Fz9tlnu2uuucb16tVrhh2Z6WGeeeZxK6+8sltggQWSK8XTsGFDN9988yXfqubhhx+2/Q84TnMzGL29e/d21157rTvppJPcb7/9ltwRSyyxhDkfNZkJwtivU6eOW2655YrauI+8O3XqZMveZiY42RtuuKE5lmkWXnhhqz/UIyGEEELMuZRdT40RxGj6NttsY8bT2muvndyZft577z2bQcBI/eSTT2yJSz6Im1OTJk+ebKO6VYGBNmXKFHs+wvs//fSTXc+OCG+++eburbfecrvuumtypTK8xzKvbLxt27a1WRtGpdOw0ZolFFmnjBmJCRMm2LKoQvBuNo04ZITH+/mMT/LGM8iGUfKqYOScvBBHVXIkTJ4hPfxdE3BOyeeJJ57oXn/9dffSSy8ld6aFsL///nv7pOPhb/JLnhhtzwd54T75KfRMFuTDO99++23BmQHCIkz0p7q8x/DScidc3kdvslxwwQU2Wt+gQYPkyr9QHvniXWihhWyJ4YMPPmh/R9AF8sE76bIk/vfff38aJyEN4ecrX9LMbFW+vPM84WZ17Mgjj7RZj7XWWiu5UhxRF5FfMTM6QJ7RlWwdyTI9ukF4hMsnX91AHtRp6mKhehHrKvez8DxyLXS/EFEfs+UshBBC1JjQGZUVoeP3/fv397fffrsPBrQPxrpfccUVfehMkydqRujsfe/evX2jRo18MHh8MF78FltsYWGnCYaEP/PMM33jxo39CiusYPE++uijfsEFF/T333+/PfP222/7bbfd1o8dO9YHR8avtNJKvmnTpv6aa67xocP2d955p1911VUtvZ07d/bBwLD34J133vFbbbWVD06Qff/tt9/83nvv7Z966il/1VVX+SZNmli8u+++uw/Ghz0DH330ke/UqZMPDoh9D0aC79evn19ttdX88ssvb/EhL/J57LHH+mbNmvl55pnHr7POOj44Ln7QoEEm0wEDBvhDDjnEByPdB4fO5DFy5EgfjG9//PHH23vBWLU8devWzQcDxuKL3HfffX6NNdawZ1q1auUfeOABX7duXX/OOeckT+R4+OGHLW7yghy23nprk1ckGE5+//3398HQ9T179rT42rVr54OxZ/LdfvvtLeyqQNb77LOPb926tf/iiy8sTeSN62kuvfRSf8opp1i5kF9kNnHiRLv35Zdf+q5du/qGDRtaWsnTs88+a/cA/bjiiitMVtzns+WWW/qPP/44eWJagsHszzvvvAo5kf/gRE/zzqeffmrXCZN0XX311RY2cUWuu+46f/DBB/sxY8ZYOfJs+/btfTD2rWwOOOAAC5/yR5aUfwT92G233XxwGux7cCh89+7dfTAsTS9jvOhNhPf79OnjDz/88OSKt/qyyy67WDy8Exxo08fg9NnfCy+8sF9qqaUsfXwnn1WVL+/uueeeVsfQXf6nfKh7fA477DC/yiqr+HnnndfKg3CpWzBixAjTDWT34osvWj1ENmmC0+J32GEH//TTT1s9ufnmmy0c0s5nk0028W+++WbydH7QIeo2ekG+qaM33nijX3TRRZMnpk834IMPPrC6TLh8kAvtQpq77rrLr7nmmqY/yId4IqSNPMX7yIo2C9kB7UZw0qxskS9t0xlnnGFlEnnmmWdMvo8//nhyxZse0C7GvGy00UY+OPTJ3Rzjxo2zMkjrmRBCCJGPspv5YLbjoIMOcsEIrzQCO72wPOSRRx6xpRzsnWBG5eWXX3bBEEqeyI10siSLEeP11lvP9oYw2hsMj0ojmoxyMmsSDDn3wgsv2GhsMCLcCSecYGvCWbMfjCtbLhaMdRcMh+TN3EbPJ598smKkOBgSLhgCLhjv7tZbb3XB4Hc777yzC4a37TNhVBUYiQyGQsV7wUB2xx13nAsOlLvyyivdvvvua8+Qh2Do2Wg3S1OCYWKbsJdeemkbDWWN99133+2CMWnLsoLxaveC8+OCMWfyJi3BOLWZp2AU2igt75JnZIH8yHMwrl0wjCuNrBL/bbfd5oLRa+EeccQRljZmJ8jXhx9+aM+R71GjRtkafmREOpAXy8qCIeb+97//2SxVVbBZlucoS9JEfpBldqSXGaNhw4bZkrs99tjD8sgGdUaWyU8wXt3JJ5/sLrzwQrfssstaGZBeYLZs4MCBLhj8Lhh4LhjGtrm+S5culWa70rCenvILBrDFSf6ZgWBpEvmG4PS4YERbWMGBsnShJ+hkGu5TXoQRjE134IEHmnwIG3kiA8qCfRDsvUlv/GeGjXKNs1/kKTjQrkOHDqYblA35ZdYoxkv5oQdR9pT7aaedZjJiqSIyCo6O6XFwyF1wVm0JIUu80DM+fK+qfNEPZprQnXPPPddtsMEG7rLLLnPB4LZ6H4xmV79+fReMYxeccQuTZWDAbAj1gBkJ0s4+rJtuuqliZoL03n777VY/lllmGcsz9blNmzbu9NNPd8Ext6OY0X/ykA/qOrOjwRm0cqceorcs70szPbpBuVNuHF5B3qlrpJ36Fus2uoJO0FYhF8qJWY7I0KFDLU3Iifyg/8juhx9+sPaKvCGDjh07ms6ts8467vzzz7d2KepfFtITHBprT3iOOJE1OhXfoQ0lXto2DnkQQgghqiR0ymXNjM58BKPABwPJRhThiSeesJmB9Kgvo+eM4DJKHzpcu8boZjDWWPNQMfPBqCHfGXVl5gIYIQyGla9Xr17FKCYjjS1atLAZgEgccQwGhH0PhrKNCpM3RrMj5JewgqFk34NxaKOuMQ2M5pMfRlHzwUxHMLD9G2+8kVzJjWozu0Hag1FhMyFVweg4I6vMijCquuOOO1paGTkHwmPGg/DizMdPP/1ko6fMRqRnbpjpCUapDw6TfWfUnlkWZk2Y6UiDTILjYyPuVXHvvff6+eef3wcj174HQ9BmqJhFSsMMDmns27dvciU3sxacPb/YYov5YMAmV70PBpyNdgcjP7kyLcEAtzKsbvQ8TTDmrDxjnpiBIow77rjDvkNwZH1wtCvNfDCCjV4NGTIkueJtFJv8MOtBGUBwDE2fg4Nt34F30zrE6DnvBSfZZgQgGNVWBugDcJ1yRm+B8mSmqJC+cJ9yZGYkTVXlm4VnmfEj3si1117rg0Plx48fn1zJQR7Qo+BYWd1j9pIZJsIA6uumm27qg+FeaaQ/DXqAnKlT+WDmpE6dOjYjFqEOMHuSnvnIR1W6gfyCE2BhBwc1uZqbCaHdYbYMmAFDL/PJjTrVvHlz37JlS6snEfSA8JkRQV8GDx6c3Mnd22uvvaw9oB2EfDMfWZgBowxiu0Q4V155pcklXbeFEEKIfPynd2eG/Lsbb7zRRkrZcwHBkHBNmza1U6firAabsxmRZQNt6JjtGrMujPgyypuG+4xOxuvMNARDy0aVg7Fm19gcGwxJC7M6GMkmjAhhsN49jlpnYcSZ+4yscwRoTWBEmJHdfBuRWYfPTAEj39wnDuTDqCejyKy1X3zxxe1ZRs/3228/26AcYSSe/TSMcpP/CDNJzJQwU5GmXbt2NrqdJhh4treFdBaCMmV0lzCDoWzXgjNoZXzVVVdNM8LLdWZjItxntJjZGUaMR44caR/2jVCO6RkEQA5cQy48Hwy9KvfTADLjt0eiLJnF4hqwb4F8oocRZm4Yoc9CeoJBnXxzprfMLjBDQxkAs13oYjAQ7XshKCtm9JiBAN5DNozI54MyRL6MtjPDEOtKseQr3wgzdezRYd9OcCILzhYUAhlQV9H/WF7kg5kh6mG6zpJuZiqYjSFe9KdQXpjlYKYhthWA3I455pjkW2WK1Q2eYxZrhRVWsHoSdY50MRMXZxNi3WY2hbyQ1khwxix91Dv0J4IeoGPMmnCa3kYbbZTcyd1jlhadZ6a2KniGOJET+sr3OOtCOMyEcLQ26RVCCCGq4j/tfGCQ4GRgBNHZswzk6aefdi1btrTOGGMbWLJAB44xliY6IlnSxjvGHAZUNAYjGAjVGYQQjYcIYWF0YMjkg6UeGJGcaoWj0qNHDztSNW2oFIKw04YL4CCxbIwTtbbeemtbmsQyNcLjQx5YzlSvXr1K8simGxliYGPUpq9jCLJ0hg22aTCU0s8VC4YajgyGMccXU6YYXhjmpJslI2lwItPOEIYnS01YgoMRz1KS+GFZXdQBjEiW4rF8bZNNNjG5XHfddVXKmfyz1AcZYMDyDkdFQ3wPOWDApcsBOWT1J5KWEUY3pK9F3auu/LNx8DfvFtJRypqlQRjEGJ78f8cdd5hxXAz5ypeljhy4wLIhlgZ17drVyqu6tGch3B133NHkiHypK2yUp2wJn7xhQFP30YvWrVubA8pyqqpgSRfyyDq/2XagprqBXtAWMcjBr/FHfWNJGmln6SBsttlmtiQLB2Ddddd1+++/f4U+ozfkiXqaD3QXmWfrN/qM3rDBPx/klwEalo/iALN0DCcealouQgghBPynnQ8cDtZ305kzAhg/GK8YUYzq0vljXNDRFmtYzU4wpDFwWauPcch6bWZi4sh6TWHfSN++fW1NPyPRrKVnH0Ia5EP4VRkjPIPRl16jDsiXWRUMoxmF+DmKFSORH+RLlykj6cTNvoCqwHDFGGvcuLHlNf1Bpuy/gYceesj21mAs4qRy76yzzqpkwGdhRoZRa5xDZMk7hJEGOWEkF+OYzm4w3Kkr1CMcePaf8AN10wP5xYmhfO68884K+TRv3jx5omZgLDPjhT4wI0C6mG0hzUC60QtmFmNc/F5QVVA26Ed17UBNdYPr6ByDHvl0jr0WwEAGAwHo8qWXXmpywkGO90hbtn5FuJ9Pr3CUmMVgb1A+2M/FAAZOR0zTeeedl9wVQgghas5c63xg1DKax2hgIRgNZQMrG4EZmY8fRr5ZnsDIOZuPWQ6B4ZE+rpVOnBF1Ou45DYwZ0owBxOZ8NpNHo4R8YKQXWlqShY3JjOAyEotBxyxF2ojCaGKJEqO2UdaEz7Ki9BKT5Zdf3gwcZpTScTPazbuMEFcHMmdZSqEyxQGiTNmQSxmmy5QlI6SBDd9VOUnMxMQlccRHftMfNlADuoAc2OjNaDN6lF7Okw82dTPSzEbw+E7WIOW3KtA5lqhFGBWPm47nJDB2mV1g6RyGMGlnU3qEvFVV/9JQRsiUTdc4DSw1XGqppZK7/4L+Urer01/iZoM14TJyT/ljQPM+4HBgkLO5HUeTsqjuAAue4Z0333wzuZJbMsWm+zQ11Q1mI5ipo5xJX1bn0rMVhEt4bGJncCEuK2M2jWWPtFlpB4Mla7RROIcs/cIRi1APeJ44WdqXD+oL8bMpP8qJGbEslHOhjfpCCCFEmrJzPugwWebDGmc+GGp0riy3YQlC7HgxCFi+ceqpp9r3LIyO0/GylCG7jAIjhL0JGMV07pziw6gka9sxrjA4+vfvb/sj0h39nEC/fv3M0MIYwPjH2MAoiQYDeUVeOAEY69UZcRjLGPwYRjzLjAJruyPIit8awdngFCxkw74FloykR4hxUDBwMGYY3eYehhHr5fmb03mqg9FqjDl+7TsfLJXCMGTpWdaQJB+c2DN69OhKJ5llwbjjRB9kg+OGE4IsY76QLZAf5IF8+Z/rjJxjGBcC543lMfEdnFdOfUqDPhIfJ1zhMCIjltfEU7bmFFjKx74iZq1IL/slqFPRYcDY5m9O1kJ/kGdVsqG82D9B+ZFn5H3JJZdM84vl6C9yQX95pir9xSliydLll19uM4LpfTNc5110gf8ZqGCWryow4HGKmP3COSR+lmrxQ5ZpaqobGP/M+pAGZjnIHzJFZszKRn1lFpN2LdZt9iHFfVa0dVtuuaUtM2PmhbTRPm633XbmgLHXhXpPe0hZcZ96yEwcbR3LuPKBzlLGDNCQF/ahZE/3Ava/MauUXdYohBBCZCnLmQ/WU7PGnA97GzBuGO3myFHWNgOjshhA2TXOEZYT0MkzghhHQyO8yygpBgtHsfI/HT8j56zVZwQQQwVnBKM2jmpi4DMyGtfeA2FhWGWNYcJMX8u+ixHM39n0ExfPxTTzDJ+YBgwFjC72e3AUKcYLBkZc1sTxmoyyctQmBgtHdgLvEw7pTcNxqxhqzEwQLkYxhhLpIg2ks2fPnnasJ5tdGf3G+GfWhRkE8gnkj+VbLH1hPT5x8yzLUpAlaQXiJx3IJpsWwoj38oHRRZpY1599l+s4FTivbCgHwiF95CENm9VJE0tekCPywvBkz0s0BFnHz14BZoRwqliKxkg3cqF88sGSGfKJkcg7lAFr+JkRiu9svPHGdvwpThqj2ThbyB95RllCLPN02qMOpeMn39nnsu8iB75HnYpwLW4gRp7EzzXgf2aZKEeWRmG8Uv/i5mvSQv4wdLnPTBzGcKHyxYhmJB+HH70hPAxeli6l6wAb7KnrHO2KbDjyGQiTTzrvzBowk8IAQZxNiVC/cUZZksjmfuTOPpNsGGkoB35okfuUI/Hz/YYbbqi0bGl6dAMHHmeOfTMY8egc7Qxh0b4BzgjOKYMhxM8mdWYkIsiPvJA39JW/0SHqPjKjDUOmhMt9NuWj07QBseyjDsXvyJk4Of6Z8NgbwxHLOJY8C9QpnGq+F6qbQgghRKRW6Di0a7BIcFZYhsQIIk5IXIIzJ0FxcsoPI6QYERgOGE1pGFnmN0V4FgOsunwwu8QoKeHhWKSN4Aijoozk4/xhSGH45QNDkNFtRoMZ6capmRn7PWYFlDf7GTCsWG7C706k00peOKCA2REcivTpXoVgxJp3MCQLyZ5yYQSZ9fUYohjjWQdpToAReGYgWBKGI4l8okEK5INyZoSegQIc3+rygaHN6VDoD0sf8xnrzHyijzgvyD3roBcL5UdcLBeiLLL1pBDM8NAOUA9wpvPVh+nRDWCWgt8ioc7h3GDwpw165MOAAnmnbmeXpjG7Emf3eBfnOQ11n/BZgoVe4WhXB+VMPSDftHvZOHEwcd5wtPitFiGEEKIq5HwIIYSYbtjvwz4mfsgz6+wIIYQQWea84VQhhBBlAzMfbOqX4yGEEKIYNPMhhBBCCCGEKAma+RBCCCGEEEKUBDkfQgghhBBCiJIg50MIIYQQQghREuR8CCGEEEIIIUqCnA8hhBBCCCFESZDzIYQQQgghhCgJcj6EEEIIIYQQJUHOhxBCCCGEEKIkyPkQQgghhBBClAQ5H0IIIYQQQoiSIOdDCCGEEEIIURLkfAghhBBCCCFKgpwPIYQQQgghREmQ8yGEEEIIIYQoCXI+hBBCCCGEECVBzocQQgghhBCiJMj5EEIIIYQQQpQEOR9CCCGEEEKIkiDnQwghhBBCCFES5HwIIYQQQgghSoKcDyGEEEIIIURJkPMhSspbb73l3n333eSbENPy+uuvuw8++CD59t/ljz/+cC+99JL76quvkitCCCFE+VPLB5K/y4Y///zTDRkyxN12223WMa+xxhrujDPOsP+nh99++83dcMMN7q677nI//PCDa9GihTv22GPd2muvnTzx3+D99993d9xxh/vrr7/cPPPM45Zbbjm3+eabu8aNG7tatWolT00///zzj2vbtq1bZJFF3OOPP55cFeJf0JE111zTrbfeem7gwIHJ1f8mn3zyicnh1FNPdT169EiuCiGEEOVN2c18/P77726PPfawDnnppZd2q666qnv44YfdZptt5p555hlXU19q3LhxbuONNzbnpW7duuZwfPzxxxbeVVddZcbQf4Xhw4e70047zQ0dOtTdeeedJhMMQQyf7777LnlqxsCxwXkUcwdvvPGGOajvvPNOcmXG+fvvv6UjAdoyZMFnZjFhwgRr25577rnkSun4/vvv3Q477OAuvvji5IoQQoj/ImXnfDAC37FjRzN2MJIxmPmfGYurr77ajNtiwaDeZZdd3Icffmgj8ffcc4+7+eab3VNPPeVuv/129+OPPyZP5sAYiMZzdU4JBgPPpp0h/i7m3WKIaUmHFa9l4y0WwkK+zH5gVE6aNMkdfPDBJtdbb701eepfopHI/4XiI8z4TFXUNO08E+MvJM/q7kdmRGb5iHlOxxvzV5WsssRwCqUthskzhcKMz1SVvxhPVWnjer60fPPNN27MmDHu22+/Ta78C8/FMigmfv4v9AxUJ48I93imOlnH52Lcs4LqZDu9aYhyLfROoXhpJymvL7/8MrkyLfHddNjFppPniDNfGTFw9Morr5gDlI90HNl3hRBCzD2UnfOxwAILuO7du7vFF188ueLc+uuv75ZcckkbWauqY8yCs8FSoz59+rhWrVolV3MOzrbbbmuzKyw/gvfee88McUZ5+Rx00EHuzTfftHuRa6+91hyhZ5991u266672HLMHrN3+4osv3BFHHOHatWvnunbtWmmkmGVfp59++jRLkR555BF38sknV8w6PP/885ZW8nnCCSdY+F26dHGvvfaaddrXX3+923rrre2TdRYmT57sTjnlFPf0008nV6pn3nnntTQjawyWyK+//uquueYaG8XcdNNNXYcOHcxBIZ9pxo8f7/bbbz9L50477WQzU/lAtgcccICNyG6xxRY2+5LPmI2QV/K3/fbbmzw7d+5caST3l19+cZdeeqnbbrvt7D4zZSNHjqwwaDCOkNVNN93kHn30UQunU6dO7vPPP7f7aTDSTjrpJHPG0tx3331WZkC4I0aMcBdeeKGV81FHHWV52XfffS1v6OQVV1zh2rdvb2nCuavOgCO+KJOtttrK4qLcIz/99JM755xz7B7yJa6JEyfaPfSS59Gb888/32SKTlx++eVm2KWhTHbffXeLB52nXLPlSLiHH364xbPlllu6E0880fSJMiBfPM9o9qGHHmpLpcgb94k76sg222zj+vbta7JPg17F+Pfcc0/bE5QPZjfRdcqTPFMmyDoydepUd+6557oHHnjAZu14Zv/997e6lQ+WNLG0kvwQN2l48sknk7s5Henfv7/lLw1lQJ2kzhWCNgDdGjt2rNt7770t/N1228298MILyRM5qIvUD8qHfO2zzz7u1VdfrdLwRvcZIIlyRffRvbRc2TNDG0OYlOlll11mZYTOXnDBBfY3eaO8LrnkEtMJyhh5kOZDDjnEynrAgAFWlqNHj7b2DlkRJnkZNWpUElvOAUUn2J8ybNgwq0/oOu1NHMAhX8gN54e6Sty9evWyugrU9zPPPNP0FHkht2ydE0IIMXcwV2w4p0PDyGAZFgZzsWCQsv+AjrIq6FTbtGnjnnjiCdeoUSO38sorm9HKe+kOkj0jdPR01DgtGO107nTqGE4s8WrSpImFs/POO1unDXTAN954o824pMGJ6devX4XRSTowDgkLQ4a0YDziFJ133nlm3K244opm+GEApw1yOv+LLrrI4qmJg7bgggtWkimGCobt8ccfbyOZ66yzjqUfY7Bnz54Vhit7cUgnRuNKK61kxhEGUXrUEyML4xznhfTtuOOOticEww0Hs5DhePfdd1uel112WYuDNCIbIH04jRiiLMnDqMSBwAF5++237RnSguOJwYzRTjnxyRrGgIGLzLOOJmV43XXX2d/kg3JgmR4GGvE0bdrUPfjgg2ZcklYMuWbNmrmPPvrIHXnkkZbvQuAQ46yhLzix6667runBMcccUyFfnCvKE/kjN+Qd88f/pIXrgwYNMjngMGIMxvInzaSPeDAQkSO6iewwAqMsvv76a5sdvPfee+1+vXr1TM8pL2bGmDUkPDaII6NPP/3Uwia/OCfLLLOMOQI49BifOH3RuMYBoFzQZeRFXDybdgIJe/DgwVaOxMUyQMoK2WOgki9AV2655RYrdxzm5Zdf3i200EJ5dZ16h9FOuOgQ8sFg5xoDAKQPIx8nkb1laXDoGGSoyvl46KGHrC5G3UNu6CeOZ2wvqKM4dMigdevWbsMNNzSdQl+yM64R0kT7ctxxx5lc99prL9N3ZPi///3PnkEe1B0GN2hjWEZKen7++WfTZZwM8kfZUV7oGt/RS/KF7Egr+7yo30C5cUgE+09IJ+VFHHFQhP8pVwZEaBdIG4NE1C/aP6ANI03kAUeDuAkTPUOncXjQ8Q022MAGAnBCkV/awRRCCDGXEDqesuess87y8803nx86dKgPxkZytXo23XRTH4x1H4ye5Ep+gmHml1pqKR86RAufTzDsfehg/YEHHpg85X1wRvzCCy/sH3jgAR86WR8MA7/99ttb2nr37u2DYWDv9unTxwfDyI8ZM8beC8aQX2655XwwDu17hO9LLLGED4adfb/iiiuw2vz+++/vg4HiQ8ftb7jhBh+cA7/aaqv5YEhY+MGg8cEA8MFAsPfgp59+8sHw9KHDLyij4MD44DT5YCAlV7y/+eabLfwLL7zQvgfjzNJOfoLBZ2FNnTrVB0PKzz///P7555+vyGNw7HwwiiydyIL4kQVyB64FA9IH48wHg9Ou8W7//v39Yost5l955RW7liUY7z44ND4Y3Pad8IOhZH8HB87eHThwoJUB4VG+wbj1wZixZ3h2m222sbRcffXVlg6e45MlGNmWj2DEJ1dyBOfOdAKIPxhdJqdguFs5cy04aT4Y3T4YbJY/wh81apTJLxhl9m4W0oy+BUfFB8PL3iEs8kM60DtA17bYYgsrAyAPwYizv2+//XbTk0022cQH49fCCA66D8ajr1+/vl0LDqPfaKON/Oabb266BIRx2GGHmWyDgWjXzjnnHIs3GMYVaQmGs+kTf1O+3A+OvL3PNQgGqX2iTEkn8QdD2+RDPoOT7uvWreuD4W/PoUdRB4NBbe+hy6Q5GO4WJ88RT3BQrf4Fo9eeI72rrLKKD46oHz58eEXZx/gjXEdX69Sp44MRbenlGXRkjTXW8MG5sXSTXmS8/vrrJ2/moC6iX8G5Sq5MS7du3Uz+wUG0MiH8xx57zNIWDHl7hnRQvrHMeAZdRJbIA4JD4JdcckkLB6iXiy66qLV3yACCUe+Dg+GD02vfX375ZV+7dm2rB0C4lDX/83nxxRetjQqOVaXyIn3IkzKK5cYHqGdRz7gWnFbTYf6H8ePH++AQmvyCg2hhUh5rrbWWb9WqlT3De9QBypI2k7iRAQRn1t5/9NFHK8ojOLG+QYMG/thjj7VnhBBCzD2U/cwHo/uMAjPKy4gZI6zFwoh9MJirnC1hFJKRPpYCMHJN+HwYBWSpVnYpUfPmzW3JAmEG49a+h87eBYPE/ufd0CnbCGActa0JwWiykWlGf5ldCQamjfAy0xFPpWL2Y4UVVrBR6EgwmGwZT8xDIYJO2MlfZ599ts1UMErPhnzSH4wCGy0PBpCFxYwDYRE/o+P8zYgleUNmpIORUtKJLJhl4CSxSDBoXDCWbAaHUW/eZbSfkdNghNhodD4Il+dZ3sKoK+Ez0kr6WKpGuphtYaSV8JgVQDbppWPAiDej56SNtFcll2JgFJ1yoJxJE3knbMorGF0WfnASbYaOJWn5IK2MgKNbjNCTfmYymHFAp5AXUL6Mot9///0mR+JBlyOkgZFn0kS8wYm1vVKMxDPKTdikgRPi+I7sGYlGblOmTLHRaJYyMcvEbAMzUoRDvkg/+sTffID/SUP8jp4GI9jqGKPtfHiH+oR+MBLPzB4j8y1btrSw0SOW71BWEcqQtKJfvM9zxMNMDTJlKVEa6gMj/siKZ/mkYZYUHWGpJjMOpJdnkC+zVsgCGc0owXC2WQzKhPCp88iNZU1A+jhNjrwwuk8+0WFkU2jmIzgONtMRnCwrK8qMGQzKJ856Ud7BgXFXXnmlhUncfI+yKFReEWZtKbv4PFAfyQdyIV7e4UO5pGE5FrPC3CMMdJhZDkjHzd/EjQzIL/U4OPIWD/lA56nXyCdbZ4UQQpQ/lXueMgIjmXXvnMSEUYIDgsFVE3iepQV0gIWgE2TJAEYaHWYEAxcjIHaukWxnHh2O2JEDRhZgLNeUdCcOGBZ04nzSEAcG5PTAsicMV5aWsK+ApSgsYyG9ODQYsnzSYLwhH8oEeWLAsg8nLTPSnU4n6cMYxNjGGGR5ER8MS5yPQunHQMKwZ5kHDgTp5dmYPuJm+U4Mjw/r+bPyRm/SBvuMki1nnDS+p/NMfBiZhRxP9AnjkyU/6fTjXKOrUSYsoSJ8ltxg2OIEI7MI8WbzhtPGdXQaw5E0sNQFIzHGwx6lmF6cDwxjDErSXBNwOkgjBuTqq69uy8PSjjphU6/QqzToSFq/ccbIF85WGsoOY577aTBis3UwDeki/9nwgLSgu+jwjBKN6wj1FIOcuIH2C0cSx4FywQljGRYUahcoC8ofpyatG+hKhHyxl4KlVugFzjX1gfiKAZlmwWGivpFOHEV0Ed3JpjMtd/SMPBfKS4T8cLogH5ZcpfNFvNW9L4QQovwo3EvP4dARs7ER45VNpg0bNkzuFA9GFQZQ1oDJQqeKsZSGzpzR2+hIzAjRYJ0TOlrSwog0RhIjp+xXSRuxyAJjMGvMMCJL+jFSCYNPVU4d8AzhsRmZzfTMlsQPI54YTvngSGT2kjz22GP2LuvFWZdOeBh8OELcS4fHJ7unphgIE4o13mYU0k+c5D2bfka+2agLzGAx88H+C2YrkAP7OaqCGRLygc4SD7I/+uijp4mHzcQY8bF8eK+msHeE0XecV5wOwmWzcoSw+RRyMCNR/tnn0DWcMQzcmhDjRV+zkE/upR2tmVXu1BniZNAC2PPATBQODxvG0X/26VQFZcb77KXJlln6IAn2bTBwwP4X6gGOw/T+aCMzjAwGUJfRNXSD/VI1lXshkDf5YiAnmyc+bGAXQggxd1GWzgejw3HTLhsdGVWNRkoEoyGOwheC02JwKuj8s4Y/xgKOCSOBfDD80qPVGOcse2AZzYyCscNIKU5QTAfpTi+bmhngLKVHxwtBWtIzFhEM0TjbkzVmKAvSzMgrxgQj3izTIM4Io+04ixHyjWwx+hgBTo96MsLKyH4hMKBZCsfGZmY5GOklfWzuxchj+Uk6PD4s76opGHuEixEWQQ/YKDwriPqG7iKDdPoZHWe5XYRlTWwY51holiAhgwjlzJKcaDyjV2wkRm4sCWKJC2Fh1GfjoSwofwxMlkCx1CZdbtGQBmQD2XqGo0dYhx12mB3WwN/p8iRsnEQ2PKcdgc8++8xmJyLoE84vdS0N8ke/mLWpCeQZ3cSxTjs0yIl8IlPSRb5II/ob04cMeSad3kLQrsRZDmCDOToUdZDZPvLJCWRsRGcZZ3UDKNwnDcw6psuLDxv2I6Sd2SYOgKB+MKsQly/FdrKqdjEN77EUjZPcmPFghpK4YrnXBOLmvXQbRBtAWqlTONHZfMUZKsoHeU2PIyyEEGLOouycD0Y7OT2IkT5GejH+OR2HT9p4Z1SYDj2etpIPThJiT0Y8KSp2yBgcnCzE+nOMz/bt21snzPr6CM/TqXfv3j25Mv1glNHxshadE33II0tW0sspZhTkQWeOETG9YDggM2B0FYMKcDzY14BhxZp7DFeOzGR2ihN0KBMcOU7nSe91wBDmmFFky+xVGpZcFDI0Bg4cWLHcDUMQIy+uU2dvAIYKMzZpgxndqOqEqUIwMo2xyulKGMYYrITN3pdZATMOyImZHX7DJuoz/+MAY4CRBo5bjUYwcuLDMrcIOoRuolPIA2eA8NjXwIwfz+K0M4qNIR4hTMqDuoDuH3jggaaTnLKE0Ug8jKjHk9QIh/AZEef/CDqNfmCEc526kz59jWVT8VQj8kL+cEQwxJFzhPqJs8Q+pKg7lDdL7yhv9tjUBJwP5It+Ue/JL3HfdtttNgjBCUs4rugwe0JIE/d4hjyy5AnZVgeOBrNULKHjXdKPPlIvAAeCcsRBBMqVmaKqoG7xHumOdQ9or6JzhlOTPjKYekL81A/gfQYHyAvXq4PnkXOsOzjFzDKmHcRiwdFgGSrlGB0Q0sLMJXJiGWV6hpkBDnQPcDTJP/IXQghR5gTDoKwInamdUEXSs59FFlnETvIBTt8Jhobv2bOnfS8EJ0Rxks7888/vg6FpJ7ZwWkwweuzUnNBB+4kTJ9rJN6HztBN1iJ9nOIkldMZJSN4Hw8JOGPr111+TK96fffbZdqJPPLEKODmIsJ555pnkiveDBw+2U3Tq1avngxFvp+wcffTRdtoNp95AMOTtFKt4MhRwKgynLnH6T5p27dpZeiKckoQ8evToUXHCTZaLL77YTuQJhkxyZVqQR79+/SxdfJAXcg+OjZ20EwnGhO/ataudAEV+SHdwXHxwDvxWW22VPOXt5CROoUIenI7Tpk0bky+nd8WyzBKMassLMuKkLPI/ZMiQ5K43WRAf5dm2bVsLlzLgNCEIxqPv2LGj33jjjSuVVSE4fSsYTRZmw4YN7WSh4JjaaTyAPNEz7gXD2K7Bs88+a6cTxZOHAH0hb+lT0rJMmTLF5IRcg4Ngp1IhE07ACsaqnTxE2knPhhtuaOlADpw0Bpx2RTkGQ80HQ9reI/2ENWHCBHsG3nzzTQuHe/EkKvQPXQ/GpT0TDFu/5557Vuj+CiusYGnhFDAIxqKdXkb9IQ3kKzgudjoXdaRFixami5Trjjvu6Fu2bFlRZ5AVp46hI5xGRlp5nzTtu+++9gz6Rj1Bz8gTslt66aXt1CROYosQFvc4aao6KHNkExwMO9mLfJE/Tl5DbyPBgTD58hzpI+/oUHDepjn9LA1pQI7oCXUEvQiOtj/44IMr8k4Zk3f0GHmvueaadoIaOhtPNOOkL8K56qqr7DtwwlTjxo1N55ETJ10FB8H36tXL7t999912j/arVatWFv4+++xTkS90B91C5uR7s802M3mgo6Txvvvus+ci1BVOHkNHOBmNMGn3qNO0WUD7GJwbf/7559v3yHHHHWc6EUEvOCUPWfM+afzmm2/sHu+iL1wnX5Q3+aANBtpAypw0CCGEKG9q8U8w3P/zMIvBb3cwIhc3P6eXFjBKyOwBI4Ysx2C9djD+krszB0ZLGYlmpJcfB2P0dU6FEUpmK1gaFn+nILsUA5kxWs9vQvAMS2Tiso8sjHKyPp1RZZ4jPEZF84HKsqadvSnBQLGlR4ykpyEcZg8YuWbpBjMsLGeaXtAPljUF48hmD0pRNpwQhU4CsxToZdx/w4g9s3+MeLPUjBmDmCZmzPiBvSgfZh1YLse+kKxM0XfKh/X1wSi0k81YdpWFeBhVJ//8Lks6HEbeORWLpTOcNMXMAaDPXGfmiPqST2boCLMyLGdihpGZzHw6EvPLSUjM3JBfZmZmBJZuoSPEx/6xuMQnDTM96DmzLegZS7Kqg/06yB4dpc1AdpyAx6EV6byRJ36fA91CPsx+FgPvURbIAlkjN2boIszykWbKg3vZeKkb6ATlw48VVhcvZcRvIhXKR03hRwvZ48KyV3Q6gh4x+8QsB2VM2lkGJ4QQYu5CzocQcxlp5wMnWpSW6HzgeMh4FkIIISpTdns+hBBCCCGEEOWJnA8h5jJYurTPPvvYcidReliWx49ycqCCEEIIISqjZVdCCCGEEEKIkqCZDyGEEEIIIURJkPMhhBBCCCGEKAlyPoQQQgghhBAlQc6HEEIIIYQQoiTI+RBCCCGEEEKUBDkfQgghhBBCiJIg50MIIYQQQghREuR8CCGEEEIIIUqCnA8hhBBCCCFESZDzIYQQQgghhCgJcj6EEEIIIYQQJUHOhxBCCCGEEKIkyPkQQgghhBBClAQ5H0IIIYQQQoiSIOdDCCGEEEIIURLkfAghhBBCCCFKgpwPIYQQQgghREmQ8yGEEEIIIYQoCXI+hBBCCCGEECVBzocQQgghhBCiJJSf8+G9c3/84dyvv0774Xqp+ecf50aMcO6885ybNCm5OBu4/HLn6tVz7oQTct+R09NP59L17ru57/n4/XfndtnFuWWWca5//+TiDLD77s4tu6xz99yTXBBCCCGEECJH+TkfOBgHHeRcy5bOtWhR+XPSSclDJeSTT5zbd1/nTj3VuX79kouzgYkTnfvmG+c+/TT3/euvc44A6Tr9dOf+/jt3Pcuffzr3zjvOTZ7s3McfJxdngA8/zIX15ZfJBSGEEEIIIXKUn/PBTAPGMsY2hvZ33/37+emn5KESstRSzm21lXPrr+/cBhskF+cAlljCue23z6WrfftQ0lphJ4QQQgghZi/lbZHuvLNzb7757+fSS5Mb0wEzAy+95NzDDzv388/JxRQsW8LZuf9+51580bm//spdX3xx5wYPdm7kSOd23DF3Lc1bbzl3993OPftsbolTIQifZx94IDdzkIX7H32UW+L10EPOTZmS3CjAwgs7d+ONuXQdemhl5+PHH5175BHnXngh58zlg/i++CIXF3n+/PPkRgZkhcyQXaGwgBmrZ55x7r77nPvss+RiBpatsVyL5377LbkohBBCCCHmFsrb+cDAXn75fz916uSuX3utc7VrO7fttv86CSwpatgwN1PxxBO5ayzT4vtll+Webd06N1vAcxjJEYxiljA1aeJcp07ObbihcxttlLvHXpPNNnNuueWcGzIkdw0w2tdaK7ccrHNn5zbdNBcuceGEYKizHGrJJZ276qrcvgue3WEH55o1c27gwJwDwOepp5zbeGPnVlkl5+B06ODcSis5d/LJhfe5EEfHjrl0se+D+HCwCLdpU+e22y6XB5754YfkpYTXX8/N5qy8ci4u8ty4cW552fffJw8Frr/euQYNcjJDJvzPcq8sN9yQyzty2mmnXNr33NO5b7/N3ef/ffbJpQs58Fzz5v86PI89lounXbv8jqEQQgghhCgLytv5wLHAGI2faIhjIDO6/9VXOeMduIdhjKEbl2fxHN+PP965557LGbgLLJC7dtppzk2dmnv/rLOcu/NO5xZZxLkTT3Ru//1zsxCAQc/+Bgx4wuP5ceOc69o1N5PBsqeLLso5D8RPXA8+mHuXeFgu1qNHzlkh/gUXzF075pjcDAFOA04NYWGYn3tuzlFiZoA9Jh98kAsrC+/xPumKMymEwX4Z0kFeVlghN4vDDEcajP3Ro53bfHPnzjnHuS5dcvkkHczgAHs7evXKyXmxxZyrXz/n1KX3jSALZlfIC2nYa6/chniev/32nPNEuMycEDazSGee6dzRR+ccSxw7GD8+54i8917Vs0dCCCGEEGKOprydD5Yzrbbav5/pXXbFSDwGNw5Fnz65axjRGO8sb8I4nm8+5665JudIDBiQM6rzgdHPqVEY/Yz2s4wIhwXnYt11c8+wtCoNxjh5If6rr3auVq2cA0IaWC6Fkf/GG84NG5bbQM4yL8LGOJ8wIQmkCB5/POeEMUMU8zt0aM4RSdOtm3OvvJJzknDCeKZVq5yjwF4buPnmXBqZYXryyZwTNHy4c3Xr5u4Dm9mRJ+lkBoVlYMjviity+WLpF/LFsUBuzPjgnPTt69yYMc41apQLh+V1F1zg3MUX5/ayCCGEEEKIsqS8nQ9G1rOf6aFNG+fatnVu3nmdW2ed3DUMZ2Y+OKaWU6SYkWBZVIQlUPlgNob9J0C4LAcDjGZmEiAa8JFVV3Vuiy1y8bP0i1F/IH4cERwNRvzvuMO5s8/OzUYwe0N+azITEB0VHAmWSRHf1lvnnK80HJU7//y5vR44D6ec8u9yKuJDNi+/nPu++urOrblmbsaI5VksTYuQRmZbAGeMZWYsdeMIYPLFrAkzVjhl5HnUqJwTybHByDzuU0GGzJLsvXcuXUIIIYQQoiwpb+eD/QPsT4gflvfMKOmN2Rj3GM1x3wgGc3Uwgh+XC7GfI02cYYjh5QOHIMZD/ITHbAhOCfskevfOfcc4ryk4M8BsRTqfWZitYbkYe1WY+WCfSlxmBqQp7r1gqRRpzgdOSnSOWNbGjAYfZlKIn6VazPqwl+PWW3P7U9jUf9xxuT0n8dhgIYQQQggxV1DezgezEfywXvxE4z4awxjbcR8I+ytYNlRTll46N9qOIZ3eG1HIgSBujHtgr0J8DkeCfRLAzEKx/PJLbmM3/zNzwN4JljutsUbyQA2I6WKJVHRECDc6EhH2krB/5YADckuikCHOQIQ8RseKzfjR2cqGRfksumjubxxDHBHCih9mlfhxQ5a07bprbpYkbmJHdtddl3s3OoE6AUsIIYQQoqwpb+ejENEwZnnTXXflDGiMXxyImsIyIJwFjOVLLsltYmcvyG67JQ9kwJCOS7fYnP3aazmjG8M6bjRn83mx4LywfAmDn6VSzBRgtJOOmhIdFvaPsP8Ch4z9KNkZBmZVmH1hmRl7OHCacAYi5JETqeD993N7WJAxMuE3WCLMikRZsF+FcJAFjg9OFBvzcSyQC3tMcB6Z3Vl77dw7OFnAaV/MknA6V9ZREkIIIYQQZcPc6Xxg3GP4MtPByVQcE4vhy/81hdkCwgA2SHP8LB9+byMfLCc64ojcUbGM1LPRmvSw3wNjHwOaDd3Fwl4I9lXg/PAeDgg/Gsj3mkJaSDsGP87YiivmTp1iz0YafiyRpVVsbic+9ohkf1eE/Rc4Mzh0++2XOyaXjfmcoBXBSeF0LvaUMEOCHPiwpIvne/bMOVf8Rgj7Y4iH+//7X26PTJTT22/nHBZmnuIyLiGEEEIIUXbMe2Yg+bt8YJSdGQB+E6Nly+RiCpZgMeLO8qKFFsqdosQSHq7znb0M7C9gEzXG7Dbb5AxiwBhmfwO/0cHRtjgx7LdgVJ6lSLzPsiCM77gU6ZNPcjME7EHhhCYcFsJkdoIlSSxHYvnWHnvkfvOCv4GRfYxqHBM+OC4Y/cSPk8BSJNKJYc5xvnEGhLg5AQqIkw3ZpI24CAeHATDWWfbEb3ngYMR0MSNEXITNZnJmG3Au+J0OHIr11st9Jz7Sg5xxqMgHDgzyRB5sFGcTO5vNcTpQJcLgOd7B2eN3VNjTQfrJK2lkGRvy5UhdNtszq0GeiROnCseEjfWklXQSBu+zKZ8N8jg1QgghhBCi7KjlA8nfcxdki5kHnAsMZQzkGYHwMJ4xjjGeCbO6DegY7hjiODTEX8w7hSAMwsL5wKGY3nDIB7MV5AUjvlCa0pvKcfRwAvKBPHAoyB+zNIXSxSwUz/E/eeDZtBPBdfJHvNxjv4gQQgghhJirmHudDyGEEEIIIcQcRYHhbCGEEEIIIYSYucj5EEIIIYQQQpQEOR9CCCGEEEKIkiDnQwghhBBCCFES5HwIIYQQQgghSoKcDyGEEEIIIURJkPMhhBBCCCGEKAlyPoQQQgghhBAlQc6HEEIIIYQQoiTI+RBCCCGEEEKUBDkfQgghhBBCiJIg50MIIYQQQghREuR8CCGEEEIIIUqCnA8hhBBCCCFESZDzIYQQQgghhCgJcj6EEEIIIYQQJUHOhxBCCCGEEKIkyPkQQgghhBBClAQ5H0IIIYQQQoiSIOdDCCGEEEIIURLkfAghhBBCCCFKgpwPIYQQQgghREmQ8yFEGfL333+7zz77zP3yyy/JFSFEOfLXX3+5Tz/91P3666/JFSGEmLuR8zGbGD58uNt6662TbyLNa6+95tq2beumTJmSXCk/fvvtN7f33nu7c845J7kyc3nooYdcq1at3MiRI5MrpWNW5+2/wOeff+7at2/vJk+enFwR08v777/vNtxwQzdmzJjkSnlx7733uvXWW8+NHj06uSKEEHM3Zet8eO/dG2+84bp16+a6dOnifvjhh+ROzWDUaciQIW6LLbZwSy65pJtvvvlc3bp1zTAYOnSo3Z8VfPLJJzOls2QEnI6rZcuW7vvvv0+uVg/GzworrOA6dOiQXKmaqVOnukcffdR9/PHHyZVZxzfffONeeukl9+effyZXyo9//vnHvfnmm278+PHJlZkHsx0XXXSR69ixo2vXrl1ytXTMirz9/PPPpl+U/X+BH3/80b388stlo+Nff/21+9///ldpdJ62cf/993f169d3kyZNSq6WHmRJe/Hdd98lV8oHZi/PPvtsd9BBB7lNN900uVqY6W3vhRBiTqIsnQ867MGDB7s2bdq422+/3b344ovujz/+SO4WD0bUNddc4/bbbz9zXgYOHOjefvtt169fPzPO9913X3fbbbeZozOnMu+887rtttvO7bDDDm7hhRdOrlbPEkss4Tp16uS22mqr5ErVsCxgp512MnmL2cuAAQPcAgss4K699lq3yCKLJFfLm3fffdftvPPO7umnn06uiDkJHA/KZ+LEicmV0HnMM485vzjBderUSa6KYon9T4MGDdwpp5zi5p9//uROYaa3vRdCiDmJsnM+aLCvuOIKd9JJJ7mLL77YZiymF0bLaPQxwh9//HHrRFdddVW32267uaeeesqts8467thjj3UTJkxI3sgPo7YvvPCCe+655wqORuEwvfLKKxZndY4Sy40IK73siKUuzz//fN7RZpa/nHvuuW7BBRdMrvwLo+RM57/33nsmu8hiiy1mHd8xxxyTXMlBOkkjcZGvmkBco0aNqjR6zUjd2LFjTZ44MPngmXfeecfirGrdM3JjSRZLjXAOq3IKv/jiC8s3cqsOlr4888wzFmY+io2X8iKc6maHvvzySzOyKZOqIC70IL2vgzJZc8013cknn1z0GnHky0zFs88+O83oMHlhFo50k8dCullM3pD1q6++anlD/vkgHOT41ltvWbpqAmlHv9KznKSXekWYVS1h+v33302/qtMbZMpzOEPp+jI9fPvtt1Z+6GGxdYk4ibu6ulAsyIpyp2yryg/PIcOazDzhfDBAc8MNN7jFF188ufovlC9lQ9yFZnjQbdpOypUZjGKg/D788EPLV1Uz3jzHjAx6m23/ZgTCoU8gXOpOVfpUFejEZptt5k444YQq60JW7wu197GPoRzTfYcQQsxxhIazrAgNv3/iiSf8uHHj7O9dd93Vr7jiiv7rr79OniieU0891YcG3IdOLLlSmYEDB/p5553X9+/fP7lSmWBs+WC8+9q1a/t69er5OnXq+GDU+xtvvNGHziR5yvtgaPm1117bzz///H6RRRbxm2++ecV7kdNOO81vsskm/rrrrvPLLbecPcf/Dz30kA/OgF9vvfX8EkssYWEcfvjhPnRcyZved+nSxe+www5+6tSp9v2WW27xG264oQ9GoF9ttdUsTbVq1fKHHnqopRlCR+Y32mgjCysyZswY36RJE8tLgwYN/PLLL+9ff/11f/3111vcqMtCCy1k6Q6Omf/pp5/8Z5995ps1a+aDAeKbNm3qF110Ud+hQwcfjEKT27LLLuvr1q3rl1lmGb/AAgtYfMGoSmL0/quvvvLB2TM5k07i7dWrlz0bDFh7Blk++OCDlhfiD4aOyeHggw/2weC0ZyA4OL558+Z+8ODBfqmlljIZBgc1ufsvpK1r165+v/328+eff75feumlLW7CDh273Ydi4w2dvr/66qtNRoTD/8FpNXl069YteSon86OOOsruN2zY0PQlOM/+/fffT57w/rbbbvOrrLKK79evn5UDeSDsYnUtSzD8/Prrr296zvP8f+GFF1bcQ+e4TjmRR8o1OCpWt6CYvCEvwqSMl1xyyYp0BwepoqwJ76qrrjL9WGGFFeyZYHiZDp111lkmW/SL98jjNttsY/ocjHfTCXSQNPI+ciDPffr0MTlQ1nwoG8ovyiMYqL5Ro0b+0ksv9a1atbL0E26sA1nuvPNOSz9pID2HHXaYlVf79u3tPvncc889/fbbb2/fI8GptjK766677DttEfqFrJAJYVGXH3jggQq5BmfbrlN/ItSFPfbYo6IuIKebb77Zr7766nYPPvjgA4tr6NCh9h0oI3QSeQZj3q4FZ8tffvnlptu0j/y/6qqr+uDU2H2gviNb2os11ljD0nPEEUckd/+lU6dOJhPKh3RRPpdddpnlhTKgbfv+++/tWeog3++7776Ktof8bL311j4Y6hX5R5bXXnut6QHPED4f9CjdPmQJhriVC3pMemlbTjrpJB8cIf/II48kT+XK4JBDDrH7K620kj274447VrQp+TjggAOsbU7HTx1BRvfcc499pw7TblC2yBX9u+SSS+wedOzY0e++++4m/wiyoC0Njrl9R68PPPBAv/DCC1v+kSefIUOG2H2oSu+z7T0yveOOO+x5wkSe1IXg1FTqJ1588UXfo0cPqxdCCDE7KTvnI8uMOB804HTKGA/5eOWVV6wxpxHPBx1u9+7drUPHOPjoo4/MUMEQwkiAb7/91q+55ppmfODkTJo0yYw2Ogc6nMiRRx5pBnfjxo3NaaCDwGCic6tfv7519qSTDpWON21EEOcGG2xQYXhcccUVFhaGDw4UcR599NEW5/Dhw+0Z0oURQ0cJdGpbbrmlhcPzGNek4+OPP7YO//7777d46byQy3vvvWfvkGcMNuLCmSONvE+HiCFz7733Wof/5Zdf+uOPP94M3CeffNLixGiiE6ZjxWHgXdJO55l2PjDU6KQxlMePH2/PYchSNhgChAMYdxgwdPR0xhg733zzjd1Lg2GAEUp+6LBjPjGyiJuOH4qN9+WXX7ayxLghHMKjzHD4ooGOrDAeMIZwaKZMmWKOHXqx0047VRjMOJ8YUsh00KBBFidlVYyuZcHAw/EgDt4jLJwbjBcYMGCAGW6ERf0ZPXq0lWPnzp0rHLBi8vbjjz+a7B5++GErZ9KHgUhZR8cenSBsjFXKBKMbYx0DirgxvCgPDDn0izyhQ4899pjpAvW0b9++lgfi4B4GN7rEd66jyxiFDEwAZYbRSfr33XdfyyfPRQM4DbpCvnC+KHfSgNFP3GuttZY9g9OCzJFpGtKK3iBPYLAB2WC4IouJEydaXSZ80gpZ5yM6ENm6QNqRS7oukEf0JMK7lBmON84c4EgRFu0GdZn84ZzggMQ68cwzz1g5Eh4OP3FGJycN+TvvvPNM74cNG2ayIUx0ljpNHUJHgTpIetFL0k+YOErUy7322qtCr0gf+oFOo1e0d+SfNoo0x/qQhcGC+eabz19wwQUmO/SZOpV1Pmh7kN3jjz9udY32ioEV6n0h5wYdxmGKMgTqBPmhHUVvyBN5w3FDjqQboz7CoE+7du0qObikkTAICyhLHJ2xY8eavEkbfQRlEx2KqvQ+296PHDnSdAkHD52nrGmLkSVtzl9//WXP8TcOJM6mEELMTv7TzkebNm3M2I8dZxY6BYwKOsViYaaCToNOD+gQGfm78sor7TsweobjQ+cYwfnAWKAjiWCI8S7/R4MJI5LOF0Mvks/5oLPDoIudOB0lxg+dHmSdDzpkjBeMmPSoXYRODWOBTj9NdD4YwY/xFwJ50kmSPsCpIQ2MFsY46SjPPPPMCueD9B900EHWCb/99tv2DPA8xgKjmmnDhw4XwyMaOfmIzgcjy+kwcQYob2RUbLyUSxxhxTCMYAAj72igM7sRjbw0GFroAbKB6HycccYZeY3kNFldy4KTg8GIHqTDKmTYkbftttvODHDKsti85QM9Jh8YbcCoL/nHKcyXL2b3SCtGaZpohOHsFUp3hDgwcjGQITofG2+8caUR4Cykh9kXyh5nK/L5559bnaip85EP6j91GYcEss5HMXUBinE+yCtliI7HsGDUqFHWxkQZ43xgjOL8VjXbADjCyPaNN95IruT0KJ/zQXrPPffcCqMXuW211VY2C4UTjbOKTJnNpS2M8HeLFi1sRjZfeign2mxmaXAoIsg97XzQ1pGmE088sSINwOwydQ29yEd1zgf5ZSCKdgNnIB/FOB/5QD/QhzgrUZXep9t7nBUGjZiJTPdjvENdZuAh6hhtEDNp6VlbIYSYHfynj9oNnZmrVatW8m1agnzs/2A02P9ZuB86flvDP2LECBcMAvfkk09auKHzsWdYvx0MYte6dWv7DsF4sLW+WULn7oIBknxzdhoVcXO6SUznsssua5uNQ+di3wtBWJyeEjpl+77UUkvZaV6F9qQEw882Mt59993u0EMPtTyFjju5Wz3bb7/9NJufkUMwKGxtdv/+/e14YdIdOk27HxxGW2MejI2KzZbkl4MEIjyLTINR4FZfffXkqrPnQwdsa5uDo5Fczb2/xx57FLV5c/nll3crr7xy8s25Zs2a2fdgIBYdb+j8bU0/77JfKEI4yyyzTPLN2Zpz1nh/9dVXLhgaFR+OCSWuYFwmTzpbyx0MoUq6WYyuZWEfUzA2bV9UOqyoE4QZjDxLGwc4sIGd8ImHe8XmDUgHa9PZ28OBDcHxsesxbcixSZMmdjoSuhAMvIr6VQxssI3pjqCflEMw1CxO5JLWr0gwwk0OhSC/rKmnvgWjPbnq7BSndH0sFvKFbkyaNMndddddtreKfVTIiLjyUUxdKBb2tdDuUObIJeoa+gDpTePEsfvuu8/UzcuUExvRCRvIz9prr236gVyCMWw6t/nmm1tbGKH9QE+CYZ9Xp2m7PvroIztWNzjEyVVXqcyAUxCRJXqA7NN1LThjVe4TqQryte2229peHtL+9NNPWx2piR5HkAN1jWN2SePrr79u+kH60uTT+zTIhP1TnH6VlgnvcBQ3eUW3oHHjxna4ytJLL23fhRBidvGfdj5orDGCChlvNNwYOMstt1xypTJ0FBjqGKdsXH/ggQfs+Fw6kQgdIB0BBmVNyecYcS3f9WIgHVV1lOSBTfwYKRicdFQYd9MLnSrh7LXXXmaEsREy7dAgd74vvvjiBfNEJ00Z4Tyl4XnKrzonrCZgJC200EIWZ7Hxkn6cCvJQlZGAHiB7DIUnnnii4oOBylHRaScoH8XoWhriwkhC7wrpHpvD+T0VjJTozOAcRYrNGwb1mWeeaQ4KzsV9991nJ9ClwbjFweEwh+OPP96ttdZadnBEWh9qSu/evS3OI444wuJkc/f06APvkE+M36ryWSyTJ092u+yyi+XxvPPOcw8//LAbN25clXWvmLpQLISF/mKop3XtlVdesd8WwngvJeQH5w9dRQYY7OhMncwJWTxH/pFDPllRB/hQ/6qSERvXCQMnJJ1/6mDnzp0LtufFwKARDgNh4IhQfxhcqQmUD21r06ZNTYfRD9qF6YFyJry0ExdBlshxRuqYEELMCv7TzgeGMR3VxwVO8MGAopNkVCkfGDv8RsiJJ55oI1eM9l544YWVRt0xaKJxk2ZmGs0zCzp1DENORjrmmGPcPffc4y6//PLkbs1glJGOdeONN7bji/kNh5tuuslO2YpgFPO7KoxSpo2NtEGNLOlEGb1Ld6I8z2wBYUyvwZg1cCgjRhKZISo2XtJPnjD0s8+lw+cZDKbDDz/cDOX0Bx1q2LBh8mR+itG1NMRFPjD0sroHGC2cmoOhjBNC+Mx6pUfai80bRu35559vM07jx483Y+qyyy5L7v4Lo9ocE8zzzZs3txPrnn/++eRuzcBYu+qqq2zUntPUiPP666+frhF8RujJJ85mdmYinU9kSpln6y7f088hR/Sd0XbyiqN49NFHV6mnxdQFiGFkyyP9HG0O4eFoZHWNtOWbdZ3ZZPNAPWLGFllTRuhtHJGP8Bz5x1FBFll4nw8zBun8ZmVEO0Y8Rx555DT5v+2222yGKx+xbKuSP+FyPDkDKciS9B511FHJ3eLCGDRokLWt6C+zrOgHpypOD8iDARPqaBbShhyrmvUTQojZwVzrfNABYJTkM7wiLMdgJI3lJlmD4pNPPnGXXHKJTVUX+vEnlg5gkPBDfXGJAZ1AurNhZBZDLz0STKd78803J9/mPGrXrm2GIctkkAPQqfJhmU4xsHQC2WOQRocja9yxhAxDAdkgI+B++rdEcAAwiCnL9Ogg5YYBsNJKK033khEcpPQxyiyNwRHFaCs2Xj4si0MX+EQwKj788MPkm7NRTp7FyJ8eitG1LCy3QuZxCVQEZxDjlTIiXdHxIaz0kqVi8xZ1hJHg6AwVqnfkAaf/1FNPtXww8wMxT1XV1zSUGzrTtWtXM76AZT1po7xYSDNL6ZAHjl2EPDO7FMGQYyYM45e4AH3F0UrXC/QK43+TTTZJruRmUdMGaZZ0XYh1JFsXgBFuDE7SFsseZxjdjTAqT7vFUjKcz5kBMqKNLCY8nmOmM5YFdYZ8scyRsorLHXEY08tAGQhi4GONNdaoKNM0zJRQ7wgryh+y+s1R1JQTy/Bqog/16tWzssVoB+R7xx13VLRNWVimymBC1GGg7YxtHxAGMyVpKCvywtLK6EwyCDA9EB99DGHGdAP5ju0Uywch9onpNlgIIWYHZed80IFzvjojwHzorOjAzjrrLFuOgrEFNLwYFFwrBOt2GZEcNmyYdQQ33nijdTYsPcIApeO49dZbzSjIB8tV6JSvvvpqi4//syNYLHFYd9117RepMVIIb9ddd7V8xI5nTuCDDz6w3zlhPT6dOaNyLNsgj8AoOgbSnXfeaXlgBJvp/kLguDRo0MDCYRSYUcKDDz64kgGGU8JeEZYtsGyHZTkHHHCAGU3RiMVY5Rx8nIHu3bvbbwoweskvAjOqzJKb7F6TYsFAwICgbHAGjzvuODOMWCZWbLw8d9hhh1l6MUTIAzMKLKWKeQCMLWaTMCaJBxkz4ol8evbsWa1BUIyuZWnfvr3VAQx9dJq08bsMjNRiwLZo0cIcK/SfZSmEh2MRKTZvzGjgqFB/CIc89urVy+KI3HLLLbbUhLjuv/9+17dvXzPQMRQBA4l6xkAAI8PEVZVMSDsGHAMELBdDJ1nyNT2QT/SOtfCUNbrNjB+DE2kdp77uueee5vSRF/SB0XX0NTrYwB4EDFbqErrNrBBLzKoiXReYMYx1Ie7TiOB8IG/kyLJG9AAdTs8UMNLNr2bjoFHejLJj6JMvyjG9v6hY2PtCHJQbaWMvUFUwS4dskFGPHj1s2Vm3bt1MT8gD6WPvB3WN8mZWlCVR1ElmX9P6FUH+PIPjS52JcaBb6FIExwOnlDbntNNOq6hrlClpSTvYaagvOFeEPXToUCtj3ouyRR+RH/UJxwY5kO7YRgIOJ84IZUi++GFG8p4GvaKfYuaSvgwdZtljdMBrAvKk7STdO+64o9XBgQMH2rI/ZiH79OljDgogB3QT3RFCiNlKMAbLiuAQ2HGnnEKU/XDqVTwq8t1337VTUdKnwuTjr7/+8qETt9NRggFgp8FwIgqns3BEZlWEzsiHTsaOw+W90AnZMZv8/1xyXCuEzshOnyH8YMzab11w8kxwSpInvJ22w/f0SSSc3hKMVjsJKMLJJeQrGHnJFW9HWHLqVzCU7HvoFH3Lli2nOdWE0084chc4cYZTWTg6F0LnZacXkXfyQp44yYY8RjgalaNnY15DB2qn8HByDafBZAmdnZ2KxPOcusLpTKFTtN+miARjw37nA7kgH06LeeGFF+y3Ar5OTjCjzDnRiaMyYxkRLvlMEww3O66SU6uq4vfktCtO2+F3BYKxYmHy2xvEQ3xQbLx///23/S5HDAc9RFbBkLXjLSPBILUjMDkdjOcIk3eCg1xxog2nQXHqUfp0KShW17JQDzhBiLj4kBfkBF9++aWdnMP1YBDaKV/8JgayiacNFZu34HBUlDX/33fffb5169YVRzsHQ9jKNMqR08KCQWz3IpyCFvUPXUWf0YVYLln4HZngsNjzlPvYsWPt1LVgGNp9jnBt1qyZ/Z5EMXAsNO0I4aGv6DRHDMfTriKcohT1lWOYP/30UzuFiTxDMG7tCOmYF347IuoRJ4UBaaMeUwYR6hPHIMew27Zt64NTVem0KwgOooVF2NTHK6+80o7Cpc1KlxtHqnLsNM/xQXcIn7oPwYnOWw75oCxoY0gXH8qK+kH9CQ5uxalVwVi3U/EoG8okxstJU7S1Ef5Gr+JvWBAmJzaljxDPB+0UxzgjW97hOGR+W4T2jtO7IjzHyVRRb3mWuDhtjvqfD2RHHaAu8DynSNH2okOULTLlZK10mokX3Y4gB04ypAz50N7RVnPSV7pdIm3cJxxOY+O3dZAjx+RCVXqfbe8B3aXekSY+lHv8bRKgrNAlyoa+RwghZie1+CfxQ/7TsGyCzbZMV4fG207zKWYkCvExVc+IHaPmoTNJ7lSG8HmO0eDQSUzXKNesJnSuJgPyEjpGm+lIz86QV+4zasc9RjCrgudZHsFIMTMnjGwzypwFmTMKyvPMluQb9QRG9xi15TnKh3LKF151MCrNKCFp48Qa8sOyGMqFMLMUGy+b88kryzeCwZVcnRaeieuxg7Frsi4mH8RfjK5lIb9p+aZHiVkSwzIRrnGvUDqqyxthkydmIQvpBrMIyJHyRo48k44P/eOkJtJE/qqb0SJOlquwXId0ZcObHkg/YaKrwXB1O+20k420s1wlQjrJB3LNyjNC2pA5eWGPQb5n8sHoOjIIxqILjp6dHsaMJMsB0xul0QHSQFmQ90LwHDoDPEs9nN4Z17Qekaf0zFaE0XVmdjmBjBlf8oKeZtuSCGVHm0Kdp/4VIydkQ96RbSH5A+mMektdQ07Utaog7KiDyD9fHtNpRk+zz8T2DOKJhVmirkcdyrfMrKbQxyAX6gC6kq4/tG/BmbIZLGaj0jNlQghRauR8iP8cWeeDpQtC5IPlmFnno5RgxOdzPuZU0s4HJ0GJOYNHHnnEHXjggbb8jlPYhBBidlJ2ez6EEEIIUTwc0c1esbjHSgghZiea+RD/OVhawalGLHFZf/31p3sZipj7QU9YzsLJZ7MDloFx4hY/2lfs0q3ZCUucOJCBgzaqW+IkhBDiv4mcDyGEEEIIIURJ0JCvEEIIIYQQoiTI+RBCCCGEEEKUBDkfQgghhBBCiJIg50MIIYQQQghREuR8CCGEEEIIIUqCnA8hhBBCCCFESZDzIYQQQgghhCgJcj6EEEIIIYQQJUHOhxBCCCGEEKIkyPkQQgghhBBClAQ5H0IIIYQQQoiSIOdDCCGEEEIIURLkfAghhBBCCCFKgpwPIYQQQgghREmQ8yGEEEIIIYQoCXI+hBBCCCGEECVBzocQQgghhBCiJMj5EEIIIYQQQpQEOR9CCCGEEEKIkiDnYzYxdepU98033yTfRJo//vjDTZ482f3zzz/JlfLDe+++/fZb9+OPPyZXZi6EfeWVV7px48YlV0rHrM6bmP38+uuv1j6Vcx0UQggxZ1KWzsdff/3l7r//fnfIIYe4XXfd1Z100knu/fffT+7WnN9++83dfvvt7qCDDnKdO3d2Bx54oBsyZIhdn1XceOONbs0110y+zRinnXaa69WrV43Si+F4+OGHu0suuSS5MucwatQo16RJE3NAyhWcy+22284de+yxyZWZS58+fdyll17qFlxwweRK6ZjVeZvbwbA/8sgjXd++fd3ff/+dXJ1zwLnEsV1nnXXcd999l1wVQgghZg5l53wwKr7ffvu57t27u7feest9+umn7uqrr3bt2rVzr776qnWcNWHixIluiy22MIfjtddec1OmTHEvv/yyO+CAA9yWW27pPv744+TJmcuff/45U5wbHLGnnnrKPhiFxfLTTz+5J554wj3//PPJlar56quv3I477ujuueee5Mqsgzwhm5qW5ZzG77//bvo6s3nllVfcfffd5wYMGGBO2uxgZuftww8/dJ06dXJjxoxJrpQ/yAgH/6KLLkqu5MD5oL6OHj16jnQ+gLIl/XMbyH6fffZxN9xwg2Z1hBBiNlGWMx+tWrUyA+zJJ590Tz/9tOvfv7/7+uuv3WWXXVajzpylIzvttJN7++23bSbl2WefdY899piNvGPYvfTSS27PPfd0v/zyS/LGnMd8883nHnroIffII4+4OnXqJFerp379+u6FF15wt956a3KlapgpQTbjx49ProjZxaKLLuqGDRtmTvPcAk4/+vXJJ58kV8ofBhhoo1588cXkSo4ll1zSPffcc2YAzz///MlVUQpwqkaOHOlef/315IoQQohSU8uX+/ByAMejRYsWbq211nIPPPBA0UtRbr75ZltqddVVV7nDDjssuZqDUbETTzzRXXHFFWbcb7PNNsmdf+EZHJSHH37Yvfvuu+b4rL766m7//fd3K6+8cvJUbgR08ODBZojwDiO8kyZNcueee677/vvv7Rk6RK5tvPHG7pZbbrG1/C1btnRHHHGEW3jhhW0Z2KOPPmqGCyN3G264oatVq5a9y2wEceNI4YwwI8Qs0C677GJ5xNBZYokl7L1NNtnE3iFNd9xxh1tuueXc1ltvbdeYDRk0aJA9z+zDuuuua/LBIORZlvnw7Gabbebq1q1r4dGZk7fNN9/cHCDebd++vb1HfkgbHT3Oy0orreR22203t9FGG7l55sn5vcjj8ccfN2OaZ1q3bm3PdevWzWadSB8gJ5bG4RgyetmwYUNbctemTRu7D6QTGVFW/fr1s6V4jDwzK5YGWaEnCy20kGvcuLE5YO+8846VGbNqLIeLsi0mXqrQBx98YOWGI7viiiu6PfbYw5YFopfIFKK+kFdG+pdeemlbvtShQwe3wAIL2DOUO7qw7bbbmnE6YcIEd/TRR5teFKNrWZgNu+uuu2yWi/JdddVVXdeuXS2PONUPPvigxffFF1+4RRZZxBwa0o5soNi84ZTee++9buzYsSanVVZZxeJZe+21K2RJXm666SZ7Fn1El7p06WJO8PDhw921115rYVOPV1hhBbv35Zdfmg5tv/32bujQoe6NN96wAYGdd965YtAAfWemjLJEJ3kffvjhB3fbbbdZ+SM79JNyo05RT7Iwu0cczHzG8HbffXcb7IgwYEG5EB4yatu2rZVBLL8IbRIyY1njsssua+kizn333dctvvjiFs/yyy9vdYW6gAw+++wzK2fqLHWGwQTe41qE+nb33XdbncFhYxABHULnYxqQPzpLe8Pza6yxhs3sItN80BbceeedJh/Km7DQMZaGUi+WWmope449ILRDzNjwHGVLfYl1NB88R97Qeeon7RftFDpPG0N46AKzqrFNiPUT3UUfgOVftDPEjVNH3HvvvbfpI/z88892H51CB9FFyhDZoC84eVxnxvDyyy+3ukM7jPwIB9AX0kldj+0Vad10000r0sZ12gvaOa6xNI22jvYQqNfIn/DjO0IIITKEzqHsCQ2+D52a79y5sw+dbXK1erp37+6DIeCDMZRcqcxTTz3lQ4fug5OQXKlMMER8MFB8MLR86MB8x44dfXB8fDAWfOiA7JnQkfozzjjDB8PDN2vWzO6FztaHzsnXrl3bnoEjjzzSh87OB4POBwPRBwPd4g5GqD/ggAN8MGD8lltu6YNBYnmdOHFi8qb3wYDxG2ywgQ/GpH0PDpMPnbIPHadv0KCB3ScuwggGgD1D2kl3MK7sezCMLZ3BoPLB8PfHHHOMb9Kkif/f//7n+/fv74OhjJPqF1tsMb/MMstYfMGY9R999JGlJxjkPhgpPjg3JgvKIRiy9izpCEaXr1evng+dvQ9OSUWcwTC2fAYDxgenxsJCplwLBrE9FwwLH4wKk21wiCzc0NlbWoORYeFAMFgsDcRH/oOh6a+55hq7lyYYWz4YWD4YMJYvyiU4T37RRRe1vydPnmzPFRtvcFB8cBR9MN4tHMJATugWsgSeffHFFy19PIusKU/yGYy8irCuu+46Cwf5BqfC9CUYo0XpWhbC7NWrlw9GkG/evLmljTLgfwiGsekiYQQD2uTBs3369DG9hWLyxjOkC11DD7iOnJAtdRPQB/JE+R933HE+GJV+tdVWM1mfc845Vu7oF3qKzgTj1Afj0z/22GMmo6222sr0Nxj7JjvSR5kEg9oHh9Y+pCsY2lZuQL0mnciZ/4MTYrKj/LNQd9BdyjY4wJZX0kK6XnnlFZMlz1CXyFePHj18MOhNNsHRSEL5l+AkWX2ed955rZzIE2klTcGANTkip2BI2/MnnXSSldH6669vz1EXiJ/yCc6QxU+6gzPtgyFt7weHzGRO24LeRB264IIL7BlkfOyxx1p7Epwdu5clOAD+9NNPt3TyHLqArAgXXQkOhz2HTMk78gjOmz/00EOtjJFplHc+gnNoaaHsTznlFHt+4YUX9sGAt/QGB8DqxKeffpq84X1wOC3+4Hzad/SAOk35oqfIHnkiq+Aw2DOxHQqOhqWLsqT+oM+0AcQ1cOBAyxPXSANhoBtAHOguukaZ0j7wLG1CcPjtfcoqOBomn4MPPtjk0LRpUx+cKwsDSBPpiO2sEEKIaZkrnI9LL73UOuABAwZUdMDFgIGBkRqNzSzjxo2zzodOJh8YVGPHjq0w+unIL7vsMjNgMDThzTfftDAwNOikSR9ODR1u1vnAADjttNPMqMe4Ouyww6yjpCP8+OOP7d3BgwfbcxhlkXzOR61atfwuu+xiBjzvPf3009Z5Y7hB1vnAgF1rrbX8fvvtZ3HzDumgU+ZvZEG+MEx/++23CqMpdvrI8fXXX7dnkQO89dZbFg9w/dFHH60wPID04iBgMGJ88AzGKgZm2vnAOCfu66+/3uLluQ8++MDeo7OPxg/OB++tt956/vPPP7fnohGdJjofPHvRRRdVyBsjH0MJ+UGx8WL4YWAOGjTIwiG8Cy+80MJPG+g4ljgz3333nV1DthhLlMOUKVPsGmFhhGM8YYTFPBSja1kwdNEznNeoexjKY8aMsfvoFM9EGZFG9AgDlLRBMXlDNi+99JK9HxkyZIjVSZxLeO2110zfH3nkEftOWjBsCZPP888/b7px++23V9Kv6Hygm7EOxPRStzDkgWvEiTxwmCE6HzgLzz77bEVchJGGaz179jRDf8SIERY319577z0rm2jkTpgwwZ7BuI9E3ckHuo9Bj+FMntA74i7kfFDu1D/e4zmcHsqva9euVv4Y8siid+/eFQ4nOoJBj1NHXQQcNa7FZyjLqDdZvvrqK3OScGRIF3mhLHF0084HdYO8U36kjc/IkSOtTKkf+SDNDKKgy1G/uUab07BhQ0s77Rl6cscdd9h9iGVOnMTTr18/G3R5/PHHK8qPvylb9BJiO0TdxPHjOfKGg4sskEG8Rtw4T8gn1mscFBxs+pBYTujbOuusY04M7yEfwqc+xTYOuaadWRxSHJooNyGEENNS9vPCLE9g+VLoYGyJRFziUQyh47AlWqHzS65Uhqn6YPwX3HjJfZZ4EAZLIFi6whKY0HHZd2BvSuhwbeqftfqkj2VLxx9/vN1PU7duXRc6RRecBIs3GIKWNk7zYgkA77IUimuh00zeyk8wCmzJGEsieI/lISzzCAZV8kRlCDMYG7bkgDQH3bB0BGPO3ievEByfvDLjlDBkwbM8A82bN7c8BQPNBWfA/g5GhckJWObAUpzgPFWkE/lxclcE2bH/hiUwwVizeHmO5U8sD+HAgGBEJE/n6NGjR0V4yLEQLD1iCU6UN0tBWCLDUp5i4w1GiC3VoHxYxkE4hEe4LHGKsHyFJVXBMDF5sCSN07yCA2zLbZBDBFmfcsoplpaYh2J0LQtLqlh6wqlUUfco42BM233S3LRpU8tDMK5sSVEw4GxpSTDUis4bsgkOny2foUzJD/pH2uJpSXyn7FlexSERpCUY1hZmzB8U0q+DDz64og7wPFB+pCc4PSYPluBwj6VaaVgmh/7HuAgjDWlmaRrLqzp27Ghx8xx5pKxZgkSY1AXkyN4wyh8ZRd3JB3mK6SVP5D8bd5rgJNkpZtQTnmPpDmlgWRn6yFIrwmE5G0sxAR2hLUGXWJIElGFwvGzzPu+R7mBY270s6CVlT9sZjHlLK3LYa6+9kidye1dYQoa+kR7Kjw/pJa0c1JEPdDo4iLb8k7YWnUeOwYC39PI3SzDRm+AwJm85W/6FnGkn0UGWvbI8imVj6BZxN2jQwPSHZYhpWAZGPSEfyCHGRThcowwglgllTf6oK+gPS/1iOaFvLMli+SdyQjdJK/mlTAgTucYwgSV57F0ibUIIIfJT1s4HTsExxxxjHQlHQ9Jh1QQ6ZTpnOpF8ED4GBp1yPjDQcX622mort9pqq1mnF/dBYHgBHSwdHIZ/Gjq+LHR4aeMkGhjRmAc6OsKL4ReCcJBLhDB4t5DTgqF09tln21p1On3W/mMsF0s0/NIQFp03Bi6GIoZ3NGwBo3nq1Kl2P/1uNEQBo+Wjjz5yjRo1qmRAkT+u8X4MDwgHIyktx0Igx/RzGCvLLLOMGWPFxsv/GEM4JRiiEZ5LlxvOF8+feeaZtlcifnAMcBAIJ0K6SEeaYnQtC+WHsYShlg/eY10/4WGksX6dvSHEBcXmDTDw2M8Tyzqu1Y9po0yOOuooc+hYr3/cccdN4zRWRbb+AHt6dthhBzOIiRPnkTDT+gD53k1DWaOLGJtZ0GvqDHpLOBxqwSEXGOjIn3KdWVDuad3nO84FziptFGVBW4QjlwbZ0pahr8BeNfSC/Q44t+hNITCsKW/KLQ1xR5ApYbPHhsGPqLs4DuzjQH/zQfmgQxwFntb5Cy64wPSCNKKbOIbIlHhwBNmXwR4QyoN8Ux9xptgPFsNgzxtxZ48CRi/TdRq5EFfU6XwQB+00dS4tfyANhEkaaI9pI8nXxhtvbA45+6GEEELUjLJ1Ptj8yCgVHQGjs4wS1hRG0ujsGDnNBx0zhke2Y47QIdMB0cFynCYbHhm5zHZgUMhArIp0JxrJd61Yqnu3TZs2NlJ51llnWWfLbBIjgtMDBhOjqWx6xRgaNGiQu/766ysZsdEgQMaF0hafyRqUwHtZY2NGIA4+OGk1jbeqPAD3cIxwltm8Hz9sHn7mmWfMmKqKmugakP74yad7XLvwwgstPRjtbNBnE3S+dFSXN0aj2ZSLs9O7d2/b5E3YaXif2Rxm1pgFZNMuRicG9fSA0clsG6PrOHTEyZHb0WGfHvLJKeYdY5zyw6ni9CoOAaDcqCO0QbMKDGPijvKPepmGZ0h7zDuOEY4CZcAACvWass1H1JF8ep6G+JnJTOsu7S4zD8g/H7zDp2fPnpXeYzM4sxs40NQ1DvvA+OewCGTKoAWbuNMDErTBtCHpuAnjuuuuS56YcfKVP7JFPqSTvOD8M/OBQ0W5M4tImoUQQhRPWTofjLRh0LIMAYODZTuxc47QYWA45OtQInQcP//8s53Gku3U6XQ4MYYOECMpH4wS02myvKl79+52Ig/LT9KdJqNppINRuggdPUtc5jSQISO9J5xwgp3mwggrp+BEuF+VPNPgxGBoYiCzLITlLJtsskmlEVVmGjCYWAoWjR/KAYcwwmwWI++MfKadRNLBchhG9gsZ4NXByCtlE2EUm6UhzZo1KzpeRlYZEcdRTY/CYvQRfiSOvrNUhRN50h8Md8KpimJ0LQ1lhbGILElbGvJM+hhhZhQZZwZHHsOKZVmRYvPGyU84Aeecc44tycKZYZQ6Cw4bo+WcLsepVyxdYQkTxPpbrH6xxIilMMx4cqIZcWJkE0dNoaxZJhOXUkXQRUa24/0IciWvGNE4XsixKorNE20Oo/+xLULO6CM6g64xS8AMDLNMEZ7F6eNdZn8itDvMNDF4QJlisOeD+o7sCSPGy/+0ixFm/phdQW8Y8c/qL/UkHyxZZIaXAQd0K/0OTlvUedpvwscBxqkgTS1btrR7tBcsoSRNvJMOgzALxV0V5JfwYn6Jgxkmlu6lZyC5T9tEHSN9EWY+cahGjBhhZcQAQgT9QU4xbCGEENNSds4HRg9r+jl+k6M5MXLojPmwdCJ29HQaGGgs8ygEI6cYV3QkrPOP78alAqxPx3AuNKsSl+MwUgcYaBdffHElw4x9GxgOjPozGwD8zbG1cxLMJOFoYMQAHSgdaVzKhpNAPjBSijGmMDowBOPINuGyxAfjKYLzwY/k4URiZAGOIHtcIoTDMaGEw5KXmD6eo/PHMUzPptQEjF9+aZpyI1yMYow/1o0XGy8yYSQfx4V18ciGWSMchPT+GnQIg4qyx3mJEC6OWnUyLUbXsnAcLe+h3zyPQcSoPUu9MMDIY3qZEvLgmNlIsXmLM0Vx7wnPZUfaiTf9A4IYbbwTlzQiS/SF+IvRL/SRPET9YukUThT5qSk4kuwLYUSbNoUyIQ0c90q7sNNOO5kBzDGqOIFRXuSBNBRa34/8CBunJtb9qqAO8uOmtGXIBqMWObNckbLifwZecECjkUyZnX766TaQwqwV9RanKOoraSUvpCMfOCzkjZk0HA6eZ4aBuhohH8xEkH8chJh/0ojTmXaG0jBbwRK7a665ptLsEHnAYY1pRH9wJnBEcZZwRuIsDo4BS+twgElTfAco+7RTXAzoGLIkLzEs8sfgCG0Q7XLUTQZgyC9pY2kijjz7T2L+Y91L/74SS8rQF8pSCCFEAUIjW1ZwEgzHMJL07Cd0WHaCCjz55JN2egnHelYFJ8pwoknogOxoWU62CcaEna4ST0QpRDAEfatWrezIRk6k4W9OL6pbt64dzwihg7OjekkL6ea0lJVXXtmfcMIJdnRohOMjgxFgpzRFgjNgp/dwqkyE06Bq167tQyedXMmdbtOmTZuKtF599dV2ws9nn31m3yMcpRpPt4on8ZBuIFzSxek+obP1wSnzjRo1qjhJKXTIdvRlMAZ8MFjsOMrQGduJMMQVT4iK8Dyn+YSO3o6FDQaFnahDnJwwBcEo8sGJNPmRJ8JE7pzyxUk7X6SO2iVuwqKMWrRoYeVFnoNhZ88AMg/Okp2cVBWkjdOuOCGI8uBoU/4PRpClORh29lyx8QYDyE5O4x66hOyCc2Knbu2zzz7JUzld45Qj8oqMKTfS0K5dOzsNCTjWmDxwOlSaYnQtH2effbbVC3SPtKGHyBfZB4fC5M0JV5yMRtlQTpQDeYdi8sYzvEe+CCcYwVbWpJXTgyAYtHY/HmPLSUWUAXoIyJxTgoJxaCdb8Qz6TD1G/hxtnAZ5cQw1suKIbcoE3aYsiQuCYWxxckJbdQTnwPSU+Ckj0kCeiSOmEb1C3ug/1/mbvFI2heBEMvSK06MaNmzo33777YpTkzh+OjgL9hynXQUHwU6Gov3h2F3Sghxi+OSZdoI8ozeUG3IkvaNHj7ZnkBnlhByQL/HSrsQTwLLQPp1//vkWJjrCEeCEHY/3jqc2ES56h/6gex06dLD2BP2pSv+Il3aFPJGeqPOcgkX7EeGEK+RNOoLRn1zNgW6QHvSAOhicEcsjYT7zzDP2TL52CNmio8iS8oXgMNiJYrRj6Dk6B+SPY5hJA+klj9Qbyvej5BQx2lPaRNoC9Jt88Den0EU42Yx06ahdIYQoTNn9yCCjeIy0xdGnNIxCstyA0S1GABmJZUS1qpFxss+oKaPR7E9g9C8Y4DbKyFQ8I2+F4F2W5DA6yvIMRugY3WZJFaNhobO05xhhY3SbUbPQMdnIGKfE8C5xADMCjGayxIL0AyOEjOzxDqODQL7JP+HHZQtxxJmZBGQQOlILj+UWMSzgvdC52rvIkdE5wuU7eWFZD2lkVJBRS2aOSA9hArJhxomlSJwCFAw+e49wGcEOhoM9FyE/yJRRTpYIsYkdWTOqGZ8lHYxgctoQeeNkHJaXIJsoC+JgNJJlNqwx5zk2xbP5NR0nzyAv5BDllQ9GLNnQyrOMbjOaTdiMcAajw8qNPBcbL8+RL2Zw+HFHlpexPIXyY8kG8o3PUS78qB8zAcxKsAwpGFK2xC2WHSOs5J2yivBuMbqWhXpAeTIaTvrZN4J+8zzfGblG9siMpVdcJ92x3IvNG7rBmn1+yI2Ra2b8yCt6QT6pA8iRkW30giU05D2OcAN6zPIg9Il0kj/KijxSX7JL05hNoFyYjQtGuukjsqO+Ey5xouPVtQER0kU95eQl8s4PPbIRP6YRebHMipkv/memgXgJO9aRLKQf/WIJIvkhX7Qp5JXyjeV+8sknu4EDB5pekIZYZ9C3dNrJE+WPHJELMmQWDjnHNCA/ygJ5s/QJXaE8Cy3RI0xmWKjbtBnUQeKMbQjvoQfkhbqPzJF9MLwtfdTXQu0k71HP2FCO/lBv0B9kwWxMTHMsK77Hep+GuNFj8s1zHDJA3OzbI27KJtsOETf6QB2gDY35oJyp92zEp51HX4G6HvNHPaRsaQ8Ij3TxLkuzuM9sFnlAR2IZ8j7Ps2yTmb+q2iAhhPgvM1f8wrkQNSHtfGAUpQ1gIWYH0fnAecPgF+UF3Sib3/ngvNavXz+5I4QQIktZbjgXQggh5hSYlWRfFPur5HgIIUTVyPkQ/zlYfsHyIZZbZJd3CDE7YCkfm541C1eesPSKJaYc0CCEEKJqtOxKCCGEEEIIURI08yGEEEIIIYQoCXI+hBBCCCGEECVBzocQQgghhBCiJMj5EEIIIYQQQpQEOR9CCCGEEEKIkiDnQwghhBBCCFES5HwIIYQQQgghSoKcDyGEEEIIIURJkPMhhBBCCCGEKAlyPoQQQgghhBAlQc6HEEIIIYQQoiTI+RBCCCGEEEKUBDkfQgghhBBCiJIg50MIIYQQQghREuR8CCGEEEIIIUqCnA8hhBBCCCFESZDzIYQQQgghhCgJcj6EEEIIIYQQJUHOhxBCCCGEEKIkyPkQQgghhBBClAQ5H2KO5uuvv3aDBg1ykydPTq4IMefy119/uREjRri33347uSKEEEKINGXpfPz999/u+eefd5dffrk766yzXL9+/dynn36a3K05f/zxh3vqqafcZZddZuFdeuml7umnnzZDYlbx+OOPu3r16iXfRD7++ecfd/TRR7srrriiqLL4/fff3VVXXeXuvvtue/e/zieffOLOO++8WW4Ie+/dLrvs4tq1a5dcmXMhrUcccYRbe+21kyszD3TuyiuvdIceeqibOnVqcnXu5dtvv3WrrLKKu/DCC5Mr4r/MrKxbpeCVV16xPpm+WQgxayk75wMjlAauffv27vzzz3dXX321O+qoo9wmm2ziPvroI2sAawIdaKdOndzWW29thtp1113n+vTp47bcckvXpUsX9+OPPyZPzlwwlH/++efkm8hCOTKCjJN5xx13uPr16yd3CvP999+7iy++2N14443uzz//TK7OXihj9HPgwIHJlZlPoTiee+45d84557iHHnoouTLr+Omnn2ZZXZnZkNZZUfeYpbvmmmvciSee6NZZZ53k6pwBDmjXrl1nqiOKs4Ucf/nll+SKmBEGDBjgjj32WPfrr78mV8qPmV23cOLp70vhENBnkP7/wsCBELObsnM+mPVYeuml3cMPP+zeffdd984777hLLrnEffbZZzbqXRPnA2MJBwMDF4N13LhxbuLEiW7s2LHmiGC0MYqJoyBKC4YNM1IsuWrSpElytWrQCxwWHNIFFlgguTp7wTC76667zBGYVRSKY8cdd3TPPvusO/DAA5MrYlZCe8LAxWGHHebmmWfOalo//PBDN3z4cBugEXMmI0eOtFnbcnY+ZjY4MujtCy+8kFwRQswNzHtmIPm7LJhvvvls1qNRo0Zu4YUXdosssohbeeWV3c033+yWWmopW/5RbMd/zz332FKrs88+2x1++OFuscUWM6N1iSWWcBtttJGbNGmSGzx4sNtmm23cSiutVLHci84BQzfyxRdfuNGjR7tlllnGLbjgguasMIVLR3L77bfbvVq1arkGDRq4eeed196ZMGGCGzZsmDvttNPsOxAuDs9NN93kXnrpJZsCxqAZP368W2GFFewZRi5xuJgJiGExWvPMM8+4OnXqmDwAJ+z999+3+IcMGeLeeOMNy99yyy1XcR8n68svv7S/MdgJgxFb8pBlzJgx7quvvnLLLrus5QX4Tt6QxUILLWTXXn31VUs/ssUhJN2LLrqozViNGjXKRpUopxgGxtDrr79eIRtk/NZbb5kcCOvjjz+2d5ZffvkKh4JwX375ZcsPsyKUEfdJB0YWOoLsiAMnBqfyzjvvtOcIE8gHzxWCZXxPPvmku+2228yhIU7CrF27tt1nlIz8YPinl88x+v3iiy+afiJblvPx/uKLL+6WXHJJCzfmlXwRxi233OIeeOAB980335gOkS9AHzBIkC1LqHCQkQt5Qq6kv6o4kCU6QJlTVyKUO04dMvnggw9MbyiTKHvSQr7Rh6zsgXQ9+OCDVs6UA+8+8sgjdh1nPTJlyhRL76233ur+97//ue+++87yhz4UgrSTBmT62GOP2Wgwhgdyj7oL6Cw6jW6jA+gQMqVcY70AHFhGTZEddRcZER7xsKQvwqxZrHvkm/KNMgbKlTqJjiE3yoy4+NBOEAfvU048S/2M5Zjmt99+s/BpI9J6Q5nSZqBnvIvuolvIjTTxP2VBmmJZYJiRJ8qc8uc58rfiiivafSBcZIOOEG/Tpk0tXD5RnvyNnpEnwqEOIW/KNYK80ZWhQ4eazNFV0k/5rLfeem7zzTe354qpbzxD2REfTjMyQy9i3cpC3O+9956VM/FTflxDTjFMvhMOz6Db6BB6RrixrUnD8+gAbTQzhujx/PPPb7pO/0GbSxqREdcjlA96QH4oB/JCfUImtLXIqG7duvaJ8VKu6D66SPqRCzPu9Fu0tcifsmFAjfCbNWvmPv/884r+ZFbIlLpOuqibtNXoMOVNWwDkn/TQDlAPqR/IO92OFFO30FH6CNJO2SAr2jPkGuWDXhMH4dDm0o6g5/Sr6OV9991nuoYs0DvKiH6RgRXyRxpYek15IFP6JZZNk/b777/f9Jl6S5lEkBf1Iuaf/olyRnd22203KwMgLdQdniMs8kacyCmmn7rMwA91AZlR1qQxygrZ0SYgn3y6KMR/ktAIlz2hMfaho/cnn3yyD41qcrV6Dj74YHsvGPTJlcqEDt+HBslffPHF9j00Ir5JkyZ+//33t++R0DDZc8HotO9XXnmlDw2sX2WVVfz222/vgyFo94OB70OjZ88EA8+eiYQGzHfr1s0Hw8mHhteHxtmHzsXvtNNOvlWrVslT3h944IE+GBc+GJ3JlVz+QyfkH3300eSK96Ez86GBtDQccMABfrXVVvPBqbJ4IRhXFvamm27q11xzTQtz9dVX98FYtftZ2rRp44PT54PxlFzxPnS4PjSwPnQ49j00wBZny5Yt/T777OMbN248jewOOeQQHxp6u4YszjnnHMtn6FTsWuhAfTCmLP8dOnSwdCOT4KTZfbj++ustL1tvvXVFHq+55hofOiTLA3GTPyC/odPxwSnz6667rv0dOqlK4eWjdevWVj7Ihw9p2HDDDa2cIHQmvmHDhr579+72PRIMEB86Gfs7dLY+GDJMxdkndDxWtjGvxx9/vA8dquVjzz339MFY8ptsskmFjIMB4ENHZ/cIc9VVV/XBQLCyJr9QVRzBuLD3YplD6EAtTOTRvHlzKz9kDcXInvyTnrSeBiPHh07fr7322slT3gen0dLLc8HgNV3gb8IMHXjy1LRQd3g+GACWxjXWWMPKKxgPlh9Ab6677jqTF88QL/nkuQsuuMCeAXTg2GOPtbpHGldaaSXLO3qIzkQmT57s119/fbu31157+W222cbK5aCDDqrQo2HDhlkY6BY6h+wuv/xyH4xEyzv6uNlmm1k9IZ9rrbWWDwamvZvmhx9+8MGwqaRLwHXk1aVLFx+MOv/TTz9ZOiifXXbZxT7kdbvttvPBoLN3kAdpOumkkyx+wkWn0pB+3kUvon7w6dq1q90nDXvssYfJiHYKeaNP6Fkw4OwZCEaxyQ0Zt2jRwuRNfKTp9NNPT54qrr4FA9PKjnZiv/32s3rUq1ev5G5lKOtgTFv+CId3CJP0BkfXZAW0L6QLfaR93mCDDexZ2oR8vPvuu9bmBSPR2tTgQFmagwFs94MRbzoQjEn7DvQtwai2d2L7e++995reUN7oC7pAmdAmR7bccku/7bbbmmxJH/EiY8qFuk49R6fSdRj5Uh9hVsiU+oNuIVfSRZuyzjrr2H10mjySL9om4iS96H6k2LrVu3dve4b6ssMOO1jaaWOCs2f36QtOPPFEy1unTp18586d7X5wZnzfvn2tLqXlQv0KDoEPTom1z+gufTjhUzbcox4SHs8Gp9jCIF3BmbE4YdSoURYPMqPskAU6gBxoI4F61rFjR7uGPOgn+Zv8BgfUnoFrr73WdIX+kXpFHoPjk9z1fvfdd7fyffPNN5MrQoiydD5oPCdMmGAN2MCBA63hwVj86KOPkieKY4sttrAO96uvvkquVOatt96yxumoo46y73RwjRo1ssY9DR0VjXM0wl9//XUzxKORjSFIx9iuXTs/depUu0aHknY+6ORo2GiI6ZAwCs477zxrONNGHR0rac46H8T/yCOP2Hc6BvJGp0FHAoSJQYmBg7HFMzvuuKOFjxOCoUTnimzzgbFE+tPOBw0sje7o0aMtPDoC0hqNKjqCKVOm2N9RdnTQaefjrLPO8vXq1aswyEkbHWmMByNsq622sncJA+g46YyICz0gHNKOoYFBhBNHenCkcGyQxSeffGLPEQ/3Kddnn33WwssHsiQtQHox9umgokGG84Hxve+++9r3CA4ZYQNpQicxOHBS6MxivtAPOr8rrrjCDCjShv5g9EWHDaMEI4Tyvvvuu+05jHoMHBwiqCoO6gdpiZ1pNJR5N+o8eoQ8oRjZP/TQQ0Xp6eGHH25GwYgRIyxvfKgnGCKnnnpq8tS0IA/KFmdg3Lhx9h71qX79+mZI/PLLL3Yd2e28884V+kU+MPKQw4cffmjXMN4wrnCWqHfIb8CAAWaYpA2kSy65xOTEYAMQJ04QBh7yAJxKjB/KAqOfZ5A98h4+fLjpA3CNPCCPtOGaBgeJNGBgRYiHa0OHDrWwMWjQN4zbCIYxaYrhUr48gzGEPvFerFtpqAsY8JQbekSa43M4VcTLIABlSRivvfaalTmOMHWYZxk0wLhkgINnJk6caIYpMonOR7H1DQeJcopOKOUS61oW2iWMY9ofwgT0knpH2Y4ZM8auPf7441ZXYv0kzdQVyiML93AyqQs4IUDeaZuof+gPaSONDNwgP0Bu6DgOILr/wQcf2DP0B9wD6iKGPzoXwSilnTz33HPtOcJDJqT3nXfeMTkhZ9KEY0I++c71WSFTdJXBAOp2dJBxLgcNGmR/k0baP9IA1B3iyw4SFVO3MNLpRykH0o4BzkACsgbKEqN+7733rpDzd999V6F35Jn+ASeGdEUdZXCNdgLdp+y5xvOEQf2YNGmSXeNz3333WT254YYbLHz6CRwt+kLaWJ6hLjLoQZixvaTNp72KbTQgb9oedCBe4++NNtqoQgcIP7aXcMQRR1i/RFxCiBxledpVqNhu++23d23btnXB4LKpXdZaMy1cE0LDZ1OjoUNPrlSG68Got6nXmtCyZUu38cYb299MKYdO34UOyabaQyNs17MwhRw6KLfPPvvY/8R90kknWR5rCtPMLJNirX/oIGxaPzTMLhidNm3MlH4kNN6uf//+NiVNXoMxkdypGbxHupleZqkP8SHb0FAnTxQH0+Ms4QiNvsmOcEk3sguNevKUs/ucTNakSRN7hrRnYSkD74WO2Zai8BxLC4KxZO+zTKYQLLXj2dDB2FIZyoE4QmeYPFE9PB8cTIsXHQjGQsUyCmQejDkXOl2LAx0LnbDlhyVNaSjHYGhbmoPDY7pFOUKhOPLBHinKPhg5Vu4QDIqKpVLFyJ7lBdXpKfIKRqodAsFBDoTDh/1VwZC0ZRRVgc6yPIVneY/6RPgskwjGjy3FoA1gI2rUL/KBPpDWWK4sT6FtIK3IiHwFQ9H2wkTQU5aDsNxwgw02sLpCWbRp08aeZ4ljJDgU7qKLLnLBqbd0IXvk3blzZ5NdMIxMbmuttZaVBcvO8sGyDuoGa9nRBT4smSIP6B1hBwPKdLZ169aWJj7BALdwWdYXCW247TEhvbxHGrPwDmXFff4nzTwXDDVbbolOHXPMMVaWPEP6O3ToYEs8iZdlJJQZuhDLMxiYthSFfEeKrW/8Tbi0U6SB7+lw0gRHyPbhsSyWMIHlbMcdd5y9G3WJMGhbg3Fr+kf+WCqbr12gDiBf6h55Jy2Ete2227offvjBljixzAedYFlkbP9p1/hwQAly5B75DQa43Scc8hGMeruXhrrNZnJkT3kgR/QFPUZO6ANpjn/z4e9ZIVPqEe3HwQcfXLEUiWVCwcGwv0kjekidQZbIdbPNNrO6RFqgmLoFLMlr3ry56Th1gzIhH5QpkB/kwfJa6gvP1alTp0Ie2bYt6mh8l4M2gmNmf/M8z1GODRo0MDkQZ4sWLUxnWNIGLHkOzpOVP8sQeZdl1sE5sfAjDzzwQIVcyB/QDlHe9NekGbjHEjH0ivQHp7LScjfqGG0vcQkhcpSl80HFptOhAWCtefv27a1DiB1SsdCB8HwhhwCjkMaEhqsm8A7poyHGAKPBwmDCUCgEDSONa9pYp+OMjV5NoHGlw+TkJxrV+OEYUNJGpxehk+Uzo9Dw9+7d29KPIYShScdJfDUBGSErGniMHcLiBDJIh0Ung+FQFXQOyI+OKA35pUxZG1wIOmf0CWMcY3/33Xe3jqyQrtQE5E8Z0WHRqafLCMMHpzgNso2gExjn05MO4sPYXnnllZMrlSlG9sXo6eTJk81JwIhNd+YYFM2aNatS7hCNjjQ479RHZMO6euLLln+jRo2sXFlXDjiKhIXBE8HQSKcV4488YbRSV2M5cDIU5Y3xFSEvq622WvLtX7788kszLClLZIZRR1oL1XcGSTBGWZdOHOgaxjBOTDQGSTvXOXUvpmnXXXc13UnrB/lr1apVhUFWEzBWMaYbN25cqY2jPHEuaEPQMwxOjHLSnIY6mI632PqGkYpRR/tInpFDoXYCow3QmzS8j6xiWSMDHCZOGqPOsgewUJjsb8CZ5pkoWz68S34xqskH+wfJU4yDPQQYljvssIN95x79B05wOhz2BiDbNOk6DIske/Oqax9nhUzHjx9v6anKGMY433fffe34bHSafZEQwyymbgH1hzaEwULaUfpC9u/EcGgTkDtOJs41TnB0EqoDPWWwJgtODM4ZTglpJ24c6Bgn7SBpXXXVVe17JDroEfKIo0R7lwanlHobB/FwgAif+r///vubfIUQVVOWzgeNzuqrr26jKnTOHG/J32xqS4+OV8dyyy1nnWqhd2hcMCIwatJU5UTQwDGCggHH33vssYc1qNmGLgtGYbFUFT/QgdKIMlqOURQ/HLvKaCUjytNLVXEjJzb/9ejRwzoYjIGBmeNfq0s7mzljp0/62bhIoz49RJmmO5QI17IGQQTDgXJjAykjz4wsH3DAAZUM6RkBGZA2Zh/S5cOHE9vQ56rIl59iiPKg/uSjGNkXo6c8g+5jnGYh7kJyrw7yzfsYfPHvLFyPBlAxaaUsqC8Yt+ly6Nmzp20gxZCrCgwlDDQGG3BeMERxXPLlPYKR07FjRxv9xZFisy4GL9ciyA8nhTKIaWKGiTShjzMD4iDv+coD2UY9i89VR5R3Pv3kWowHWTMzy2g+I/XMFDA6nI9CZc01PrFOYiDiHDCjyDXKgRk+5JqF/ACzD+kyP+2006y9Ij2ETfvFKDybuHGomSHjGkY+IBN0jRH0dDgXXHCBpWVmMCtkWlWYgE7ixDC7wQwIxnVaN6HYusVx+MgER5FVCvSF6RUKlCv1hZki2hr6cPpynJHpAYeZths9WHvttd0hhxxis2ZpB6IYXU7Xjayc+J6WPTYIDmp0+nCEGUwQQhSmLJ2PLHFkiFHB2LEUAyMYdE6FGrp7773XwmP0BGhs+GRHptOjozgrgwYNslFCGtITTjjBRpAYua0KpshpOHGGIsSdbeTJK9fSDWh6JgMYjeI5RrZo8NMflnxkR3KKgfAY7UnLNxsvsHSEGRBOPUFujEBBbKyRVdoBScsOML6Ji1NoevXqZUY/jfn0gHOJ8RJHqCKMylOG2dHECB0hhjhOAD84SQdGx0K6InSa5Ccrg+yIJ5D3dJ4xjhi15306ynT5MIKJw1NTsnHkAx0jzrhkK0sxsi9GT5kVYXaG0VPkH6GsGcmubsaKfGTrMQYRo6SEG+t6doQUowv5r7/++vYdXaSepMufsNNpZSSbUWTyzfKKbFlUV29ZAkXaWI7Fj+0x64GBms8xilBWOHmUBQ4uJ1lh0KZnFkg7YTDjlk4TbQmzEtNLWkeQJ/Ey+5HWW55hZo6RdZwoZM5IfXZEFzmmw6tJfSPMU045xWZHGfG+/vrrkzuVQf6UYTZu4mC0GUM1Qr2iDDk5CUcNhzDOnKRBtuSd9KRly4f346we+WGWg/rAKWDMcKWdUe4Ds4TZcFj6U1Py1eFZIVPqH2XHIEM+eI+wyTNLGVn2iWOdppi6Rfkwu0R94JQuHGnqFMvGsjBLimPNUicGA6fXeUOX6XuYTWGmH0edNjY9k0r8tC/Z/KdnK6l7tAvMfmTbdJat0W7EZYBAn9u3b1/3xBNPWDmQFyFEYcrO+aDRvfbaa82Aig0F67IZ9aEjjY0MjQZr2ZkCLwSju4zIMOKFwRkNHgwbDDFmCZhGZc0o0AEzus+zdIY8zwgHU9JZY4m0RQMEo4jlNFWBwYlxHx0eGnF+v4SlZWlo5FgqgnEM5JMOJw2jYMwM0YmkDTQaV2Yk0o5LsdDQYpDwIX0cn5j+ZWNkxhI4Og46UWRFIxwNdv5npJ/RNMqQMFivTOeUBrnx4T7hkP6qyrAqcH6IFycirlWmQ+R0aQw/DMBCEDfy4n+MZkZEKZ8I+aMTR+9YxgEcyRidrQjxM9KNvkYdwaBjrTT7YxidJJ5IXLJUE/LFkQ90gpFcjgWNzgPvYBRAMbKPesrxlDyXT09ZFonxw/4Q9CQybNgw20cQ18gXAv1GPhgHpAcZsxyMZRs4P/yP8UgHH8sEWZ5xxhnWBmy33XZ2jcEF5BL3VqD3lGM6T7QXjOqil8zaRXgepyKfM5mG9AFhIzPqAQZU2unKB0vfGHmnjaHeYCDFJVfAbEo8wjcNS0byjeZXB/pKGtMGFzJkdoB8IsvYLsTjlnHicEAwwjCwGdWlLMgzR2RTRmldLba+oRPIFXmRLuLgvXyQBgxwZpNjmDi/6ByDKDvttJNdwyBEXoSJExLX3BNvFhwalkch+/SPLqLLtI+x7AiL8JE3S1hpv2JfAIRBXMguPSCVzzEuBmRBXOh/ZFbIlL1NGODINOoS5Rn7kdgORJ0mPupQmmLqFsRwYpjoEP1hhDTjwPMM/SXlRvtI2MD/yJhySjs21RF1mbIkjenVDaxCoD+jHaQ+AWlgsCXdFrN8j/aRPJFHoE3DkcKhwvEjTdgDUVY4JaQ3LXvqEg7c9OiEEHMtoUEoK0JjYKeJBKPBjsbjExorO3mD03RCI2HPcVpHaATspImq4JQZTtIJDbkducepIqGzs9NJ+HBqT+hgK8LlNCOu807btm3tWL3QCVtcHLUbGiF/6aWX2jOcvsMpMTzLKSmEHxp7C+fBBx+0EzgiocOxEzNIB89y8gb55ESO9ClCnDLCsX3kP3RMlu/gRNkJHOmjdjnFJjSEdkJJMPbsuL/guNjJIqEzsVNBOOWKoxmLgdNyyFMw/ize0LlZmFzjtCvCJOzQIFt8lAtp5LhEQH4cTRoaZTu2kPuho7FTa0KnXnGKSmjILX/I6rjjjrOjczmmMhhAdnoN9OvXz05VCQajfY+EDsaOco0npxAnJzEhZ9LN6S6UBe8G5zJ5a1qCcWPpQ7aHHXaYlWMwui2dwWBJnsrJhLDQAe7zP8c9E1ckdGZ2ChjlyglOhBtPRuJ0G+TBsaD77befxUOZkT8IDq6lgZOI0hx55JF2Uk+kUBycykQ5jRgxwp5DN4PDaOWCvoTO1dLMMZRQjOzRU8o/rafBCbMjYjldLcLJXciB/KHXPBv/jmWdD06WobzQpWAg+eBoWN2iLryfHANNfqmXXEe/27dvb2kMxqiduBOhHNFx2gfyEsNEP2OegbxRz4iXo7HRH2SIbiMT4Ehjws/qXHD+7WQo9OqYY46x9CI/ZMxpcFURjCKTCWXB6VFpOL2LE/K4TzmhH8Ghs/IMBpw9ky3fquD0n6j7pLFbt252nTpDO4aMiI+y5W/knT4adOzYsSZr4kPelC0youyD02fPFFvf0CnKgeOUY/lmdTyCzp5//vkmT3QVWdDGEAcnIAXjz57j2FnSFoxCO7KVstpss80sf/ngdCPqM2GSDo5IbdasmbX9wUhMnvJ2PCt5pKukLSc9aWjTyB/yooyIm/IMxmbyRO5URcoOfYzQdpDvqF/AaWbBADddpJ5wytuskCky47Q6nkGWyInwN9lkE7s/YcIEiyMY6L5Hjx5WrznRifiDc2bPFFu3iIe2gmc5OYxTtmjvKEeg7qFX1BnqHe0a4cSTI4G4CQOZUL7EPXLkSIubU+jSBGfG8kHfQhvBu6SHONCXSHAgTIboAKc4xn6U9i/WJ/SAk9aIm/RRT9BD6vu7ySlp9OeEzwlf6BDPI8s777zT7gPtQnBMKo4XFkJ4X4t/cm5IeRAaYxt9Z7QhVGYb2eA0Dda4MrIbZxsYiWJ2gJkKPoUg+4zEsO6a0Q9GYtiAyagHy0aYvmU0lXWpTOWHBs9Gbxi1D4aBLWNiGQQjp4wKh0bMRr6CU2PT1nxn8zUjOozO8kxozGxTHMu9WC8a4RqjNMGosDDZYMrsDaOLcWkY6WUWhfXHPM/0Ppv4SCujcqHhtucYiWG0iFFVlh6ERtNGqxhJY9MsozSsUw0NuY3gVQdyZnSNmRlgxI0ZFkYcGUljxIc17MiFcFm6wAg0I6bICRhVYiSXkSBG4JELo5qkjzzwHOlm2pylDsw4sMyBdBMmo+nBILQRJPLGd+KNMApFGRJ2PCkpXkMOvEfZso45GMMFRwYBnUDGTOMTD2XBiDDlQpoBXWS2A5mQLtJKvJRVeq8E5cSoIHmg/BlhI25G49BjpuoZ1SRcyoclDugLZYPMSXNah5l1Y6NpeilEvjjQQ/JOXtN6wSwFZUAd4Vl0CB0vRvZAXMF4svqHPHiOeod+8xzEesXMIDoSOmSrU8FwrRiVzgdLF1jqgVzIe8w/caT3TaFLjEJSrsguGACWj2AEVdpvEZePUGcZqURvg8FpI73oHJBW5IluEi86Q76CEWcj79Qd8hblEIxcew94l5mDYcOGmf5T7sxoUEfRhagr+SBtlE8wgizc2HZFGHFmCRHlhS6gA6SZ+sY7jFpny7cQpBP9HTRokOkds0/MrnCd9oX2Kh4QQZ7JQ3pZCdfZlE+5IyvKkXpEPoOhamUExdQ36hTtBG0W7SPlhi6jI/mg7UHXeIeRanSVTcQsCYxhIivuoxOklXaHZyjrfPAM6WDJG/WVcOhHqH+crkYbDdQJ7qPz5CEYsXY9Qn5JG6e7oVPEF5wyy0+UH+058ZHeWMbMcBIuZUl7BfQ9LBWjTSGPHHhBXZkVMqV+M5vIO9Ql9Io+lFkuIG20f8yQ0o6j1zG9Mcxi6ha6RluDblEXmGlD58grp8YhX/JGO8HMFXWc/Sb05bEMqF/MUpF30khbTNzMwlFW6TIhbJ5DT5EFuky6CIPn0npKvWJWgzSwvI6yJ8x0P0rdoGxpFyhD+kr6bMqH/gWQC3mkvUMOpJ92k3YI3SVs6gxyqqrtE+K/RNk5H6UE0WBwsKyKjpcGEqOkVBA/RkDa+RBibiY6H9Q3OnIhhChH6L8Z0GCfFgNUOG5CiBxlt+ejlDCywcgKI0CMbhU6olQIIYQQIsKsB5vemWWc3kNThJhbkfNRBEyfMpUdp4FLCVPrTOML8V+gYcOGtgSJpU5CCFGusCSOZY4czDI7bAch5mS07EoIIYQQQghREjTzIYQQQgghhCgJcj6EEEIIIYQQJUHOhxBCCCGEEKIkyPkQQgghhBBClAQ5H0IIIYQQQoiSIOdDCCGEEEIIURLkfAghhBBCCCFKgpwPIYQQQgghREmQ8yGEEEIIIYQoCXI+hBBCCCGEECVBzocQQgghhBCiJMj5EEIIIYQQQpQEOR9CCCGEEEKIkiDnQwghhBBCCFES5HwIIYQQQgghSoKcDyGEEEIIIURJkPMhhBBCCCGEKAlyPoQQQgghhBAlQc6HEEIIIYQQoiTI+ShT/vzzT/fzzz+7f/75J7kiRH7++usv6YoQcyDee/fLL7+4P/74I7kihBBzP3I+ypC///7bnXPOOa5z587up59+Sq6KcuXHH390hxxyiHvkkUeSKzMPdOX00093u+66q8UjhJhzeO2119zmm28+S+q+EELMqZS98/HCCy+4XXbZxe29997u888/T64WD8bZU0895XbffXe37LLLuvnnn98ts8wybrfddnNPP/203Z/TeOedd9zNN99szsfiiy+eXC3MG2+84erUqeNOOeWU5IqYk2BW4s4773Qvv/xycmXmgQ5fe+217oADDjAdEKWF9uPNN990n332mY1yixmnkExffPFFt8QSS7jzzz8/uVI1jz76qLWft9xyS3KltPz222/ujDPOcEsttZTbcsstk6tCCDH3U9bOB8tITjvtNPfwww+7u+66y3399dfJneIZPHiw69ixo3vllVfcRRdd5EaOHOl69+7tnnvuObt+//33J0/OGdBhHXHEEeYsYVDOM0/1RYjRucEGG7jVVlstuSL+K6DT++23n9tpp52SK6KU4Fgy63TxxRfL+ZhJFJJpvXr13MYbb+zWWGON5ErVrLDCCvZ8kyZNkiul5cknn3Tvvfee69evn1t44YWTq0IIMfdTKzTeZdkj4nhcd9117rLLLjPj6oILLnCjRo1ya6+9dvJE9TAjsOmmm7rWrVu7QYMG2cwHIJL333/fDLbJkyfbiNrKK69s96YXRus++OADW9/buHFjG6GbHnCwGCFfaaWVXLNmzWymJh+MCn733Xdu1VVXdQsssEBydVq++eYbN2nSJLfYYou5Ro0aufnmmy+5Uxhk//HHH7sffvjB0rHkkksmd3LE+99//72rX7++ybVWrVrJ3X9Bzt9++63NWK2yyipukUUWseu///67mzBhgjlNDRo0yPtusZAW5A7IHWeNeJHjV1995Zo2bVp0xx/zRRlisCy00ELJnX/hmQ8//NBks+KKK5pBlIX40asvvvjCNWzY0P36669uzTXXdMcdd5w502mQzyeffGL6wrPzzjtvcudfCI9ncEzJT8wj+Rs7dqwZWVwvpCs1BdmhX+StqvL58ssv3ZQpU0wHC8VNOil/0ooeoU/5HGqeQV7Et9xyyyVX8xPLl3dimNOjQ9RZ9JD1+JR31M980F5E+afrG3WANqlDhw7uqquumiZvxegL4U6cONHeJR1V1Weg/vD8ggsuWKHzMwLtyEcffeRq165t7WCx4ZG38ePH2/OkI9u2cB+9RUcoU8o2HzxHOVDfKEtkVZVMs0R9QH+QL21SMe/EOkqeyXsW7qfbzpq0xVOnTnXjxo0zR6ply5bW1s1IOyeEEGVFaGTLktC5+qWXXtr36dPH33zzzT4YBv61115L7hbHmWee6UNn4J966qnkSmVuvPFGHzopf9NNNyVXKvPTTz/5Nm3a+GAw+mCo2LXQUfprrrnGt2jRwocOx64FA99vscUWPnSefvHFF/fLLLOMHzNmjN0jH8Hw9gMGDLDvQBgnn3yyD45RcsX70Mn5jh07+mBQWF5DR+7XX399/+mnn9p94j/vvPP8lltu6e+++25ft25de+6RRx7xwXDwwSiydEVCB+5POOEEHwxvkwH5DB26Dx2ixZ8Prgcj0Xfu3NkHI9iHztbydOmllyZPeP/uu+/6tm3bWvpiuAceeKDJCv766y9/yCGH+OAw+kcffdQHo8OeRSajR4+2tG6wwQYWduiM/YUXXlgh22AE+n322cd36tTJvkeCkelXW201f99999n3mN9bb73VH3TQQZZH4thrr718MOZ9cDR9MEotD8HgqVJvCCsYB5a2fffd19JFnoKz4INBVCEr/g/OrD1LuOSdOI855hgfDAx7Bv78809/xRVX2H3CCkaN79evnw/Ghz/nnHOSp7wPBqe/5JJL/KKLLmo6g5yDM2zyj3FyH52444477Dk+wVH2wdny2223ncURdYUyCYZe3rJ9++23TQeRS/p+MKgr6U0wmExnCDc4Qxb2AQccUKHncMstt/h1113X33bbbRVyHzx4cHL3X4iHsqBMkCdhIjf0NxjjyVPeB8fM4iQu4kQOvXv3Nj3KB7KmPiIzPoS7995723VkSj3cdddd7e8I+dp9990r9Iq0BQffB2PR4g3GpV9++eX9Aw88UKGL6Bw6cO+99/ouXbpYvSQfhB8MXQsD/aMecp10o3Obb765vc/96vSFZ958802LJ5ZvcCR9MOjtfhaep+xbtWplYRLennvu6W+44Qa/ySabJE95a+8IZ+TIkcmVnJy33XZb37179+RKTgf79u1reUD25HHrrbe2/BWCMGmXRo0aZXkjX+QfmVPepBGee+4537x5c7uPjKkLtAk//vij3QfSfvTRR/sePXrYfeoI7X0hmVJXV199dT98+HD7DuSrV69e9n6UMW0C0FY1a9bMP/vss/adNpF6csEFF/jLLrvM8szzlP9dd91VkfYZaYuDY2hh095RP8gDbQB1L63Tjz/+uL/44osr2k0hhJibKEvng8b9yCOP9GussYYZY9PrfOy8885+qaWWMqMsHzgIdA44Avn4/vvvfaNGjawzix0HHdRZZ53l69WrZ04HaeV+kyZNrMPFuKdzfPXVV+35t956y4yKiy66yL4DYWAwYRBGRowY4ffff3//2GOP+ddff93ffvvt1qntsssuZtASz/HHH28dJU5Z//79rVPFUMBYwRA7++yzLSyePfzww61DpjN/4YUXrJPE0MTIolPOB0YanS4d55AhQ8zAuPrqq327du3s/pQpU8zgWHHFFS2Pzz//vHWgpAnD+ZdffrG07rjjjmY0NGzY0A8dOtTff//95oRgCPAhnc8884zfZpttzOBARoAx1L59e+vo02BwEUd04GJ+69evbwbl008/bWFiJLRu3dryec8991jcdPw77LCDvZePd955x4yQlVZaydKNcUXekfE666xjBlV8jvygk+SHvPfs2dMMFGRNvilXjHN0CocMfbjuuuss7xhT0fmgfPgbGZEnnAMMRnQIOUbD+aSTTjL5YCTjgCAz0kPZoyvkmzoxbNgwC6tbt27mwGXBIMJZxulLGzvXX3+9pZ+4eQY9Rj/QFfKLQYb8MJgjOFbURXSXesm7GGtZSCeGHnkfOHCgOXcYych6s802q8gjxj1pIC3ESZ7ITyHnA0OTsidM5EZ9oVwwZAmTOkJ41KEI+oIcjzvuOPsey5L2ASdk7NixZpST1lg3MHSR6corr2x1FdmTRuoyzjXlzTOUN20Bhj119sknn7T3i9EX6hv6vtFGG1WkA937+OOPLYwstIU4KrRJOEoYsBjAxJ9uS4iPuvDggw8mV3JOG+/itEbQTXQVY5n0kkfSS5rSDnUa4qX8qS/kBx3HScbQPvTQQy1fQB6pk7Q9lAXlhsNEuUWIB5lTZ//3v/9ZfkhHVTKl7CkHQEdwXGkbSAMypp7gnAEypbyQB6CTyIm6TV1Dz3EYcGhw1ihPmJG2+IsvvrAyYUCL+BksoP3J9l88w9jgSy+9lFwRQoi5h7JzPjDg6IgwgJ944gm7Nr3Ox8Ybb+wbN25sRnM+MDToQDAm8lGM84HBg1GHIY0Bl6VY5yMfXbt2NQObTjN2eBgVdLSEEck6Hxgx5IsRxbQR99BDD9noYDotaUgrxuHpp59u8UUIg/gYMSQvGClpMDS4Trx0ztH5wOAE3sXBwwBnVDsaKJQnRgszA1BT56NDhw4VRiydPoYzBh8zFkA8GAyUYSEwaAgbgzitJ8iSmRkMEPKPLMkTzmWE65QReXjvvfcsLVtttZU5WHG2ADmiv5RbdD4YgWUmB4M5Ogs8l9YrwPlAZunZoXygd+gfMxI4gPmIRhoj7RFmuKgfGE3UBRwNyj6C/BitTuspzgdyOeOMM5Ir+UHXcH6vuuqq5EpOD9BdDHDqOBAeuhMd0KpAppTvYYcdVqFDgG7hXDCTgzNE+BjUEQxe0kJZxnrEjNhnn32WPOFtNgZDkjKA6Hwgo6hjOAvMMGDcRjnHNFEHYhkVqy/MAqAryDidn0I8/PDD08iUGRochpo6HzihzEzggKXbLRxE4oh1NwvOB/fRp5hm5MIABQY9up0PBoDQr+gAAnUdnYwzE5F8MoWs80F9RX+zeUDOUMj5IJ3R0QCcHnSGgZpCFNsW5wNdR2Y4RhHqx/nnn19QXkIIUc7M2GLg2UDoyNyZZ57pQmfm2rZtm1ydPkInZOtsq1prW9396gjGvAvGtguOkjvwwANtvfKMEDo3O5bx9ttvt3XErEcPnXxy19lJXeyBqSrNoTO3vAfjttIegmBs2Lp29gnkI3TWtv582223rbRmmjBC5+5Ch2nr1rPlwqZO3mN/SYT13ey1AdIaDDZbo85G0tBp23XWdwdnx9abTw9ssidMCEaJnSoTjLmKDabEEwwuW3ddFaRvjz32qLS3ZcMNN7Q13uwBQf4cWBAMokp7g5BLcDZMNmws5X/W9xNnMHrsGeS49dZbVzq1jL0KfHh/2LBhdijC0KFDrbyDUWhlFwnOiNtnn33yrmFnLT0n+hAGew/QlVDnk7uVoUypW+gG8O7zzz9vJ6oFo9vW7rPXBVmRHj7BWDLZpMsVkCvlWBVjxoyxPRXBWE+u5OQcDEWTa3AE7No666xjz+2///52wlFVoLfsM0GWpC2mk7ygf8hvrbXWsjX/weBL3nLu7rvvtnJDX5ARZRkcAHsmhhEcattz8NJLLyVv5dhoo40q1vGTb/QaOZHmQhSrL8RHnSQvtHnV6Wlw0CzeNm3aJFec7aWgbtUU9lgEp970i5PYohyoi+gQex0KQT5o82I9Rj6kgXIgb2moD/fee6/pKbD/KQ2HZKAD0wN7LYLjbH0FOhUhfVURnHQrmwh6wb419v6lmZG2mOdoT5EtJzYC70eCE+h69uw53XsDhRBiTqbsnA8aazpGjEE2eb7zzju2WfWff/6xjhGjrVhq165thkK2Q4xg6NFJ0AFPL3Q8PXr0sN9awIDBoOY3HeiIawKGABssV1llFXfSSSe5a665Jq+TQHz5DNEIhgNxYxCQ/zQY6hg8GKH5oIPFoMjXIWL0cL9OnTrTxM/zxJs2yEhnulMm3GwnHfNC2U4P6fD4O5/RkTZKqiKbtsUWW8yu4QiQPgxD8pnNOzLmGjIl/+gaxnFVZYROoncYJddff33FB4OV3wSIDhXky9e7775rzgQG1IknnmjvUleqAuOwadOmdmoccfM/xhAOM3GQP8oQgzydJjY2t2/fPgklB89XlT9AV8gHckzDdwx/nCXAybvpppssbtKIcc7BEnzPQpiUBwZhOo0Y8ptttpk5j3Xr1rWT4jD8aC+QCyfbHXTQQVZ+lCXyx2i98cYbK8IYMGCAbZpOO0tAXvlEqss3FKsv6OaVV15pZUB9x3Hu1atXwQEMrlOPGECYUWj7KH9O/0vLku8MLtCOVUVaJvxNXtH/WG6PP/64bbSmTPv06WNlnK/dQRbpsGpCrEcMOtQkjOyzyBNdjembkbYYJ5j8skGdI+I5MAXnNz2gIIQQczvV95RzGA8++KAZJjgfdF58Tj31VGvUu3TpYiO1xcIIOB12IYeF07DovBgtLQQdTNqohqyxjEHFee5vv/22O+qoo+xkrWOPPTa5myP7Tta4uvzyy232hI6Kjo4R6prkNUJ6SQ/5wsBIgwz5ZJ2SCKP1dJL5RmDpZOmkCTObF8qL+8Ua+oUg7Xyqk9WsIBsHekM6cNZIE8YJxk6+vHMtGpUYh8goG176O2HyHKP9OKwYfPHD7BIOXiEoV07Meu2118x5QVeeeuopM76rgjAxcnnn1VdfdbfeequNOHNCD+AQkE+c6HR6+KCTNQVdIa3ILA0/hIiRt/zyy9t3nGRm6EjX8OHDrQ4dfvjh07wH6DWOWL40chw3Bh9lwBHVxM1s0gMPPGCyp+0A7lOWtA04WukwKAuMzRmlWH0BZlJwQJhpYIaM42VJdz7QG+pnPiM+DfFDOm5kkNZByhsdPOywwyrJgA/6FGcti4FwcQyp/8iXU6KYreM7M2rMJlEOOIYzE2SMPhB3Om81hfYOmcYymZG2mLp17rnn2gwfzu/o0aPtqN04eyaEEP8Fys754Aek6PzSH6an6XgZqWSEEnAI6Niy0/hpGEXF2GbULetAcMQio1IcU8pxvPmgY6OTZno/jlwRX1y6kgXj/eyzz7ZlAHGkjHQTTnoZA85Qdor/9ddft5G2dKc/vb9Yvd5661l+MebSnTJHP5L+9ddfP7lSGRw9DBLOp4+GC/8z+0RHzxIUOlRGldMwUk3eWe4yIyAnDBSMl5h35H7zzTdXWc4zCjK65557KjlrGKLkHSMVIwojnSUkaUcWGbOcBMN+9dVXNwMDGTAzEQ1EwsAwTjt0PMNoLWVe0xFRnmcpGPExkwHEUZ1BChhQ6HPfvn1tCc/222+f3HFmuJP+fCO800OLFi1MrhhfEb4z48L/jCynwWjdYYcdXPfu3W1pVb7ZSpYoIWtknq3PaahHLKUZOHCgLUkjLSxPAsqSpT7U/zj7MiNg6JN22plY14rVlzQ4VrR93KNs8sHMCHFh4EaQVXapWJxx4ZjbCDr56aefJt9yx1IjExwwHLWaQD54L5YBZcUyO8KjvSNNzCwx8s+SPkA/08uOqiKfTPNB24284jJT4HlmLqqCQSfSF6Gu851ZR5iRtpj2EXnyG1LkAXBCs/mgraFMqtJjIYQoV8rO+aDRZw9B+oMBSEOOcbxG8gNTGLwYFVX9qvc222xjMyg33HCDLbugw2QJBkY5nQMdTv/+/St+/yMLBjdxYkBhyLCUgDW+6SUuLAmjk2WUDKOckWuMBxwAYEkXhgZxYghhfDDine10iAejEkOV9xk9I6w4ilkTMLxYlsMZ+VdccYXJiriPOeYYM1gx8vKBccf5+iwzYB06nTq/r9K1a1eT/5FHHmlGM6OaGOvx/pAhQ1y3bt0qrW+fHnA++O0VjBd+E4Nf72YJA+FTFrMS9OLggw+2OHFyGa1kuRHywCFj1gADgrwzikvecYpHjBhhS58whEgj6WepEk4oo8j8Vg1lmU4/xmGnTp2srCkjjEd0h3BxiDG6CkFaqCMsTSQNOAuXXHKJGX/VgXHILB9LGzGQcM4j6AUj79QVnHWWgBEm6/W5VlNYvkSY6Ae6hHxZ1nPeeeeZ0xP3KVC+XMcZJz8MNkRZZiH9yJeZAX7VnTQiN3SRcKKDiq6ypp7lWITL/oQYHjrGzAjGKo4OjjbGJmV19dVXm6NdEygPHGbiIe3ks1h9wQHiB0VpE3AoaCMwStG5fDBogONKnWbpGR/aIwZH0rAcjyVoyJW9NZQ36cEpilCPucZ9ZIcckSczz8ziVrd3DfnjLGG4X3jhhTYTx2g/zi1tHnvD0O8YLnkv1vnIJ9N84HhsueWWFg9tFjLm18zR46rAOeG9+++/39133302S40ztttuu9n9GWmLWa6GE0+ZM9hDGbGULjvIQD2gvcUREkKIuY7QAZY9wXC2k2g4WjMSjC47EYujXqti6tSpdspQ6BTtqMfQAdsJQhyjynG4/1RxUgn3OKWFY0p5h3c7d+5sp+dw3OyUKVMsfI445V4wcCwOTpQJRkRFGJzOxIlLMQxOwgmdpQ+GoD0DHK/J99DxWlr5bQGOcOQ0F+IJzoqdMBQcMTuFK03oTO1IYU5eiQQD3k5einHyPyf1cCpUoTxznZOi0vnldJlgvFTcD8aGD85aJVkGB7Di1KbQyZo8OD40TejI7SQnZBEJBo7ljzPzI7zPb0ugusiCE3o4iYlTgYIRa8/ky28wPC1/nHyThtOUgjGWfJuWeIIOJ4DxuyvESZ423HDDSr93QN6DIWFHbsa8U96k/ffUSTv8fdRRR1kYhMXzvEd4pCUSHAwfjFB7JhgrFhZhBmO14nQl9Jby5oSdCOngZKZgINnz6Ap55pSq4HT6XwqcdgW8GwxSi4/fZYhlFkGGnMIWjCxLD88RB+Ub4f3atWtXKsd8EBc6HZxwC49wyOsee+xRcZoX8FsZ5CHGxRGuwei09/OB7genwZ6NaeR/jnmNcgN0htOmqKfZo4AJOxi11n6QJt7n/+DUVeSLk7CCoV9xshKgm5yMx+/l/Jz6rQ7qKTpBGPGkNq5Xpy+0Ef9v7y7AbS2qP46//u3CxsTuRlFRQQSxQCwUFUREsRW7ALu7u7u7uwu7u7u7Y//ns9hzfO9273PPufey4cLv+zznuee8+33fWbPWmjWzZmbP9X9Y+LzL4P+a6bFjFu+km5aErZRHnjZo3uC0K/c5LrYluXXfSU5ykklLFkr34leHrzgpbKxH/zohrtdvljaoXjmeV0wmA193AlnXv/JbIlD69U73a1+OkXZKVsdpdY6cFUPHLNKpdi/2+D9m4D7+wP+7j5G/JQv1eUscSsZ+amI/7crx3PzFvcpgo5Z81j3YnFjMtk706/Vmq5e85CUld4+j8P+beHc/mS+EEI5JbLX/w/mWxrK5GS9bBMz6maVvncv009Uxo2pG1NYiWx9mZ8BaJ1gzZVZB7BvuW3XG2OJhttqMpFm2ebNoZFNO68xra0jrHKefbBpMr85WeNTZjHnrbKefLsbMu1ljs3Vmr83Uj+mfk9dMn5WjefXZVJRrS51y6LufHHVkYOuDlSKrB23gXfpnO+XO078tFGQjo61KfVvJGKtaVsf4HP31veSz8Buz32au2cVssRN01kL3yTaAKV/hM1sCMtkiSK42gKp2YhZ6UzHbze9tO+Mn/GUsKx91QIItSnSwFnt7psvIVmb6+fd6sRWIbGzKjuo6227Xiu025OETVmg6G/MX1/mKk5U8556N4V6raz2WWP1wcplrY6wgikt0vtqWyH4f/VuRWa09Wxlx0pkVE6to6mYFghzj2MJGTkljVz7NRuuNEYt0Ogsdqrv2tlo88t0Qq0dWpa2mkp19+Jxtb2M2Nxart7ir/bPTGO3d1tz99tuvVpnWEpNDCGFrIslHCKswTj5suwpha0J4P+CAA+YmH0cG4+Rjc49CXzbj5MPxuUcFkvsHPOABtaXLlrIjc2IlhBCOKra673yEEEIIx0Qki46XdtrcljgyOYQQjo5k5SOEVbDtwpeAneRla0gIWxu+1G0rj0MMjmxsLXUMrS/0b852vKMChyz44rgvxI//o8YQQghbliQfIYQQQgghhKWQbVchhBBCCCGEpZDkI4QQQgghhLAUknyEEEIIIYQQlkKSjxBCCCGEEMJSSPIRQgghhBBCWApJPkIIIYQQQghLIclHCCGEEEIIYSkk+QghhBBCCCEshSQfIYQQQgghhKWQ5COEEEIIIYSwFJJ8hBBCCCGEEJZCko8QQgghhBDCUkjyEUIIIYQQQlgKST5CCCGEEEIISyHJRwghhBBCCGEpJPkIIYQQQgghLIUkHyGEEEIIIYSlkOQjhBBCCCGEsBSSfIQQQgghhBCWQpKPrZTvfe97w8te9rLhr3/96/RKCPP50Y9+NLz85S8f/vznP0+vhBBCCCEcNWx1ycdkMhm+/e1vD69//euH173udRv8fOtb35retT7+8Y9/DO9617uGhz3sYcO9733v4aEPfejwzne+s64fHfnjH/847LvvvsOrXvWq6ZXV+cUvfjHc//73H9797ndPr4SjEz//+c+Hs571rMPjHve46ZUtx09/+tPhale72vD2t799OO5xjzu9uhze8IY3VJv6wx/+ML0SwjB89KMfHe5zn/sMP/zhD6dXNo2XvOQlw6Me9ajhL3/5y/RKCFsvz3jGM4ZTn/rU07+OvZgke/jDHz688Y1vHP7zn/9Mrx51rDdefeMb3xgudalLDac85SmHvffee/jsZz87HHTQQcOd7nSno0V9ji5sdckH4xnQXO961xtuetObDgceeODKz4tf/OJ1G9fA/BrXuMaw5557Dk960pNqNeGJT3zisMceewzXvOY1h1//+tfTO48eqN8LXvCC4be//W3Je+ITn3j6yWK+853vDE94whOGN73pTdMr4ejEv//97+FPf/rTkbIy8cxnPnP429/+NjzkIQ8ZTnSiE02vHvmo07Of/ezhsY99bK28hNCRCIuxX/va16ZXFiPePf/5zx/ueMc7brDK+69//asGa495zGOGX/3qV9Or4cjmk5/8ZPW7JjXClkWczur0MPzsZz+riTjtXj9yVLOeeIW3ve1tw6lOdarhC1/4Qk287bzzzjU5fqUrXWn4v//LZqPOcSaWErYiOKMs8nOf+1wNwk94whNOPxmGbbfdtoy+Vn7/+99XguFdT3nKU4arXOUqw0lPetJyGNtU7nWve9W1V77ylWsa5C8DnS55LnrRiw4XvvCFp1dXR1D7+te/PpzhDGcYTn/600+vhqMLP/nJT8qWd7nLXYbDDjtsenXL8JrXvGa44AUvOJz//OcfjnOc40yvLocf//jHw+9+97vhfOc733C84x1vejUc25EsSEjPe97zDic5yUmmV+cj3t/61rce3ve+9w2f+cxnhm222Wb6yRFbT6168K9lr+odWzHBd6tb3Wr42Mc+Vn1Q2HKYILzHPe4x/P3vf59eOXaizRvoWzk405nOtPR+a5b1xCtInsSlc5zjHDWp+N3vfnc42clONpz97GdP8jHiuPe3H2crQq5kOc6gxmDNgPq0pz1t/aw3QZCNPv7xjx8e/OAHVwcn8TjBCU4wnPzkJx8uc5nL1ODpFa94RWWsHGcWiYBOkaOd7nSnW2kktn+ZIbKVRqfovg984APDs571rNouZpuN95GXc9rydfzjH3+DxEnW/JWvfKUcGALS4YcfPrz2ta8dPv/5z9fSnvf2MuhFg/WMBvL0pz+97tUx+/uLX/xi1asv65pRdK/6vfCFLxw+8pGP1Daz7bbbbtWBosDw8Y9/fHjOc55TA1sDgNOc5jQrskt0PvjBD1ZiaFtYl+eMZzxjfU5Ogwi6df1FL3pRdWga+NnOdraqi5kG8ruPfb0fZKZXjVm9O2ZEbSljP3U0e+RvM/226D31qU8tOwkA5BAcnvvc59YqlwSULdh9Ht71/ve/v/zrS1/6Uq0k8D9lss1YV/zgve99b9X91a9+dfmBMj07DqDkd89LX/rSWsplE7M8l73sZYcrXOEK07uOuI+M7POJT3yifOTMZz7zSgCTULK561bBzLgYENAhG0lSJdbuoXe2XTRIY1f6tlrBbvQmUdUB9M/5EFv5+fKXv1x1k/Av6hzomZ27j1qte8973lP27Ak/O/nsLGc5y4psbGKVjiz0yQZ8Qz2h7fucDW2PZAt2Ze8f/OAHtUxukMq3/OjA+BH/5pveqx3Svevu1ZbIZkujevc6qfeHPvShWiGleyiDjp73vOdVWVBG9wVtQlvVvvmLdshXuh93elswi0x29vJOfkaG3lbJ5hq/4wvqTAd00idf6IiPe0Y9zNR5TvvXtsQYduOXX/3qV4dTnOIUG8SsWbyf39vaRC5y9nbcn+Ej/Nh7xSR6pE+wtfggTngPPfbO12qytsEfu/z8W3zsMaX76jve8Y764Ueet4or1vC973//+8Mvf/nL0gOZFsW/7sNjvOctb3lL6ZNeTQDQufgxTyc9xvhsvDWGrGQ/97nPXX+PffzTn/708OQnP7l8wTPiAJ2Rjf/xR7KvFm97TOHr5NSm6Jic+o55MnkvXzCJ1u2x1ljCht1ufM49XX/6CHVTn3Od61zlt2zU/fo3v/nN8OY3v7limX99Ti6+Nk+n0AbYsLdnMUwdxRV1BN/58Ic/XPdpZx1xgjz8Qeyfh35T+/Vu/T07k1ed9FU9TorF7puNk8pUb7ajU+3ZfcrsfRo8xx+9S1mf+tSnSrf03+0rZvb4qX8ns3p2G7CLdmqLD9YjX4932iu5ut07+s5vfvOb5fPa7Fvf+tbSM/su0h34hZikfPLTG5m9j2wG5d7R7att01P3a7YT6+me7/mM34r344njMerI93wuRv3zn/+s8RNbag/0y5f7mKGv6PcxDf+jY/5M3t7/+lwf1scc4qAYrT7kVAadizVW7NX3Epe4RMXC2XilbRmnaCfiMbn4ps/FXfGQzrRz76OjcSKljmKQtkZeMZJeej92rKApYauiGXZy05vedLLjjjtOmsGnVzeNW9ziFpPWiU2aE06vbEgL7JM2KJ08/OEPn17ZkOaUkxaEJ7e85S1LLjQHnzzwgQ+cNIeetMZR19pAZdKcfLLTTjuV7M0JJ60B1GetkZUMj3rUo+pveMcBBxwwaR3a9MoR72iOPWmDmMm1r33tSRvQTVoHMnna055Wn7fGM7nb3e42Oc95zjO55CUvOWkd6aRl6pPWcU9aojJpwWnyoAc9qO5FazCTFtxLLve3TmLSAtrkxje+8aQ18uldG0KuNsgtnbQOZXKhC11o0gLMpA14p3dMJne9613rPep/8YtfvGRswW3SBj31eQskJX8bZNfnLUhOznnOc05ao5zc+c53ntz97ncvuS5wgQtMWlCud3c7t8Aw2X333SctMay/O60RV/1aUKq/e32vf/3rV/28iwytUU9aAJy0IFI/LSBUuS3Y13PzaAFs0gJgyeYdbNKCWdX70EMPLZ2A/W9+85tX3VsAmWy//falJ3ptA9S6B62DmrSAWXW74AUvWPKxmX/H9mnBq2xIPwcddNDk0pe+dNm/DdhXyrznPe85udjFLjbZbbfd6j6ytQ5s8rjHPa707u+99tqr6kmulmivPDsLX6cfcqtHG+hN7nWve00/nUzaoKD8lMy3ve1ty+/VrSWD0zv+F/Lx9TZwr7/bwL/KuMlNbjJpA8SyLTu51gYrdQ+8n+6ue93rTq5zneuUbno5fHPPPfcsu/EbulS3e9/73vV5G9iV/9BJ63hKB3TGPupDh3xI+1I23bdBUunlUpe6VMnUBjX1LnTfOvjgg+vvn//855M2oK130xM/putxjHjCE55Q9rjKVa5S9/G11tlNP/0v47bgnW1AU/rlG/5uA9m677Of/Wy1N21K3S9ykYtU/ffdd996B/gpvxQD1F896FnbEXfUuyW3k6tf/eqlT/e0AVA9O4t3HnjggWWD1vlWmXyfzVoHXfe0QXTJQ//0sMMOO0yuda1r1Wdi0Q1veMN6fp999plc85rXLD/g+2Aj72oJTf3NL8jD95TLtx7xiEdMWnJYPqab8qPO2h1fxP7771/xUBxeLf7N0gZsFT/JwBeueMUr1nvpqSVx07s2pA0+yv/F9jFtkFJ263QfF0fpTPv0N12J4b2dshW/aQOP6ZPzueMd71j3sZt3kpkdxcI20Cv9X/nKV17xA7RBU/ms+IT1xJJrXOMaZQv+R99ifEsq6p4rXelKK7bo9njoQx9an/FVcvV22eO3urYBf90zD7ZjL234/Oc/f93v3f5lf7RB2eTCF75wyTbmYx/7WPlyS1ymV/6Xhz3sYWVb9VcX5bA51hIn22C9bEdv7Khe3qddd/9FG8iX73mffq0lOCVbSwzq85Y8lS/zV+MFsnjfG97whvocytVmOuuRj2/wT21nPJbosKGyxZGrXvWq1YfSs99bsjq9a0O0E/2AcrVxdqI7ba0l45Ndd921YpffOy15qnqJqeixi++JA90vxn3LLOzNr3vMJTsdiC/qqu364Wu3vvWt6x7we3pnh1vd6lblM/qQXj99Ixtol2INffm7JVgrZYh12o7YIabpC2bjFcRW9aBTOvK7WLCW2AlltgRsxV/ER/XZY489NtDnMZmtNvkQvK93vetVJ3eXu9ylBk8axXoQTDlAHxzNIjHgOHe4wx2mVzZE4OR8kphx8vGABzygBqySD4MlDVSj7Y2gZc31LHoZj3zkI+tveIeOVSDpGAR9/OMfX3mHYC+AaMwaq7ob+GsEu+yySwV873HdYFyH0jtOnZaGaYDyzW9+s655Bz0Kbq997Wvr2iwGXuorYPWBkXJe8YpX1O/ve9/7qhwd5h//+Mcq34CDnAZgP/rRj6pxCkICuEGm97jXOzVYHaNkkD4lVq698Y1vrPfrcA0qDRLH0I1A8pznPKf+7vVV5lvf+tYq8/DDD69rAiE9KFNw1eH6WQRZ2MdzEih1IrMg4Tr7uWYQIcDo7Az4XPviF79YnTgb8QV1us1tblODFbpyjyAtqOoIevKhngYbglLvuF2TTHlfHxzf4x73KHtf7WpXK5nYupfLV7pPKlsdZzuKMWwvaWIj8DN+AoHZgFcg7deUd/nLX75sy3fmQT6dTm9fgq96qoPfyWsArCNXNxj88Xvy9Pro2MntdwMmen72s59ddnWPDp4+wWeUIfAbIHvGPV/5ylcqZhx22GErAzUdgDpLLOnqkEMOKZt++tOfrs/BrnxQsk4GyZAE4Xvf+159zi46Zp1ln2wwONCO+CofU76fWXpb0OnozLQvcrzyla+sgYtE3HPeq/yuZzFFzKGH3n75qTZA/te//vVVb+9ShgFKlxfeZYDw6Ec/enplQ5T5oQ99qN7pPZDcGMD1iRZtbZwUuq/b2UBdp94nRnzGhl3vrnuWnl27wQ1uUIOBPumh/fQBL3/QmRvQaiu9bcGAi9578rEo/s3CjhKY3o7UxwSE+MBP5qFO9C22j3nMYx5TsaHTfdxA2oBT+QaY5NLun/rUp1bbYg+DOj6yCImMZ5785CfXM+pD3/xYcgZ9E7kMvDrPeMYzalBDlvXEEn4ooWVHcj/zmc8s33/BC15Q95DBBI/yxFO2oTs/2hA9vO51r6u/PW9CwbX99ttvxfZj3GeA2Z/zjGv8Vb1vdrOb1XP83mBdzB0j+ZBE9f5hFn2P9r333ntXvKI/eu8D/rXESXWgy8td7nLVBqBcMYu/gYx9TMJmyqEbckmg6FMfQH59P5SlH+OrndnkY63yeUZ/3uNdv38Mm0sM+riDzPe73/1W2uE82F+d+qSBZ3r/oHyy77zzziuyQGwhT08+yEwnykfv6w3YuyyzsLfk4va3v339LRboE7RPOhID+nu0oY64wjfpDeQVd+jEO+hIOzBecE1fZhKYjL0M/qQfJi89um8cr0Dn4uyDH/zguk85+p/3vOc95cMbi518QKIu2ZGcuY8OxRLlm7zqzx6T2eo2oLUAObQMfGhOVL/bwmSpsTlinXzSjD+9c+M0B64lrhZcplc2pDWiWhJtzj69sn483xpELXs3py/5WiOqpej10Ab9tRXM+1rjrH9b8lDLrmP5vLs1llq+ox/3zWIJuzWIoXWkK9sFWmOq79K0RlZLgPOwfGoJsQ18VpbilbPPPvtUvWwn2Gabbeq9bSBU5bcgUidzsVMLYvUMWsdXW4W8x71OhSCrL5H6fkIbvA1tUF6ftWAyfWp9tM5raB1vLf/ar2nZc4cddqhlbe9tgXW44hWvWDpcDXLd9773LRnVicxt4FNLtJbPW/Cp5dMWCIeWUJUO3deC3dAGpqXrFozqftt02kB+2HHHHeueNjivvb701mkdZW3ZuPKVr1y+0wYI9eyuu+5a+vd7pwWr+jI5mcjZy+UraJ3gih28d1H70A74le18bZBRbaINIOszy+uuqxu7kMc7yWd5mUxrxfN02TrQkrcNKmpp25aA/rl2x9f4DFrgLvno2XaBNuAsn2NX72gDg7Jjh+x2k7YBa8npHltW1KsNdEsn6tAGOOX/tpF4t1PB6Hbs/7ZBsFHr9Gubgm0Du+++e+m724UsbYBRp5p0Wmyt/dt8TPl+FqEtWL7fdtttq/7Xve51Sy7L+tq2bSJ0za/8rUzy+Ld14NO3HFHm/vvvP+y1115Vb++iI4dnsL/6i3naAR2TeR5k3WmnnUqu1lmWX4hX6uKZ1jGubC/QNnv8sUUC9K9c20hap16ysKFrs/hM7GFrbYQd1JNtoBz1cJ+20NvWItYS//gSW7u3dfrlD/qTlvzUtpHNhbxiTEvOq/xLX/rS5S/scpvb3Kb0w4f5rS1886Bj29A8x7/o2FaP85znPLXlyfYkiJHs0H1W+7bdTAzVrtYTS9jPdhP/ktu7ld/bJrn9gF28T13psA0664Qf8dY1z++5555VbhuszfU113rffe1rX7ue8axtzmT3vRLv3lRsMVJftlAP/kDvvueJtcZJcomx2gPEb/eJB1APJ/upry8Xd19lb9uL6E/f72AbdiWTtqDetgktYq3yafct+asxgnvocBb2Erf0M3TKn2zz9Z5FcUAd3Kcde4bM+rj1IHbRCb9RB/Xn9+rAn9cDfTl4QgzQf+uDx/FPHcUPW7a0ZfKKO3RCz370x11P+jfvIGPH2NKJp+O4M0Zbsw1NG3F6lfuUo//Zbbfdylc2Fjtt56JT353q41gxyfhru+22q7ivHsd0trrkg3FbRlyDAnsh7fn85Cc/WYNKe/vX49DdWTnJPHTWnIWjbyoc0+lc3sUpDX7sn14vgoR9kwKaxisoGfAKPH46ZDVYWg2dPGfviUdHgBZwfvKTn0yvbIggqkHOPgeN3QBVpz+bWAmY5O+DFPQOqiMA+Ju+OmQ0SBKsN4VxEBb8vG82MCt3LQ191gcECbLyN/5DZwaP5B1jn7p6/fSnP61yBEsd4LieZBvLpVMTqF/4whdWktJ/dIDK4pMduibLGJ/zDcFaB8NfDE7GfjKLE2x0lNe5znWqc9auejn2/fJf7W4sj0Eeu48HMGthbHe/6xB7G9QmdaT2N5Pb77/61RGnGbmHbvj3rJ7H0O1sJ2kAxv8M7Lv8OkVtUceqrttvv311+L4XoV5sJVE3MNJ56DBdt994rAffF3N9HHvIQJ9rQV3G/sAX2FT5ZGM38t/oRjcqnSiTL5B5bFO6VIexfuEdD3zgAyvh86xBpU5xNX9QH0mxQapndtlll9r33J+R0Pi53e1uV52ufct8BOqtA7fn2bN+7zacRV0lo/RLPrr2HYexj6+HtcQ/mAwyEOEDZORnGA/qNoexDfh0H6SMEXvoeR6ui7fiSrdb/zG4kkTCQFjMNfiHiQ6TBXySLtYTS8g8lpu8fnrbXAS7SzLF+dk6GoSR1eez8Ak+foELXGB65Qi8gw/5bHMGYSYwxBZyzUPd1xInDQ7H9aIj9uy6k7Bq+xK+efheBB3S+dgGvnu2yP5Yq3zakMm12YHyGM/wDRNykmLl8xH6XeTz+gKJoAkN/0oUN+YLsyjXhI2Jux67jNOw3jY+23ePJ+wgHhkXGcRLtMTxXoZ2xG4Sj9UQd2fLGcPXJZImcEyazGNjsdN3DcliEmGMcUBPUrZUHDo6s2EvtRWiwQlUMk9BYD3BStA2sF2UsJgZ4myzTjLLbDCYxSylQYwVAzPFZoPMxK4HX3A1+IDGdcghh9SM2nohqwBCb+OOZsxsB9JZLfB4r4a+WgDclM9We2a9zHvX5rxfnbsO1X2RPtF16hk/q5Xb7+Enhx566MqPs88N6PqKxDzIISm4yU1uUoOP7iuzHfwsZlQNWpQj+JkZfvzjH1+fCYQGyPx3LM+jH/3o+kJdnxHcUpCZLIK3gb6JBbNFWG+H1eG79OGQii6/k8Ws1lmBk5j6/Ja3vGWtZlnFsMoiNqg327IJxJqxHgzsHdzAXlsKZSnTjy+v6kwNmMUAp/BJINbiuwZ+On5f7hcvzNYdfPDBVd9FiKHukxQYUEk673nPe24wqLcyYfKH/kxY0Jv7QOY73OEO9WVos+HucWrgoll+ybjJJGUYqEl+fan0yELnb6AiwTVTr9z99ttv+umWh53WG3vYX7uj87Gv+aFPP5DA8AXtxQDLDDzbmqTC5sSSRXLP0stYFP+6H8+ifht7bi3lz8N7+fGi5zc1Ts6j12O1smAFa2wDOzXYYB5bUj7wDT7BTyT4VmUPPPDAhX09tGvxV+wwMCaDuDCebFLv1VCe/xZBoimJ6SeIHhlY5RBzrN6Ry6rG3e52t/KDPubZXLyXbRa9ay2xsycWi96xWvJzTGLxaGkrgkP0ZcH1OJilXTOAZkjmYaWBo8nY56EsjqIxjhvh7Eyw+8y+mPkwqJF9P+hBD6rPPO/z8TPKnH2HpT7JktkHgwcN2WzHelGW2Xj66svpHTNNZocNBuZhVkAjHm+f6ghOZpvN8M+uVLifbWxz2BzIrpxZ3fSZ6yOT2cTL7IdrOn82NGNhlrHP/nYMGPlGXykxW6IjGL/P72P5vdPSMn3asiaI9h+zUavN+pt10aGZwe++4h2LZv/GmEkSrM1UmWkzMwf+Sj5JwFgWPwaKZgG3JOysbSpfkm5bnJldejZY8vd6Jhlgexc9G4TN1kH77gMgAzk20ukq38SBZ0E//M+s1+w7dLCb6t+zvktOpyhZSeMHTgIye21rlo7MgMSMGj1tDH76gQ98oDpBs3ESKYOP1XxIWRIvujDINUN6wxvesFZGx3gHWWwTsHIgGemwlVUFM+4+N/PHHxehrlZIbLXx3P3ud7/pJ/9lHGM3BwmzRIiNJY4HHHBArd6shvrwEbFmTF+B2NLQrZihTMnjrL9piyCX7RviNv06Gcx2XPrE5sSSeXSfG9tCm+D74vw4rsGqqTbbt+SNkcBqa7Nbj7xDgiimko8OxM7xyjn8vcgnyKl/1Bfpk2bZnDg5i3ahHk4ym4dBMTs58nysfz+2as1jS8oHyT2fd1qXbWhWuiUBPe4tQr2slhjUa+PiAZvSL5vo78Y2mG0fTnvTP1iFuOtd71rxwlajIwtliXHkNVHjv0zQRrUHg36TG5sDXzcO41PzVq3WEju7LLP+ok+TpGmrdHtMZ6tLPsxEfvCDH1wZ5Om4Zdf2lZoV0Fig89Zo7H9dhC0YgrMZBe/sgwBOJXt+0YteVDN6lrbnwRE5kplJAyLP9yMDO5zRNY1SgxVMNZA+82jbjMDdjxTllAYZ9quOESR8JjBr7ALAeG/6erAMKCBKgAR5COQChQZgNnAeZk51CL6X0Ttdg2uzKH0govFIsnoQYgdH+/W9ypsDfbOFMgVTerCFTJCZ7Zi2JOxqJoMdoY4GpjpVg2Ry9ZldtqNDsklqBXvbJvgmuwu8Vr/MrsNedwFqnLDpqN3Pp7t90AOWfxfBx/yM7/HMxr43Y2WO/3mWnAYs/oXBuYBo++B4f7AkkB8uGgBsCnSrPYPPk6MPPujZqoP62I6gjn783pfyF6Ez8B73jRMX20F0SL0O/NvWJQNp+3K1BTqBTsdn2qYtDGP4+WwSsVb4sC1AfS83H+LjOq1efzJ0ua3wmuFeS3lddvHS7+op1qylvfSBhR/HeY47bjFPEg22MTvbO0wJD92Rz6BLTFYHM6mziLX8nP+Tj43VucdH17xb3KefLQFZ1In/ej8ZTDSthoEy+xtY9L3+BodW/44M6FJSpL1Zgez9HVwbf0/NDKu96uK32KJf60nF5sSSefQtkmzc2wx72e7CJ/q2ILbX95o0MMOun51FEm9LkeTUj2f8aF+2GWp7/MCPCQB141fdH/XvY73M0pNsCab+ynNWUP3N7n7G9V9LnJyHeojx2qTkWTnK8x/lifNWhvW3kt2xD9PjvIk8bEn50GNIH4doTyY0x7FwDDsYwNv94X7tUvvtcdi/EiEyiV9QVxMIY5SrDj3+8MGNtbVNRb8hNnZ5+SU5/S2JYyffo+orsBIIYxe+vFb40/Wvf/3SS2+XdKVs+uqsFjtNDvg+Iln0I+4RgxyPLqbamt9j6TGaVvGtCqeOtIZcR645rao5VZ0kcpaznKVOGeg4YrENnlZOTFiEkxhaI6rTl7yrDW7q/S3g1SlEf1pwkg+a002aw1Q5rWOqE3bagLROZyFfG0hNmpPWiQxOa9lnn33qFJQWwFeOnm0BqE61aY2lTm5xqgd52oC0TkPotI6uTlxoA8HJ7W53uzqZocvaOqM6ZcFRk/Tg5IYxTn9S5vgo1xZ46vQI8u6222511FsbJNRpLt41D7K24FL1df/OO+9cMnkenmuJQOmS7D6nRzK1xln3tGBXx4s6tWOM006U7/SoTgvUVc74WL4WKOp9ZLjsZS9bR+s5Qco1dcK8+raBddnHyVBjWqJUtlpEC6x1ipBjBluiWKc7neEMZyhZW/CY3nXECR2tIy1fbJ1NnUjSgnUd+0eeTuug63nys+UpT3nK8mP3kaXTAlnJpWzHBfIdJ4S05KVO+gC90A/7d9jAiSDdLk5iohvyO91skT/vsccepcu999679Eq+fowmHBVLp3x53333LRvyeWW0wDm9a0Nm5dPW+EY/Ha2jzJZU1u8tYauTbsirzsqgB9fROpeyAT3TBZuyRT8t7ulzjkVE6wzq+EX+SA9O4HEUrjo5Aav7vDb9tKc9rd7v3l5uhz+c4xznKP06qcpJTWynXfMxOK2E/sYnEM1DW/AOeteetfsddtihynaSTBso1H1OFnKPMpwk57QtJ42JGf20qdaJVV2cUDOGr/AvbV1c2muvverkHT7ohKN50NVBBx1UdVQ/P9ttt10dP8nuPhdrfM5v6LF1ynViF5yWxwZkZFvtRptoA4/6fGwjbVws4CfszZ7e64SnjthAn/zYqVhtIF3XlccWv5uedrUo/s3SBgIVn+iUT/D3XXfdtU72cULUIshNDrLyT77Jx8fxY56PqyO56HSMOC7mr4YjoemWXzgBUXtjy1k78/82yCrZ1G/MpsYSeiT3IYccMr0yqdOi1Fu/IX71U7f0y/yD77Khk5zoSh/APovwPr6hjjvuuGP5QktYq5701tEGlCleeifbOelLrOj+MI873elOZQ9+wh+1afVfa5x08hZfdXJZpyXuFYPEwY62ro14n36ZfvmTeA/+QFZya09OzdN3O0Gw0+MGNke+ebRBbcUpNqY3p0qKMWJGS6ind/0XsUn9yCxGiSFk44PaP7QV9lA+ffBL4xb1bgP7usfJYOxmXHPwwQdX7BKD+GNLvOqeWdRNuxDrwA+1V2OLMW9605vKpzvaFxnIu/vuu5fubnGLW6zIa8ylvmSmUzIYl333u99dWAZm+xT9nZjH1/VbfJb/stdaYife+9731omo+i52EP+9wwmgxlnHBra6/+HcbIEM20qFjLsZuWZdzDyYne2YxTXzLDu3fL0I1ZeNm1GRvZoRdL/95rZcNKeb3jmf5ky1rcHMktkx2y+aU9c2A/udzfzJbs2Y2eZkBsRWlRaga1YAsl6nl5jNV7Z3KFd27R39HvLZhtKCaWXHLZDUjGsLSHXN72bSLcn7u2O2w0yS7VRdF2Y8zAKZcTJ74TP7/M3Mj5+dhRxObFIfv1tFMRvdgmp9bkbF7I9ZADbwPltdbN0BfbMbmcjdaY2/lt/ppeucrc2mtc5ug61gvnBpj72yLFuzvVkxZdD9vPq2YF5+Y0bELEjHjAT722Y0D7az4tM695p9M8veOrDaP8vvxrqybc0+ctuWzKraGsOPWqdRsy9Qf6sFvsNjBpP+7OdnA77h3n6fGRnbKMx2kZs/+rKg7QR8h73NwtKjzzvsQg6+YmWtdba1umZWiD345Cxm4PiCbYGeMetIfnUFW9AFefzbgnj5Gb3Rc6/fmFn52Mv76dEKQ8f7+Ir72Imf8y+rILYq0DXb9jLoTXtxSpU25xQZftOCd5WnnVmhMGM+hk08ow5mjs0KOwRCG+O//f1mLcUO7/PesW5h5ox/80124E/s4l/vMHvFnuqzWvygU1tq6InurbbwDfL4TgJ/AJ1oG3yGj4kf6udaryef9+X51oGuPNfpKyViHPt7np7aoGClXc5iJYKerJJ4p9k+NoKZdLbxmVk9debn4oDtBfQsBqiT95jpY8PeFsc2ap1vrfK4Vxsmk7rzva53scoMuhirffs+Cf+hK++n594e5sW/ebCPLRlmP8neBiP1Pv7Gt+dBDnYnq3pqV2Iw/+3xY56Ps7N4pG5WgDtkYJvVvrvXBmLls/oG94qFfJZ+tOmO+ClOkMvqcO9bsKmxpMdf+9Vt1YVZXvFfHPReW1zUFXRJTvJ6B38gq3rPiw/wDjG4/+eF+nO2IJu6dJRLFqsp+lztRtuka/4oDsyDz/JRddeO9EVWct2/ljhppUI/SV9d32Thq2S16tSvsScf1b/xIzFU2/Ee9XSd7/Azfk/XZOltsMcN2w6xqfLNQ/nGJGIIfVup1+/wB3WYpz9xlj3pTyxkF188JzvUmf69k69YXdbWyaMNeobO+T67iQvs5h660P5bQlPvGuO9DhHS1unGu8U27bLrG73ufAzaPjuLc9q/VTVjg94PkEVct4OBr+u/+YNxo8/mlYF5fYr+Qx9lm7L63P3udy9ben5jsVNbUEcH9PAHcVzMJi+f4FfHBra65COEZdKTD9srbMELYUsxTj4MZkIIIWwdiN+2/knSTO7MS6TCYra673yEEEIIIYRwVGCVSsJhJdrkkdW4sD6SfISwCpayLYOPt32FsCWw/G77xGrbbkIIIRy9sIXNYTK2xjmwaGPb88P/km1XIYQQQgghhKWQlY8QQgghhBDCUkjyEUIIIYQQQlgKST5CCCGEEEIISyHJRwghhBBCCGEpJPkIIYQQQgghLIUkHyGEEEIIIYSlkOQjhBBCCCGEsBSSfIQQQgghhBCWQpKPEEIIIYQQwlJI8hFCCCGEEEJYCkk+QgghhBBCCEshyUcIIYQQQghhKST5CCGEEEIIISyFJB8hhBBCCCGEpZDkI4QQQgghhLAUknyEEEIIIYQQlkKSjxBCCCGEEMJSSPIRQgghhBBCWApJPkIIIYQQQghLIclHCCGEEEIIYSkk+QghhBBCCCEshSQfIYQQQgghhKWQ5COEEEIIIYSwFJJ8hBBCCCGEEJZCko8QQgghhBDCUkjyEUIIIYQQQlgKST5CCCGEEEIISyHJRwghhBBCCGEpJPkIIYQQQgghLIUkHyGEEEIIIYSlkOQjhBBCCCGEsBSSfIQQQgghhBCWQpKPEEIIIYQQwlJI8hFCCCGEEEJYCkk+QgghhBBCCEshyUcIIYQQQghhKST5CCGEEEIIISyFJB8hhBBCCCGEpZDkI4QQQgghhLAUknyEEEIIIYQQlkKSjxBCCCGEEMJSSPIRQgghhBBCWApJPkIIIYQQQghLIclHCCGEEEIIYSkk+QghhBBCCCEshSQfIYQQQgghhKWQ5COEEEIIIYSwFJJ8hBBCCCGEEJZCko8QQgghhBDCUkjyEUIIIYQQQlgKST5CCCGEEEIISyHJRwghhBBCCGEpJPkIIYQQQgghLIUkHyGEEEIIIYSlkOQjhBBCCCGEsBSSfIQQQgghhBCWQpKPEEIIIYQQwlJI8hFCCCGEEEJYCkk+QgghhBBCCEshyUcIIYQQQghhCQzD/wOh5eLCZXfY1QAAAABJRU5ErkJggg==;" parent="1" vertex="1">
          <mxGeometry x="-850" y="460" width="799" height="450" as="geometry" />
        </mxCell>
        <mxCell id="PURfVQADF6VqzF4Mbli_-10" style="edgeStyle=orthogonalEdgeStyle;rounded=0;orthogonalLoop=1;jettySize=auto;html=1;entryX=0;entryY=0.5;entryDx=0;entryDy=0;endArrow=none;endFill=0;" parent="1" source="PURfVQADF6VqzF4Mbli_-2" target="PURfVQADF6VqzF4Mbli_-9" edge="1">
          <mxGeometry relative="1" as="geometry" />
        </mxCell>
        <mxCell id="PURfVQADF6VqzF4Mbli_-2" value="UsuÃ¡rio" style="rounded=0;whiteSpace=wrap;html=1;" parent="1" vertex="1">
          <mxGeometry x="-630" y="960" width="120" height="60" as="geometry" />
        </mxCell>
        <mxCell id="PURfVQADF6VqzF4Mbli_-3" value="TipoDeUsuÃ¡rio" style="rounded=0;whiteSpace=wrap;html=1;" parent="1" vertex="1">
          <mxGeometry x="-260" y="960" width="120" height="60" as="geometry" />
        </mxCell>
        <mxCell id="PURfVQADF6VqzF4Mbli_-4" value="TipoDeEventos" style="rounded=0;whiteSpace=wrap;html=1;" parent="1" vertex="1">
          <mxGeometry x="-260" y="1380" width="120" height="60" as="geometry" />
        </mxCell>
        <mxCell id="PURfVQADF6VqzF4Mbli_-5" value="Eventos" style="rounded=0;whiteSpace=wrap;html=1;" parent="1" vertex="1">
          <mxGeometry x="-630" y="1380" width="120" height="60" as="geometry" />
        </mxCell>
        <mxCell id="PURfVQADF6VqzF4Mbli_-6" value="InscricaoEvento" style="rounded=0;whiteSpace=wrap;html=1;" parent="1" vertex="1">
          <mxGeometry x="-830" y="1160" width="120" height="60" as="geometry" />
        </mxCell>
        <mxCell id="PURfVQADF6VqzF4Mbli_-28" value="" style="edgeStyle=orthogonalEdgeStyle;rounded=0;orthogonalLoop=1;jettySize=auto;html=1;endArrow=none;endFill=0;" parent="1" source="PURfVQADF6VqzF4Mbli_-7" target="PURfVQADF6VqzF4Mbli_-27" edge="1">
          <mxGeometry relative="1" as="geometry" />
        </mxCell>
        <mxCell id="PURfVQADF6VqzF4Mbli_-7" value="Comentario" style="rounded=0;whiteSpace=wrap;html=1;" parent="1" vertex="1">
          <mxGeometry x="-630" y="1160" width="120" height="60" as="geometry" />
        </mxCell>
        <mxCell id="PURfVQADF6VqzF4Mbli_-31" value="" style="edgeStyle=orthogonalEdgeStyle;rounded=0;orthogonalLoop=1;jettySize=auto;html=1;endArrow=none;endFill=0;" parent="1" source="PURfVQADF6VqzF4Mbli_-8" target="PURfVQADF6VqzF4Mbli_-30" edge="1">
          <mxGeometry relative="1" as="geometry" />
        </mxCell>
        <mxCell id="PURfVQADF6VqzF4Mbli_-8" value="Instituicao" style="rounded=0;whiteSpace=wrap;html=1;" parent="1" vertex="1">
          <mxGeometry x="-630" y="1610" width="120" height="60" as="geometry" />
        </mxCell>
        <mxCell id="PURfVQADF6VqzF4Mbli_-11" style="edgeStyle=orthogonalEdgeStyle;rounded=0;orthogonalLoop=1;jettySize=auto;html=1;entryX=0;entryY=0.5;entryDx=0;entryDy=0;endArrow=none;endFill=0;" parent="1" source="PURfVQADF6VqzF4Mbli_-9" target="PURfVQADF6VqzF4Mbli_-3" edge="1">
          <mxGeometry relative="1" as="geometry" />
        </mxCell>
        <mxCell id="PURfVQADF6VqzF4Mbli_-9" value="possui" style="rhombus;whiteSpace=wrap;html=1;" parent="1" vertex="1">
          <mxGeometry x="-420" y="950" width="80" height="80" as="geometry" />
        </mxCell>
        <mxCell id="PURfVQADF6VqzF4Mbli_-15" style="edgeStyle=orthogonalEdgeStyle;rounded=0;orthogonalLoop=1;jettySize=auto;html=1;entryX=0.5;entryY=0;entryDx=0;entryDy=0;endArrow=none;endFill=0;" parent="1" source="PURfVQADF6VqzF4Mbli_-12" target="PURfVQADF6VqzF4Mbli_-6" edge="1">
          <mxGeometry relative="1" as="geometry" />
        </mxCell>
        <mxCell id="PURfVQADF6VqzF4Mbli_-19" style="edgeStyle=orthogonalEdgeStyle;rounded=0;orthogonalLoop=1;jettySize=auto;html=1;entryX=0;entryY=0.5;entryDx=0;entryDy=0;endArrow=none;endFill=0;" parent="1" source="PURfVQADF6VqzF4Mbli_-12" target="PURfVQADF6VqzF4Mbli_-2" edge="1">
          <mxGeometry relative="1" as="geometry" />
        </mxCell>
        <mxCell id="PURfVQADF6VqzF4Mbli_-12" value="possui" style="rhombus;whiteSpace=wrap;html=1;" parent="1" vertex="1">
          <mxGeometry x="-810" y="950" width="80" height="80" as="geometry" />
        </mxCell>
        <mxCell id="PURfVQADF6VqzF4Mbli_-17" style="edgeStyle=orthogonalEdgeStyle;rounded=0;orthogonalLoop=1;jettySize=auto;html=1;endArrow=none;endFill=0;" parent="1" source="PURfVQADF6VqzF4Mbli_-13" target="PURfVQADF6VqzF4Mbli_-5" edge="1">
          <mxGeometry relative="1" as="geometry" />
        </mxCell>
        <mxCell id="PURfVQADF6VqzF4Mbli_-18" style="edgeStyle=orthogonalEdgeStyle;rounded=0;orthogonalLoop=1;jettySize=auto;html=1;entryX=0.5;entryY=1;entryDx=0;entryDy=0;endArrow=none;endFill=0;" parent="1" source="PURfVQADF6VqzF4Mbli_-13" target="PURfVQADF6VqzF4Mbli_-6" edge="1">
          <mxGeometry relative="1" as="geometry" />
        </mxCell>
        <mxCell id="PURfVQADF6VqzF4Mbli_-13" value="possui" style="rhombus;whiteSpace=wrap;html=1;" parent="1" vertex="1">
          <mxGeometry x="-810" y="1370" width="80" height="80" as="geometry" />
        </mxCell>
        <mxCell id="PURfVQADF6VqzF4Mbli_-21" style="edgeStyle=orthogonalEdgeStyle;rounded=0;orthogonalLoop=1;jettySize=auto;html=1;entryX=1;entryY=0.5;entryDx=0;entryDy=0;endArrow=none;endFill=0;" parent="1" source="PURfVQADF6VqzF4Mbli_-20" target="PURfVQADF6VqzF4Mbli_-5" edge="1">
          <mxGeometry relative="1" as="geometry" />
        </mxCell>
        <mxCell id="PURfVQADF6VqzF4Mbli_-22" style="edgeStyle=orthogonalEdgeStyle;rounded=0;orthogonalLoop=1;jettySize=auto;html=1;entryX=0;entryY=0.5;entryDx=0;entryDy=0;endArrow=none;endFill=0;" parent="1" source="PURfVQADF6VqzF4Mbli_-20" target="PURfVQADF6VqzF4Mbli_-4" edge="1">
          <mxGeometry relative="1" as="geometry" />
        </mxCell>
        <mxCell id="PURfVQADF6VqzF4Mbli_-20" value="possui" style="rhombus;whiteSpace=wrap;html=1;" parent="1" vertex="1">
          <mxGeometry x="-420" y="1370" width="80" height="80" as="geometry" />
        </mxCell>
        <mxCell id="PURfVQADF6VqzF4Mbli_-24" value="" style="edgeStyle=orthogonalEdgeStyle;rounded=0;orthogonalLoop=1;jettySize=auto;html=1;endArrow=none;endFill=0;" parent="1" source="PURfVQADF6VqzF4Mbli_-23" target="PURfVQADF6VqzF4Mbli_-7" edge="1">
          <mxGeometry relative="1" as="geometry" />
        </mxCell>
        <mxCell id="PURfVQADF6VqzF4Mbli_-25" value="" style="edgeStyle=orthogonalEdgeStyle;rounded=0;orthogonalLoop=1;jettySize=auto;html=1;endArrow=none;endFill=0;" parent="1" source="PURfVQADF6VqzF4Mbli_-23" target="PURfVQADF6VqzF4Mbli_-2" edge="1">
          <mxGeometry relative="1" as="geometry" />
        </mxCell>
        <mxCell id="PURfVQADF6VqzF4Mbli_-23" value="possui" style="rhombus;whiteSpace=wrap;html=1;" parent="1" vertex="1">
          <mxGeometry x="-610" y="1050" width="80" height="80" as="geometry" />
        </mxCell>
        <mxCell id="PURfVQADF6VqzF4Mbli_-29" value="" style="edgeStyle=orthogonalEdgeStyle;rounded=0;orthogonalLoop=1;jettySize=auto;html=1;endArrow=none;endFill=0;" parent="1" source="PURfVQADF6VqzF4Mbli_-27" target="PURfVQADF6VqzF4Mbli_-5" edge="1">
          <mxGeometry relative="1" as="geometry" />
        </mxCell>
        <mxCell id="PURfVQADF6VqzF4Mbli_-27" value="possui" style="rhombus;whiteSpace=wrap;html=1;" parent="1" vertex="1">
          <mxGeometry x="-610" y="1260" width="80" height="80" as="geometry" />
        </mxCell>
        <mxCell id="PURfVQADF6VqzF4Mbli_-32" value="" style="edgeStyle=orthogonalEdgeStyle;rounded=0;orthogonalLoop=1;jettySize=auto;html=1;endArrow=none;endFill=0;" parent="1" source="PURfVQADF6VqzF4Mbli_-30" target="PURfVQADF6VqzF4Mbli_-5" edge="1">
          <mxGeometry relative="1" as="geometry" />
        </mxCell>
        <mxCell id="PURfVQADF6VqzF4Mbli_-30" value="possui" style="rhombus;whiteSpace=wrap;html=1;" parent="1" vertex="1">
          <mxGeometry x="-610" y="1480" width="80" height="80" as="geometry" />
        </mxCell>
        <mxCell id="PURfVQADF6VqzF4Mbli_-33" value="N" style="text;html=1;align=center;verticalAlign=middle;resizable=0;points=[];autosize=1;strokeColor=none;fillColor=none;" parent="1" vertex="1">
          <mxGeometry x="-510" y="960" width="30" height="30" as="geometry" />
        </mxCell>
        <mxCell id="PURfVQADF6VqzF4Mbli_-34" value="1" style="text;html=1;align=center;verticalAlign=middle;resizable=0;points=[];autosize=1;strokeColor=none;fillColor=none;" parent="1" vertex="1">
          <mxGeometry x="-290" y="960" width="30" height="30" as="geometry" />
        </mxCell>
        <mxCell id="PURfVQADF6VqzF4Mbli_-35" value="N" style="text;html=1;align=center;verticalAlign=middle;resizable=0;points=[];autosize=1;strokeColor=none;fillColor=none;" parent="1" vertex="1">
          <mxGeometry x="-770" y="1130" width="30" height="30" as="geometry" />
        </mxCell>
        <mxCell id="PURfVQADF6VqzF4Mbli_-36" value="1" style="text;html=1;align=center;verticalAlign=middle;resizable=0;points=[];autosize=1;strokeColor=none;fillColor=none;" parent="1" vertex="1">
          <mxGeometry x="-665" y="958" width="30" height="30" as="geometry" />
        </mxCell>
        <mxCell id="PURfVQADF6VqzF4Mbli_-37" value="N" style="text;html=1;align=center;verticalAlign=middle;resizable=0;points=[];autosize=1;strokeColor=none;fillColor=none;" parent="1" vertex="1">
          <mxGeometry x="-770" y="1220" width="30" height="30" as="geometry" />
        </mxCell>
        <mxCell id="PURfVQADF6VqzF4Mbli_-38" value="1" style="text;html=1;align=center;verticalAlign=middle;resizable=0;points=[];autosize=1;strokeColor=none;fillColor=none;" parent="1" vertex="1">
          <mxGeometry x="-660" y="1380" width="30" height="30" as="geometry" />
        </mxCell>
        <mxCell id="PURfVQADF6VqzF4Mbli_-39" value="1" style="text;html=1;align=center;verticalAlign=middle;resizable=0;points=[];autosize=1;strokeColor=none;fillColor=none;" parent="1" vertex="1">
          <mxGeometry x="-570" y="1020" width="30" height="30" as="geometry" />
        </mxCell>
        <mxCell id="PURfVQADF6VqzF4Mbli_-40" value="N" style="text;html=1;align=center;verticalAlign=middle;resizable=0;points=[];autosize=1;strokeColor=none;fillColor=none;" parent="1" vertex="1">
          <mxGeometry x="-570" y="1130" width="30" height="30" as="geometry" />
        </mxCell>
        <mxCell id="PURfVQADF6VqzF4Mbli_-41" value="1" style="text;html=1;align=center;verticalAlign=middle;resizable=0;points=[];autosize=1;strokeColor=none;fillColor=none;" parent="1" vertex="1">
          <mxGeometry x="-570" y="1350" width="30" height="30" as="geometry" />
        </mxCell>
        <mxCell id="PURfVQADF6VqzF4Mbli_-42" value="N" style="text;html=1;align=center;verticalAlign=middle;resizable=0;points=[];autosize=1;strokeColor=none;fillColor=none;" parent="1" vertex="1">
          <mxGeometry x="-570" y="1220" width="30" height="30" as="geometry" />
        </mxCell>
        <mxCell id="PURfVQADF6VqzF4Mbli_-43" value="N" style="text;html=1;align=center;verticalAlign=middle;resizable=0;points=[];autosize=1;strokeColor=none;fillColor=none;" parent="1" vertex="1">
          <mxGeometry x="-510" y="1380" width="30" height="30" as="geometry" />
        </mxCell>
        <mxCell id="PURfVQADF6VqzF4Mbli_-44" value="1" style="text;html=1;align=center;verticalAlign=middle;resizable=0;points=[];autosize=1;strokeColor=none;fillColor=none;" parent="1" vertex="1">
          <mxGeometry x="-290" y="1380" width="30" height="30" as="geometry" />
        </mxCell>
        <mxCell id="PURfVQADF6VqzF4Mbli_-45" value="1" style="text;html=1;align=center;verticalAlign=middle;resizable=0;points=[];autosize=1;strokeColor=none;fillColor=none;" parent="1" vertex="1">
          <mxGeometry x="-570" y="1580" width="30" height="30" as="geometry" />
        </mxCell>
        <mxCell id="PURfVQADF6VqzF4Mbli_-46" value="N" style="text;html=1;align=center;verticalAlign=middle;resizable=0;points=[];autosize=1;strokeColor=none;fillColor=none;" parent="1" vertex="1">
          <mxGeometry x="-570" y="1440" width="30" height="30" as="geometry" />
        </mxCell>
        <mxCell id="PURfVQADF6VqzF4Mbli_-49" value="TipoDeUsuario" style="shape=table;startSize=30;container=1;collapsible=1;childLayout=tableLayout;fixedRows=1;rowLines=0;fontStyle=1;align=center;resizeLast=1;html=1;" parent="1" vertex="1">
          <mxGeometry x="-20" y="970" width="180" height="90" as="geometry" />
        </mxCell>
        <mxCell id="PURfVQADF6VqzF4Mbli_-50" value="" style="shape=tableRow;horizontal=0;startSize=0;swimlaneHead=0;swimlaneBody=0;fillColor=none;collapsible=0;dropTarget=0;points=[[0,0.5],[1,0.5]];portConstraint=eastwest;top=0;left=0;right=0;bottom=1;" parent="PURfVQADF6VqzF4Mbli_-49" vertex="1">
          <mxGeometry y="30" width="180" height="30" as="geometry" />
        </mxCell>
        <mxCell id="PURfVQADF6VqzF4Mbli_-51" value="PK" style="shape=partialRectangle;connectable=0;fillColor=none;top=0;left=0;bottom=0;right=0;fontStyle=1;overflow=hidden;whiteSpace=wrap;html=1;" parent="PURfVQADF6VqzF4Mbli_-50" vertex="1">
          <mxGeometry width="30" height="30" as="geometry">
            <mxRectangle width="30" height="30" as="alternateBounds" />
          </mxGeometry>
        </mxCell>
        <mxCell id="PURfVQADF6VqzF4Mbli_-52" value="IdTipoDeUsuario" style="shape=partialRectangle;connectable=0;fillColor=none;top=0;left=0;bottom=0;right=0;align=left;spacingLeft=6;fontStyle=5;overflow=hidden;whiteSpace=wrap;html=1;" parent="PURfVQADF6VqzF4Mbli_-50" vertex="1">
          <mxGeometry x="30" width="150" height="30" as="geometry">
            <mxRectangle width="150" height="30" as="alternateBounds" />
          </mxGeometry>
        </mxCell>
        <mxCell id="PURfVQADF6VqzF4Mbli_-53" value="" style="shape=tableRow;horizontal=0;startSize=0;swimlaneHead=0;swimlaneBody=0;fillColor=none;collapsible=0;dropTarget=0;points=[[0,0.5],[1,0.5]];portConstraint=eastwest;top=0;left=0;right=0;bottom=0;" parent="PURfVQADF6VqzF4Mbli_-49" vertex="1">
          <mxGeometry y="60" width="180" height="30" as="geometry" />
        </mxCell>
        <mxCell id="PURfVQADF6VqzF4Mbli_-54" value="" style="shape=partialRectangle;connectable=0;fillColor=none;top=0;left=0;bottom=0;right=0;editable=1;overflow=hidden;whiteSpace=wrap;html=1;" parent="PURfVQADF6VqzF4Mbli_-53" vertex="1">
          <mxGeometry width="30" height="30" as="geometry">
            <mxRectangle width="30" height="30" as="alternateBounds" />
          </mxGeometry>
        </mxCell>
        <mxCell id="PURfVQADF6VqzF4Mbli_-55" value="TituloTipoUsuario" style="shape=partialRectangle;connectable=0;fillColor=none;top=0;left=0;bottom=0;right=0;align=left;spacingLeft=6;overflow=hidden;whiteSpace=wrap;html=1;" parent="PURfVQADF6VqzF4Mbli_-53" vertex="1">
          <mxGeometry x="30" width="150" height="30" as="geometry">
            <mxRectangle width="150" height="30" as="alternateBounds" />
          </mxGeometry>
        </mxCell>
        <mxCell id="PURfVQADF6VqzF4Mbli_-62" value="TipoDeEvento" style="shape=table;startSize=30;container=1;collapsible=1;childLayout=tableLayout;fixedRows=1;rowLines=0;fontStyle=1;align=center;resizeLast=1;html=1;" parent="1" vertex="1">
          <mxGeometry x="510" y="1190" width="180" height="90" as="geometry" />
        </mxCell>
        <mxCell id="PURfVQADF6VqzF4Mbli_-63" value="" style="shape=tableRow;horizontal=0;startSize=0;swimlaneHead=0;swimlaneBody=0;fillColor=none;collapsible=0;dropTarget=0;points=[[0,0.5],[1,0.5]];portConstraint=eastwest;top=0;left=0;right=0;bottom=1;" parent="PURfVQADF6VqzF4Mbli_-62" vertex="1">
          <mxGeometry y="30" width="180" height="30" as="geometry" />
        </mxCell>
        <mxCell id="PURfVQADF6VqzF4Mbli_-64" value="PK" style="shape=partialRectangle;connectable=0;fillColor=none;top=0;left=0;bottom=0;right=0;fontStyle=1;overflow=hidden;whiteSpace=wrap;html=1;" parent="PURfVQADF6VqzF4Mbli_-63" vertex="1">
          <mxGeometry width="30" height="30" as="geometry">
            <mxRectangle width="30" height="30" as="alternateBounds" />
          </mxGeometry>
        </mxCell>
        <mxCell id="PURfVQADF6VqzF4Mbli_-65" value="IdTipoDeEvento" style="shape=partialRectangle;connectable=0;fillColor=none;top=0;left=0;bottom=0;right=0;align=left;spacingLeft=6;fontStyle=5;overflow=hidden;whiteSpace=wrap;html=1;" parent="PURfVQADF6VqzF4Mbli_-63" vertex="1">
          <mxGeometry x="30" width="150" height="30" as="geometry">
            <mxRectangle width="150" height="30" as="alternateBounds" />
          </mxGeometry>
        </mxCell>
        <mxCell id="PURfVQADF6VqzF4Mbli_-66" value="" style="shape=tableRow;horizontal=0;startSize=0;swimlaneHead=0;swimlaneBody=0;fillColor=none;collapsible=0;dropTarget=0;points=[[0,0.5],[1,0.5]];portConstraint=eastwest;top=0;left=0;right=0;bottom=0;" parent="PURfVQADF6VqzF4Mbli_-62" vertex="1">
          <mxGeometry y="60" width="180" height="30" as="geometry" />
        </mxCell>
        <mxCell id="PURfVQADF6VqzF4Mbli_-67" value="" style="shape=partialRectangle;connectable=0;fillColor=none;top=0;left=0;bottom=0;right=0;editable=1;overflow=hidden;whiteSpace=wrap;html=1;" parent="PURfVQADF6VqzF4Mbli_-66" vertex="1">
          <mxGeometry width="30" height="30" as="geometry">
            <mxRectangle width="30" height="30" as="alternateBounds" />
          </mxGeometry>
        </mxCell>
        <mxCell id="PURfVQADF6VqzF4Mbli_-68" value="TituloTipoDeEvento" style="shape=partialRectangle;connectable=0;fillColor=none;top=0;left=0;bottom=0;right=0;align=left;spacingLeft=6;overflow=hidden;whiteSpace=wrap;html=1;" parent="PURfVQADF6VqzF4Mbli_-66" vertex="1">
          <mxGeometry x="30" width="150" height="30" as="geometry">
            <mxRectangle width="150" height="30" as="alternateBounds" />
          </mxGeometry>
        </mxCell>
        <mxCell id="PURfVQADF6VqzF4Mbli_-69" value="Instituicao" style="shape=table;startSize=30;container=1;collapsible=1;childLayout=tableLayout;fixedRows=1;rowLines=0;fontStyle=1;align=center;resizeLast=1;html=1;" parent="1" vertex="1">
          <mxGeometry x="1090" y="1060" width="180" height="150" as="geometry" />
        </mxCell>
        <mxCell id="PURfVQADF6VqzF4Mbli_-70" value="" style="shape=tableRow;horizontal=0;startSize=0;swimlaneHead=0;swimlaneBody=0;fillColor=none;collapsible=0;dropTarget=0;points=[[0,0.5],[1,0.5]];portConstraint=eastwest;top=0;left=0;right=0;bottom=1;" parent="PURfVQADF6VqzF4Mbli_-69" vertex="1">
          <mxGeometry y="30" width="180" height="30" as="geometry" />
        </mxCell>
        <mxCell id="PURfVQADF6VqzF4Mbli_-71" value="PK" style="shape=partialRectangle;connectable=0;fillColor=none;top=0;left=0;bottom=0;right=0;fontStyle=1;overflow=hidden;whiteSpace=wrap;html=1;" parent="PURfVQADF6VqzF4Mbli_-70" vertex="1">
          <mxGeometry width="30" height="30" as="geometry">
            <mxRectangle width="30" height="30" as="alternateBounds" />
          </mxGeometry>
        </mxCell>
        <mxCell id="PURfVQADF6VqzF4Mbli_-72" value="IdInstituicao" style="shape=partialRectangle;connectable=0;fillColor=none;top=0;left=0;bottom=0;right=0;align=left;spacingLeft=6;fontStyle=5;overflow=hidden;whiteSpace=wrap;html=1;" parent="PURfVQADF6VqzF4Mbli_-70" vertex="1">
          <mxGeometry x="30" width="150" height="30" as="geometry">
            <mxRectangle width="150" height="30" as="alternateBounds" />
          </mxGeometry>
        </mxCell>
        <mxCell id="PURfVQADF6VqzF4Mbli_-73" value="" style="shape=tableRow;horizontal=0;startSize=0;swimlaneHead=0;swimlaneBody=0;fillColor=none;collapsible=0;dropTarget=0;points=[[0,0.5],[1,0.5]];portConstraint=eastwest;top=0;left=0;right=0;bottom=0;" parent="PURfVQADF6VqzF4Mbli_-69" vertex="1">
          <mxGeometry y="60" width="180" height="30" as="geometry" />
        </mxCell>
        <mxCell id="PURfVQADF6VqzF4Mbli_-74" value="" style="shape=partialRectangle;connectable=0;fillColor=none;top=0;left=0;bottom=0;right=0;editable=1;overflow=hidden;whiteSpace=wrap;html=1;" parent="PURfVQADF6VqzF4Mbli_-73" vertex="1">
          <mxGeometry width="30" height="30" as="geometry">
            <mxRectangle width="30" height="30" as="alternateBounds" />
          </mxGeometry>
        </mxCell>
        <mxCell id="PURfVQADF6VqzF4Mbli_-75" value="NomeFantasia" style="shape=partialRectangle;connectable=0;fillColor=none;top=0;left=0;bottom=0;right=0;align=left;spacingLeft=6;overflow=hidden;whiteSpace=wrap;html=1;" parent="PURfVQADF6VqzF4Mbli_-73" vertex="1">
          <mxGeometry x="30" width="150" height="30" as="geometry">
            <mxRectangle width="150" height="30" as="alternateBounds" />
          </mxGeometry>
        </mxCell>
        <mxCell id="PURfVQADF6VqzF4Mbli_-76" style="shape=tableRow;horizontal=0;startSize=0;swimlaneHead=0;swimlaneBody=0;fillColor=none;collapsible=0;dropTarget=0;points=[[0,0.5],[1,0.5]];portConstraint=eastwest;top=0;left=0;right=0;bottom=0;" parent="PURfVQADF6VqzF4Mbli_-69" vertex="1">
          <mxGeometry y="90" width="180" height="30" as="geometry" />
        </mxCell>
        <mxCell id="PURfVQADF6VqzF4Mbli_-77" style="shape=partialRectangle;connectable=0;fillColor=none;top=0;left=0;bottom=0;right=0;editable=1;overflow=hidden;whiteSpace=wrap;html=1;" parent="PURfVQADF6VqzF4Mbli_-76" vertex="1">
          <mxGeometry width="30" height="30" as="geometry">
            <mxRectangle width="30" height="30" as="alternateBounds" />
          </mxGeometry>
        </mxCell>
        <mxCell id="PURfVQADF6VqzF4Mbli_-78" value="CNPJ" style="shape=partialRectangle;connectable=0;fillColor=none;top=0;left=0;bottom=0;right=0;align=left;spacingLeft=6;overflow=hidden;whiteSpace=wrap;html=1;" parent="PURfVQADF6VqzF4Mbli_-76" vertex="1">
          <mxGeometry x="30" width="150" height="30" as="geometry">
            <mxRectangle width="150" height="30" as="alternateBounds" />
          </mxGeometry>
        </mxCell>
        <mxCell id="PURfVQADF6VqzF4Mbli_-79" style="shape=tableRow;horizontal=0;startSize=0;swimlaneHead=0;swimlaneBody=0;fillColor=none;collapsible=0;dropTarget=0;points=[[0,0.5],[1,0.5]];portConstraint=eastwest;top=0;left=0;right=0;bottom=0;" parent="PURfVQADF6VqzF4Mbli_-69" vertex="1">
          <mxGeometry y="120" width="180" height="30" as="geometry" />
        </mxCell>
        <mxCell id="PURfVQADF6VqzF4Mbli_-80" style="shape=partialRectangle;connectable=0;fillColor=none;top=0;left=0;bottom=0;right=0;editable=1;overflow=hidden;whiteSpace=wrap;html=1;" parent="PURfVQADF6VqzF4Mbli_-79" vertex="1">
          <mxGeometry width="30" height="30" as="geometry">
            <mxRectangle width="30" height="30" as="alternateBounds" />
          </mxGeometry>
        </mxCell>
        <mxCell id="PURfVQADF6VqzF4Mbli_-81" value="Endereco" style="shape=partialRectangle;connectable=0;fillColor=none;top=0;left=0;bottom=0;right=0;align=left;spacingLeft=6;overflow=hidden;whiteSpace=wrap;html=1;" parent="PURfVQADF6VqzF4Mbli_-79" vertex="1">
          <mxGeometry x="30" width="150" height="30" as="geometry">
            <mxRectangle width="150" height="30" as="alternateBounds" />
          </mxGeometry>
        </mxCell>
        <mxCell id="PURfVQADF6VqzF4Mbli_-82" value="Usuario" style="shape=table;startSize=30;container=1;collapsible=1;childLayout=tableLayout;fixedRows=1;rowLines=0;fontStyle=1;align=center;resizeLast=1;html=1;whiteSpace=wrap;" parent="1" vertex="1">
          <mxGeometry x="240" y="980" width="180" height="180" as="geometry" />
        </mxCell>
        <mxCell id="PURfVQADF6VqzF4Mbli_-83" value="" style="shape=tableRow;horizontal=0;startSize=0;swimlaneHead=0;swimlaneBody=0;fillColor=none;collapsible=0;dropTarget=0;points=[[0,0.5],[1,0.5]];portConstraint=eastwest;top=0;left=0;right=0;bottom=0;html=1;" parent="PURfVQADF6VqzF4Mbli_-82" vertex="1">
          <mxGeometry y="30" width="180" height="30" as="geometry" />
        </mxCell>
        <mxCell id="PURfVQADF6VqzF4Mbli_-84" value="PK" style="shape=partialRectangle;connectable=0;fillColor=none;top=0;left=0;bottom=0;right=0;fontStyle=1;overflow=hidden;html=1;whiteSpace=wrap;" parent="PURfVQADF6VqzF4Mbli_-83" vertex="1">
          <mxGeometry width="60" height="30" as="geometry">
            <mxRectangle width="60" height="30" as="alternateBounds" />
          </mxGeometry>
        </mxCell>
        <mxCell id="PURfVQADF6VqzF4Mbli_-85" value="IdUsuario" style="shape=partialRectangle;connectable=0;fillColor=none;top=0;left=0;bottom=0;right=0;align=left;spacingLeft=6;fontStyle=5;overflow=hidden;html=1;whiteSpace=wrap;" parent="PURfVQADF6VqzF4Mbli_-83" vertex="1">
          <mxGeometry x="60" width="120" height="30" as="geometry">
            <mxRectangle width="120" height="30" as="alternateBounds" />
          </mxGeometry>
        </mxCell>
        <mxCell id="PURfVQADF6VqzF4Mbli_-86" value="" style="shape=tableRow;horizontal=0;startSize=0;swimlaneHead=0;swimlaneBody=0;fillColor=none;collapsible=0;dropTarget=0;points=[[0,0.5],[1,0.5]];portConstraint=eastwest;top=0;left=0;right=0;bottom=1;html=1;" parent="PURfVQADF6VqzF4Mbli_-82" vertex="1">
          <mxGeometry y="60" width="180" height="30" as="geometry" />
        </mxCell>
        <mxCell id="PURfVQADF6VqzF4Mbli_-87" value="FK" style="shape=partialRectangle;connectable=0;fillColor=none;top=0;left=0;bottom=0;right=0;fontStyle=1;overflow=hidden;html=1;whiteSpace=wrap;" parent="PURfVQADF6VqzF4Mbli_-86" vertex="1">
          <mxGeometry width="60" height="30" as="geometry">
            <mxRectangle width="60" height="30" as="alternateBounds" />
          </mxGeometry>
        </mxCell>
        <mxCell id="PURfVQADF6VqzF4Mbli_-88" value="IdTipoUsuario" style="shape=partialRectangle;connectable=0;fillColor=none;top=0;left=0;bottom=0;right=0;align=left;spacingLeft=6;fontStyle=5;overflow=hidden;html=1;whiteSpace=wrap;" parent="PURfVQADF6VqzF4Mbli_-86" vertex="1">
          <mxGeometry x="60" width="120" height="30" as="geometry">
            <mxRectangle width="120" height="30" as="alternateBounds" />
          </mxGeometry>
        </mxCell>
        <mxCell id="PURfVQADF6VqzF4Mbli_-89" value="" style="shape=tableRow;horizontal=0;startSize=0;swimlaneHead=0;swimlaneBody=0;fillColor=none;collapsible=0;dropTarget=0;points=[[0,0.5],[1,0.5]];portConstraint=eastwest;top=0;left=0;right=0;bottom=0;html=1;" parent="PURfVQADF6VqzF4Mbli_-82" vertex="1">
          <mxGeometry y="90" width="180" height="30" as="geometry" />
        </mxCell>
        <mxCell id="PURfVQADF6VqzF4Mbli_-90" value="" style="shape=partialRectangle;connectable=0;fillColor=none;top=0;left=0;bottom=0;right=0;editable=1;overflow=hidden;html=1;whiteSpace=wrap;" parent="PURfVQADF6VqzF4Mbli_-89" vertex="1">
          <mxGeometry width="60" height="30" as="geometry">
            <mxRectangle width="60" height="30" as="alternateBounds" />
          </mxGeometry>
        </mxCell>
        <mxCell id="PURfVQADF6VqzF4Mbli_-91" value="Nome" style="shape=partialRectangle;connectable=0;fillColor=none;top=0;left=0;bottom=0;right=0;align=left;spacingLeft=6;overflow=hidden;html=1;whiteSpace=wrap;" parent="PURfVQADF6VqzF4Mbli_-89" vertex="1">
          <mxGeometry x="60" width="120" height="30" as="geometry">
            <mxRectangle width="120" height="30" as="alternateBounds" />
          </mxGeometry>
        </mxCell>
        <mxCell id="PURfVQADF6VqzF4Mbli_-92" value="" style="shape=tableRow;horizontal=0;startSize=0;swimlaneHead=0;swimlaneBody=0;fillColor=none;collapsible=0;dropTarget=0;points=[[0,0.5],[1,0.5]];portConstraint=eastwest;top=0;left=0;right=0;bottom=0;html=1;" parent="PURfVQADF6VqzF4Mbli_-82" vertex="1">
          <mxGeometry y="120" width="180" height="30" as="geometry" />
        </mxCell>
        <mxCell id="PURfVQADF6VqzF4Mbli_-93" value="" style="shape=partialRectangle;connectable=0;fillColor=none;top=0;left=0;bottom=0;right=0;editable=1;overflow=hidden;html=1;whiteSpace=wrap;" parent="PURfVQADF6VqzF4Mbli_-92" vertex="1">
          <mxGeometry width="60" height="30" as="geometry">
            <mxRectangle width="60" height="30" as="alternateBounds" />
          </mxGeometry>
        </mxCell>
        <mxCell id="PURfVQADF6VqzF4Mbli_-94" value="Email" style="shape=partialRectangle;connectable=0;fillColor=none;top=0;left=0;bottom=0;right=0;align=left;spacingLeft=6;overflow=hidden;html=1;whiteSpace=wrap;" parent="PURfVQADF6VqzF4Mbli_-92" vertex="1">
          <mxGeometry x="60" width="120" height="30" as="geometry">
            <mxRectangle width="120" height="30" as="alternateBounds" />
          </mxGeometry>
        </mxCell>
        <mxCell id="PURfVQADF6VqzF4Mbli_-96" style="shape=tableRow;horizontal=0;startSize=0;swimlaneHead=0;swimlaneBody=0;fillColor=none;collapsible=0;dropTarget=0;points=[[0,0.5],[1,0.5]];portConstraint=eastwest;top=0;left=0;right=0;bottom=0;html=1;" parent="PURfVQADF6VqzF4Mbli_-82" vertex="1">
          <mxGeometry y="150" width="180" height="30" as="geometry" />
        </mxCell>
        <mxCell id="PURfVQADF6VqzF4Mbli_-97" style="shape=partialRectangle;connectable=0;fillColor=none;top=0;left=0;bottom=0;right=0;editable=1;overflow=hidden;html=1;whiteSpace=wrap;" parent="PURfVQADF6VqzF4Mbli_-96" vertex="1">
          <mxGeometry width="60" height="30" as="geometry">
            <mxRectangle width="60" height="30" as="alternateBounds" />
          </mxGeometry>
        </mxCell>
        <mxCell id="PURfVQADF6VqzF4Mbli_-98" value="Senha" style="shape=partialRectangle;connectable=0;fillColor=none;top=0;left=0;bottom=0;right=0;align=left;spacingLeft=6;overflow=hidden;html=1;whiteSpace=wrap;" parent="PURfVQADF6VqzF4Mbli_-96" vertex="1">
          <mxGeometry x="60" width="120" height="30" as="geometry">
            <mxRectangle width="120" height="30" as="alternateBounds" />
          </mxGeometry>
        </mxCell>
        <mxCell id="PURfVQADF6VqzF4Mbli_-95" value="" style="edgeStyle=entityRelationEdgeStyle;fontSize=12;html=1;endArrow=ERoneToMany;rounded=0;exitX=1;exitY=0.5;exitDx=0;exitDy=0;entryX=0;entryY=0.5;entryDx=0;entryDy=0;" parent="1" source="PURfVQADF6VqzF4Mbli_-50" target="PURfVQADF6VqzF4Mbli_-86" edge="1">
          <mxGeometry width="100" height="100" relative="1" as="geometry">
            <mxPoint x="180" y="1000" as="sourcePoint" />
            <mxPoint x="280" y="900" as="targetPoint" />
          </mxGeometry>
        </mxCell>
        <mxCell id="PURfVQADF6VqzF4Mbli_-99" value="InscricaoEvento" style="shape=table;startSize=30;container=1;collapsible=1;childLayout=tableLayout;fixedRows=1;rowLines=0;fontStyle=1;align=center;resizeLast=1;html=1;whiteSpace=wrap;" parent="1" vertex="1">
          <mxGeometry x="510" y="995" width="180" height="150" as="geometry" />
        </mxCell>
        <mxCell id="PURfVQADF6VqzF4Mbli_-100" value="" style="shape=tableRow;horizontal=0;startSize=0;swimlaneHead=0;swimlaneBody=0;fillColor=none;collapsible=0;dropTarget=0;points=[[0,0.5],[1,0.5]];portConstraint=eastwest;top=0;left=0;right=0;bottom=0;html=1;" parent="PURfVQADF6VqzF4Mbli_-99" vertex="1">
          <mxGeometry y="30" width="180" height="30" as="geometry" />
        </mxCell>
        <mxCell id="PURfVQADF6VqzF4Mbli_-101" value="PK" style="shape=partialRectangle;connectable=0;fillColor=none;top=0;left=0;bottom=0;right=0;fontStyle=1;overflow=hidden;html=1;whiteSpace=wrap;" parent="PURfVQADF6VqzF4Mbli_-100" vertex="1">
          <mxGeometry width="60" height="30" as="geometry">
            <mxRectangle width="60" height="30" as="alternateBounds" />
          </mxGeometry>
        </mxCell>
        <mxCell id="PURfVQADF6VqzF4Mbli_-102" value="IdInscricaoEvento" style="shape=partialRectangle;connectable=0;fillColor=none;top=0;left=0;bottom=0;right=0;align=left;spacingLeft=6;fontStyle=5;overflow=hidden;html=1;whiteSpace=wrap;" parent="PURfVQADF6VqzF4Mbli_-100" vertex="1">
          <mxGeometry x="60" width="120" height="30" as="geometry">
            <mxRectangle width="120" height="30" as="alternateBounds" />
          </mxGeometry>
        </mxCell>
        <mxCell id="PURfVQADF6VqzF4Mbli_-112" style="shape=tableRow;horizontal=0;startSize=0;swimlaneHead=0;swimlaneBody=0;fillColor=none;collapsible=0;dropTarget=0;points=[[0,0.5],[1,0.5]];portConstraint=eastwest;top=0;left=0;right=0;bottom=0;html=1;" parent="PURfVQADF6VqzF4Mbli_-99" vertex="1">
          <mxGeometry y="60" width="180" height="30" as="geometry" />
        </mxCell>
        <mxCell id="PURfVQADF6VqzF4Mbli_-113" value="FK1" style="shape=partialRectangle;connectable=0;fillColor=none;top=0;left=0;bottom=0;right=0;editable=1;overflow=hidden;html=1;whiteSpace=wrap;" parent="PURfVQADF6VqzF4Mbli_-112" vertex="1">
          <mxGeometry width="60" height="30" as="geometry">
            <mxRectangle width="60" height="30" as="alternateBounds" />
          </mxGeometry>
        </mxCell>
        <mxCell id="PURfVQADF6VqzF4Mbli_-114" value="IdUsuario" style="shape=partialRectangle;connectable=0;fillColor=none;top=0;left=0;bottom=0;right=0;align=left;spacingLeft=6;overflow=hidden;html=1;whiteSpace=wrap;" parent="PURfVQADF6VqzF4Mbli_-112" vertex="1">
          <mxGeometry x="60" width="120" height="30" as="geometry">
            <mxRectangle width="120" height="30" as="alternateBounds" />
          </mxGeometry>
        </mxCell>
        <mxCell id="PURfVQADF6VqzF4Mbli_-103" value="" style="shape=tableRow;horizontal=0;startSize=0;swimlaneHead=0;swimlaneBody=0;fillColor=none;collapsible=0;dropTarget=0;points=[[0,0.5],[1,0.5]];portConstraint=eastwest;top=0;left=0;right=0;bottom=1;html=1;" parent="PURfVQADF6VqzF4Mbli_-99" vertex="1">
          <mxGeometry y="90" width="180" height="30" as="geometry" />
        </mxCell>
        <mxCell id="PURfVQADF6VqzF4Mbli_-104" value="FK2" style="shape=partialRectangle;connectable=0;fillColor=none;top=0;left=0;bottom=0;right=0;fontStyle=1;overflow=hidden;html=1;whiteSpace=wrap;" parent="PURfVQADF6VqzF4Mbli_-103" vertex="1">
          <mxGeometry width="60" height="30" as="geometry">
            <mxRectangle width="60" height="30" as="alternateBounds" />
          </mxGeometry>
        </mxCell>
        <mxCell id="PURfVQADF6VqzF4Mbli_-105" value="IdEvento" style="shape=partialRectangle;connectable=0;fillColor=none;top=0;left=0;bottom=0;right=0;align=left;spacingLeft=6;fontStyle=5;overflow=hidden;html=1;whiteSpace=wrap;" parent="PURfVQADF6VqzF4Mbli_-103" vertex="1">
          <mxGeometry x="60" width="120" height="30" as="geometry">
            <mxRectangle width="120" height="30" as="alternateBounds" />
          </mxGeometry>
        </mxCell>
        <mxCell id="PURfVQADF6VqzF4Mbli_-106" value="" style="shape=tableRow;horizontal=0;startSize=0;swimlaneHead=0;swimlaneBody=0;fillColor=none;collapsible=0;dropTarget=0;points=[[0,0.5],[1,0.5]];portConstraint=eastwest;top=0;left=0;right=0;bottom=0;html=1;" parent="PURfVQADF6VqzF4Mbli_-99" vertex="1">
          <mxGeometry y="120" width="180" height="30" as="geometry" />
        </mxCell>
        <mxCell id="PURfVQADF6VqzF4Mbli_-107" value="" style="shape=partialRectangle;connectable=0;fillColor=none;top=0;left=0;bottom=0;right=0;editable=1;overflow=hidden;html=1;whiteSpace=wrap;" parent="PURfVQADF6VqzF4Mbli_-106" vertex="1">
          <mxGeometry width="60" height="30" as="geometry">
            <mxRectangle width="60" height="30" as="alternateBounds" />
          </mxGeometry>
        </mxCell>
        <mxCell id="PURfVQADF6VqzF4Mbli_-108" value="Situacao" style="shape=partialRectangle;connectable=0;fillColor=none;top=0;left=0;bottom=0;right=0;align=left;spacingLeft=6;overflow=hidden;html=1;whiteSpace=wrap;" parent="PURfVQADF6VqzF4Mbli_-106" vertex="1">
          <mxGeometry x="60" width="120" height="30" as="geometry">
            <mxRectangle width="120" height="30" as="alternateBounds" />
          </mxGeometry>
        </mxCell>
        <mxCell id="PURfVQADF6VqzF4Mbli_-115" value="" style="edgeStyle=entityRelationEdgeStyle;fontSize=12;html=1;endArrow=ERoneToMany;rounded=0;exitX=1;exitY=0.5;exitDx=0;exitDy=0;entryX=0;entryY=0.5;entryDx=0;entryDy=0;" parent="1" source="PURfVQADF6VqzF4Mbli_-83" target="PURfVQADF6VqzF4Mbli_-112" edge="1">
          <mxGeometry width="100" height="100" relative="1" as="geometry">
            <mxPoint x="450" y="1070" as="sourcePoint" />
            <mxPoint x="550" y="970" as="targetPoint" />
          </mxGeometry>
        </mxCell>
        <mxCell id="PURfVQADF6VqzF4Mbli_-116" value="Evento" style="shape=table;startSize=30;container=1;collapsible=1;childLayout=tableLayout;fixedRows=1;rowLines=0;fontStyle=1;align=center;resizeLast=1;html=1;whiteSpace=wrap;" parent="1" vertex="1">
          <mxGeometry x="810" y="988" width="180" height="210" as="geometry" />
        </mxCell>
        <mxCell id="PURfVQADF6VqzF4Mbli_-117" value="" style="shape=tableRow;horizontal=0;startSize=0;swimlaneHead=0;swimlaneBody=0;fillColor=none;collapsible=0;dropTarget=0;points=[[0,0.5],[1,0.5]];portConstraint=eastwest;top=0;left=0;right=0;bottom=0;html=1;" parent="PURfVQADF6VqzF4Mbli_-116" vertex="1">
          <mxGeometry y="30" width="180" height="30" as="geometry" />
        </mxCell>
        <mxCell id="PURfVQADF6VqzF4Mbli_-118" value="PK" style="shape=partialRectangle;connectable=0;fillColor=none;top=0;left=0;bottom=0;right=0;fontStyle=1;overflow=hidden;html=1;whiteSpace=wrap;" parent="PURfVQADF6VqzF4Mbli_-117" vertex="1">
          <mxGeometry width="60" height="30" as="geometry">
            <mxRectangle width="60" height="30" as="alternateBounds" />
          </mxGeometry>
        </mxCell>
        <mxCell id="PURfVQADF6VqzF4Mbli_-119" value="IdEvento" style="shape=partialRectangle;connectable=0;fillColor=none;top=0;left=0;bottom=0;right=0;align=left;spacingLeft=6;fontStyle=5;overflow=hidden;html=1;whiteSpace=wrap;" parent="PURfVQADF6VqzF4Mbli_-117" vertex="1">
          <mxGeometry x="60" width="120" height="30" as="geometry">
            <mxRectangle width="120" height="30" as="alternateBounds" />
          </mxGeometry>
        </mxCell>
        <mxCell id="PURfVQADF6VqzF4Mbli_-133" value="" style="shape=tableRow;horizontal=0;startSize=0;swimlaneHead=0;swimlaneBody=0;fillColor=none;collapsible=0;dropTarget=0;points=[[0,0.5],[1,0.5]];portConstraint=eastwest;top=0;left=0;right=0;bottom=0;" parent="PURfVQADF6VqzF4Mbli_-116" vertex="1">
          <mxGeometry y="60" width="180" height="30" as="geometry" />
        </mxCell>
        <mxCell id="PURfVQADF6VqzF4Mbli_-134" value="FK1" style="shape=partialRectangle;connectable=0;fillColor=none;top=0;left=0;bottom=0;right=0;fontStyle=0;overflow=hidden;whiteSpace=wrap;html=1;" parent="PURfVQADF6VqzF4Mbli_-133" vertex="1">
          <mxGeometry width="60" height="30" as="geometry">
            <mxRectangle width="60" height="30" as="alternateBounds" />
          </mxGeometry>
        </mxCell>
        <mxCell id="PURfVQADF6VqzF4Mbli_-135" value="IdInstituicao" style="shape=partialRectangle;connectable=0;fillColor=none;top=0;left=0;bottom=0;right=0;align=left;spacingLeft=6;fontStyle=0;overflow=hidden;whiteSpace=wrap;html=1;" parent="PURfVQADF6VqzF4Mbli_-133" vertex="1">
          <mxGeometry x="60" width="120" height="30" as="geometry">
            <mxRectangle width="120" height="30" as="alternateBounds" />
          </mxGeometry>
        </mxCell>
        <mxCell id="PURfVQADF6VqzF4Mbli_-120" value="" style="shape=tableRow;horizontal=0;startSize=0;swimlaneHead=0;swimlaneBody=0;fillColor=none;collapsible=0;dropTarget=0;points=[[0,0.5],[1,0.5]];portConstraint=eastwest;top=0;left=0;right=0;bottom=1;html=1;" parent="PURfVQADF6VqzF4Mbli_-116" vertex="1">
          <mxGeometry y="90" width="180" height="30" as="geometry" />
        </mxCell>
        <mxCell id="PURfVQADF6VqzF4Mbli_-121" value="FK2" style="shape=partialRectangle;connectable=0;fillColor=none;top=0;left=0;bottom=0;right=0;fontStyle=1;overflow=hidden;html=1;whiteSpace=wrap;" parent="PURfVQADF6VqzF4Mbli_-120" vertex="1">
          <mxGeometry width="60" height="30" as="geometry">
            <mxRectangle width="60" height="30" as="alternateBounds" />
          </mxGeometry>
        </mxCell>
        <mxCell id="PURfVQADF6VqzF4Mbli_-122" value="IdTipoDeEvento" style="shape=partialRectangle;connectable=0;fillColor=none;top=0;left=0;bottom=0;right=0;align=left;spacingLeft=6;fontStyle=5;overflow=hidden;html=1;whiteSpace=wrap;" parent="PURfVQADF6VqzF4Mbli_-120" vertex="1">
          <mxGeometry x="60" width="120" height="30" as="geometry">
            <mxRectangle width="120" height="30" as="alternateBounds" />
          </mxGeometry>
        </mxCell>
        <mxCell id="PURfVQADF6VqzF4Mbli_-123" value="" style="shape=tableRow;horizontal=0;startSize=0;swimlaneHead=0;swimlaneBody=0;fillColor=none;collapsible=0;dropTarget=0;points=[[0,0.5],[1,0.5]];portConstraint=eastwest;top=0;left=0;right=0;bottom=0;html=1;" parent="PURfVQADF6VqzF4Mbli_-116" vertex="1">
          <mxGeometry y="120" width="180" height="30" as="geometry" />
        </mxCell>
        <mxCell id="PURfVQADF6VqzF4Mbli_-124" value="" style="shape=partialRectangle;connectable=0;fillColor=none;top=0;left=0;bottom=0;right=0;editable=1;overflow=hidden;html=1;whiteSpace=wrap;" parent="PURfVQADF6VqzF4Mbli_-123" vertex="1">
          <mxGeometry width="60" height="30" as="geometry">
            <mxRectangle width="60" height="30" as="alternateBounds" />
          </mxGeometry>
        </mxCell>
        <mxCell id="PURfVQADF6VqzF4Mbli_-125" value="NomeEvento" style="shape=partialRectangle;connectable=0;fillColor=none;top=0;left=0;bottom=0;right=0;align=left;spacingLeft=6;overflow=hidden;html=1;whiteSpace=wrap;" parent="PURfVQADF6VqzF4Mbli_-123" vertex="1">
          <mxGeometry x="60" width="120" height="30" as="geometry">
            <mxRectangle width="120" height="30" as="alternateBounds" />
          </mxGeometry>
        </mxCell>
        <mxCell id="PURfVQADF6VqzF4Mbli_-126" value="" style="shape=tableRow;horizontal=0;startSize=0;swimlaneHead=0;swimlaneBody=0;fillColor=none;collapsible=0;dropTarget=0;points=[[0,0.5],[1,0.5]];portConstraint=eastwest;top=0;left=0;right=0;bottom=0;html=1;" parent="PURfVQADF6VqzF4Mbli_-116" vertex="1">
          <mxGeometry y="150" width="180" height="30" as="geometry" />
        </mxCell>
        <mxCell id="PURfVQADF6VqzF4Mbli_-127" value="" style="shape=partialRectangle;connectable=0;fillColor=none;top=0;left=0;bottom=0;right=0;editable=1;overflow=hidden;html=1;whiteSpace=wrap;" parent="PURfVQADF6VqzF4Mbli_-126" vertex="1">
          <mxGeometry width="60" height="30" as="geometry">
            <mxRectangle width="60" height="30" as="alternateBounds" />
          </mxGeometry>
        </mxCell>
        <mxCell id="PURfVQADF6VqzF4Mbli_-128" value="Descricao" style="shape=partialRectangle;connectable=0;fillColor=none;top=0;left=0;bottom=0;right=0;align=left;spacingLeft=6;overflow=hidden;html=1;whiteSpace=wrap;" parent="PURfVQADF6VqzF4Mbli_-126" vertex="1">
          <mxGeometry x="60" width="120" height="30" as="geometry">
            <mxRectangle width="120" height="30" as="alternateBounds" />
          </mxGeometry>
        </mxCell>
        <mxCell id="PURfVQADF6VqzF4Mbli_-138" style="shape=tableRow;horizontal=0;startSize=0;swimlaneHead=0;swimlaneBody=0;fillColor=none;collapsible=0;dropTarget=0;points=[[0,0.5],[1,0.5]];portConstraint=eastwest;top=0;left=0;right=0;bottom=0;html=1;" parent="PURfVQADF6VqzF4Mbli_-116" vertex="1">
          <mxGeometry y="180" width="180" height="30" as="geometry" />
        </mxCell>
        <mxCell id="PURfVQADF6VqzF4Mbli_-139" style="shape=partialRectangle;connectable=0;fillColor=none;top=0;left=0;bottom=0;right=0;editable=1;overflow=hidden;html=1;whiteSpace=wrap;" parent="PURfVQADF6VqzF4Mbli_-138" vertex="1">
          <mxGeometry width="60" height="30" as="geometry">
            <mxRectangle width="60" height="30" as="alternateBounds" />
          </mxGeometry>
        </mxCell>
        <mxCell id="PURfVQADF6VqzF4Mbli_-140" value="DataEvento" style="shape=partialRectangle;connectable=0;fillColor=none;top=0;left=0;bottom=0;right=0;align=left;spacingLeft=6;overflow=hidden;html=1;whiteSpace=wrap;" parent="PURfVQADF6VqzF4Mbli_-138" vertex="1">
          <mxGeometry x="60" width="120" height="30" as="geometry">
            <mxRectangle width="120" height="30" as="alternateBounds" />
          </mxGeometry>
        </mxCell>
        <mxCell id="PURfVQADF6VqzF4Mbli_-129" value="" style="edgeStyle=entityRelationEdgeStyle;fontSize=12;html=1;endArrow=ERoneToMany;rounded=0;exitX=0;exitY=0.5;exitDx=0;exitDy=0;entryX=1;entryY=0.5;entryDx=0;entryDy=0;" parent="1" source="PURfVQADF6VqzF4Mbli_-117" target="PURfVQADF6VqzF4Mbli_-103" edge="1">
          <mxGeometry width="100" height="100" relative="1" as="geometry">
            <mxPoint x="710" y="1060" as="sourcePoint" />
            <mxPoint x="810" y="960" as="targetPoint" />
          </mxGeometry>
        </mxCell>
        <mxCell id="PURfVQADF6VqzF4Mbli_-136" value="" style="edgeStyle=entityRelationEdgeStyle;fontSize=12;html=1;endArrow=ERoneToMany;rounded=0;exitX=0;exitY=0.5;exitDx=0;exitDy=0;entryX=1;entryY=0.5;entryDx=0;entryDy=0;" parent="1" source="PURfVQADF6VqzF4Mbli_-70" target="PURfVQADF6VqzF4Mbli_-133" edge="1">
          <mxGeometry width="100" height="100" relative="1" as="geometry">
            <mxPoint x="1080" y="1130" as="sourcePoint" />
            <mxPoint x="1180" y="1030" as="targetPoint" />
          </mxGeometry>
        </mxCell>
        <mxCell id="PURfVQADF6VqzF4Mbli_-137" value="" style="edgeStyle=entityRelationEdgeStyle;fontSize=12;html=1;endArrow=ERoneToMany;rounded=0;exitX=1;exitY=0.5;exitDx=0;exitDy=0;entryX=0;entryY=0.5;entryDx=0;entryDy=0;" parent="1" source="PURfVQADF6VqzF4Mbli_-63" target="PURfVQADF6VqzF4Mbli_-120" edge="1">
          <mxGeometry width="100" height="100" relative="1" as="geometry">
            <mxPoint x="710" y="1200" as="sourcePoint" />
            <mxPoint x="810" y="1100" as="targetPoint" />
          </mxGeometry>
        </mxCell>
        <mxCell id="PURfVQADF6VqzF4Mbli_-141" value="Comentario" style="shape=table;startSize=30;container=1;collapsible=1;childLayout=tableLayout;fixedRows=1;rowLines=0;fontStyle=1;align=center;resizeLast=1;html=1;whiteSpace=wrap;" parent="1" vertex="1">
          <mxGeometry x="510" y="778" width="180" height="180" as="geometry" />
        </mxCell>
        <mxCell id="PURfVQADF6VqzF4Mbli_-142" value="" style="shape=tableRow;horizontal=0;startSize=0;swimlaneHead=0;swimlaneBody=0;fillColor=none;collapsible=0;dropTarget=0;points=[[0,0.5],[1,0.5]];portConstraint=eastwest;top=0;left=0;right=0;bottom=0;html=1;" parent="PURfVQADF6VqzF4Mbli_-141" vertex="1">
          <mxGeometry y="30" width="180" height="30" as="geometry" />
        </mxCell>
        <mxCell id="PURfVQADF6VqzF4Mbli_-143" value="PK" style="shape=partialRectangle;connectable=0;fillColor=none;top=0;left=0;bottom=0;right=0;fontStyle=1;overflow=hidden;html=1;whiteSpace=wrap;" parent="PURfVQADF6VqzF4Mbli_-142" vertex="1">
          <mxGeometry width="60" height="30" as="geometry">
            <mxRectangle width="60" height="30" as="alternateBounds" />
          </mxGeometry>
        </mxCell>
        <mxCell id="PURfVQADF6VqzF4Mbli_-144" value="IdComentario" style="shape=partialRectangle;connectable=0;fillColor=none;top=0;left=0;bottom=0;right=0;align=left;spacingLeft=6;fontStyle=5;overflow=hidden;html=1;whiteSpace=wrap;" parent="PURfVQADF6VqzF4Mbli_-142" vertex="1">
          <mxGeometry x="60" width="120" height="30" as="geometry">
            <mxRectangle width="120" height="30" as="alternateBounds" />
          </mxGeometry>
        </mxCell>
        <mxCell id="PURfVQADF6VqzF4Mbli_-154" value="" style="shape=tableRow;horizontal=0;startSize=0;swimlaneHead=0;swimlaneBody=0;fillColor=none;collapsible=0;dropTarget=0;points=[[0,0.5],[1,0.5]];portConstraint=eastwest;top=0;left=0;right=0;bottom=0;" parent="PURfVQADF6VqzF4Mbli_-141" vertex="1">
          <mxGeometry y="60" width="180" height="30" as="geometry" />
        </mxCell>
        <mxCell id="PURfVQADF6VqzF4Mbli_-155" value="FK1" style="shape=partialRectangle;connectable=0;fillColor=none;top=0;left=0;bottom=0;right=0;fontStyle=0;overflow=hidden;whiteSpace=wrap;html=1;" parent="PURfVQADF6VqzF4Mbli_-154" vertex="1">
          <mxGeometry width="60" height="30" as="geometry">
            <mxRectangle width="60" height="30" as="alternateBounds" />
          </mxGeometry>
        </mxCell>
        <mxCell id="PURfVQADF6VqzF4Mbli_-156" value="IdUsuario" style="shape=partialRectangle;connectable=0;fillColor=none;top=0;left=0;bottom=0;right=0;align=left;spacingLeft=6;fontStyle=0;overflow=hidden;whiteSpace=wrap;html=1;" parent="PURfVQADF6VqzF4Mbli_-154" vertex="1">
          <mxGeometry x="60" width="120" height="30" as="geometry">
            <mxRectangle width="120" height="30" as="alternateBounds" />
          </mxGeometry>
        </mxCell>
        <mxCell id="PURfVQADF6VqzF4Mbli_-145" value="" style="shape=tableRow;horizontal=0;startSize=0;swimlaneHead=0;swimlaneBody=0;fillColor=none;collapsible=0;dropTarget=0;points=[[0,0.5],[1,0.5]];portConstraint=eastwest;top=0;left=0;right=0;bottom=1;html=1;" parent="PURfVQADF6VqzF4Mbli_-141" vertex="1">
          <mxGeometry y="90" width="180" height="30" as="geometry" />
        </mxCell>
        <mxCell id="PURfVQADF6VqzF4Mbli_-146" value="FK2" style="shape=partialRectangle;connectable=0;fillColor=none;top=0;left=0;bottom=0;right=0;fontStyle=1;overflow=hidden;html=1;whiteSpace=wrap;" parent="PURfVQADF6VqzF4Mbli_-145" vertex="1">
          <mxGeometry width="60" height="30" as="geometry">
            <mxRectangle width="60" height="30" as="alternateBounds" />
          </mxGeometry>
        </mxCell>
        <mxCell id="PURfVQADF6VqzF4Mbli_-147" value="IdEvento" style="shape=partialRectangle;connectable=0;fillColor=none;top=0;left=0;bottom=0;right=0;align=left;spacingLeft=6;fontStyle=5;overflow=hidden;html=1;whiteSpace=wrap;" parent="PURfVQADF6VqzF4Mbli_-145" vertex="1">
          <mxGeometry x="60" width="120" height="30" as="geometry">
            <mxRectangle width="120" height="30" as="alternateBounds" />
          </mxGeometry>
        </mxCell>
        <mxCell id="PURfVQADF6VqzF4Mbli_-148" value="" style="shape=tableRow;horizontal=0;startSize=0;swimlaneHead=0;swimlaneBody=0;fillColor=none;collapsible=0;dropTarget=0;points=[[0,0.5],[1,0.5]];portConstraint=eastwest;top=0;left=0;right=0;bottom=0;html=1;" parent="PURfVQADF6VqzF4Mbli_-141" vertex="1">
          <mxGeometry y="120" width="180" height="30" as="geometry" />
        </mxCell>
        <mxCell id="PURfVQADF6VqzF4Mbli_-149" value="" style="shape=partialRectangle;connectable=0;fillColor=none;top=0;left=0;bottom=0;right=0;editable=1;overflow=hidden;html=1;whiteSpace=wrap;" parent="PURfVQADF6VqzF4Mbli_-148" vertex="1">
          <mxGeometry width="60" height="30" as="geometry">
            <mxRectangle width="60" height="30" as="alternateBounds" />
          </mxGeometry>
        </mxCell>
        <mxCell id="PURfVQADF6VqzF4Mbli_-150" value="Descricao" style="shape=partialRectangle;connectable=0;fillColor=none;top=0;left=0;bottom=0;right=0;align=left;spacingLeft=6;overflow=hidden;html=1;whiteSpace=wrap;" parent="PURfVQADF6VqzF4Mbli_-148" vertex="1">
          <mxGeometry x="60" width="120" height="30" as="geometry">
            <mxRectangle width="120" height="30" as="alternateBounds" />
          </mxGeometry>
        </mxCell>
        <mxCell id="PURfVQADF6VqzF4Mbli_-151" value="" style="shape=tableRow;horizontal=0;startSize=0;swimlaneHead=0;swimlaneBody=0;fillColor=none;collapsible=0;dropTarget=0;points=[[0,0.5],[1,0.5]];portConstraint=eastwest;top=0;left=0;right=0;bottom=0;html=1;" parent="PURfVQADF6VqzF4Mbli_-141" vertex="1">
          <mxGeometry y="150" width="180" height="30" as="geometry" />
        </mxCell>
        <mxCell id="PURfVQADF6VqzF4Mbli_-152" value="" style="shape=partialRectangle;connectable=0;fillColor=none;top=0;left=0;bottom=0;right=0;editable=1;overflow=hidden;html=1;whiteSpace=wrap;" parent="PURfVQADF6VqzF4Mbli_-151" vertex="1">
          <mxGeometry width="60" height="30" as="geometry">
            <mxRectangle width="60" height="30" as="alternateBounds" />
          </mxGeometry>
        </mxCell>
        <mxCell id="PURfVQADF6VqzF4Mbli_-153" value="Exibe" style="shape=partialRectangle;connectable=0;fillColor=none;top=0;left=0;bottom=0;right=0;align=left;spacingLeft=6;overflow=hidden;html=1;whiteSpace=wrap;" parent="PURfVQADF6VqzF4Mbli_-151" vertex="1">
          <mxGeometry x="60" width="120" height="30" as="geometry">
            <mxRectangle width="120" height="30" as="alternateBounds" />
          </mxGeometry>
        </mxCell>
        <mxCell id="L4EpZhX8fv0X70ZUJRXl-2" value="" style="edgeStyle=entityRelationEdgeStyle;fontSize=12;html=1;endArrow=ERoneToMany;rounded=0;exitX=1;exitY=0.5;exitDx=0;exitDy=0;entryX=0;entryY=0.5;entryDx=0;entryDy=0;" parent="1" source="PURfVQADF6VqzF4Mbli_-83" target="PURfVQADF6VqzF4Mbli_-154" edge="1">
          <mxGeometry width="100" height="100" relative="1" as="geometry">
            <mxPoint x="680" y="890" as="sourcePoint" />
            <mxPoint x="780" y="790" as="targetPoint" />
          </mxGeometry>
        </mxCell>
        <mxCell id="L4EpZhX8fv0X70ZUJRXl-3" value="" style="edgeStyle=entityRelationEdgeStyle;fontSize=12;html=1;endArrow=ERoneToMany;rounded=0;entryX=1;entryY=0.5;entryDx=0;entryDy=0;exitX=0;exitY=0.5;exitDx=0;exitDy=0;" parent="1" source="PURfVQADF6VqzF4Mbli_-117" target="PURfVQADF6VqzF4Mbli_-145" edge="1">
          <mxGeometry width="100" height="100" relative="1" as="geometry">
            <mxPoint x="750" y="1000" as="sourcePoint" />
            <mxPoint x="900" y="830" as="targetPoint" />
          </mxGeometry>
        </mxCell>
      </root>
    </mxGraphModel>
  </diagram>
  <diagram id="SjS_SgPaSno-NlB0o7iz" name="PÃ¡gina-2">
    <mxGraphModel dx="1050" dy="574" grid="1" gridSize="10" guides="1" tooltips="1" connect="1" arrows="1" fold="1" page="1" pageScale="1" pageWidth="827" pageHeight="1169" math="0" shadow="0">
      <root>
        <mxCell id="0" />
        <mxCell id="1" parent="0" />
      </root>
    </mxGraphModel>
  </diagram>
</mxfile>
